AnekGujarati-CondensedMedium.ufo
<glyph name="grave" format="2">
  <advance width="488"/>
  <unicode hex="0060"/>
  <anchor x="322" y="998" name="_top"/>
  <anchor x="317" y="1317" name="top"/>
  <outline>
    <contour>
      <point x="274" y="1349" type="line"/>
      <point x="96" y="1349" type="line"/>
      <point x="96" y="1349" type="line"/>
      <point x="252" y="1092" type="line"/>
      <point x="392" y="1092" type="line"/>
      <point x="392" y="1092" type="line"/>
    </contour>
  </outline>
</glyph>
<glyph name="Doubledanda.gj" format="2">
  <advance width="754"/>
  <unicode hex="0965"/>
  <anchor x="553" y="-63" name="Bottom"/>
  <anchor x="536" y="1273" name="Top"/>
  <anchor x="565" y="1273" name="Top2"/>
  <outline>
    <contour>
      <point x="101" y="508" type="line"/>
      <point x="276" y="508" type="line"/>
      <point x="276" y="1212" type="line"/>
      <point x="101" y="1212" type="line"/>
    </contour>
    <contour>
      <point x="101" y="0" type="line"/>
      <point x="276" y="0" type="line"/>
      <point x="276" y="666" type="line"/>
      <point x="101" y="666" type="line"/>
    </contour>
    <contour>
      <point x="478" y="508" type="line"/>
      <point x="653" y="508" type="line"/>
      <point x="653" y="1212" type="line"/>
      <point x="478" y="1212" type="line"/>
    </contour>
    <contour>
      <point x="478" y="0" type="line"/>
      <point x="653" y="0" type="line"/>
      <point x="653" y="666" type="line"/>
      <point x="478" y="666" type="line"/>
    </contour>
  </outline>
</glyph>
<glyph name="Chandrabindu.gj" format="2">
  <unicode hex="0A81"/>
  <anchor x="360" y="1282" name="_Top2"/>
  <outline>
    <contour>
      <point x="360" y="1313" type="curve" smooth="yes"/>
      <point x="539" y="1313"/>
      <point x="636" y="1400"/>
      <point x="636" y="1583" type="curve" smooth="yes"/>
      <point x="636" y="1594"/>
      <point x="636" y="1608"/>
      <point x="634" y="1639" type="curve"/>
      <point x="506" y="1639" type="line"/>
      <point x="506" y="1599" type="line" smooth="yes"/>
      <point x="506" y="1482"/>
      <point x="459" y="1431"/>
      <point x="361" y="1431" type="curve" smooth="yes"/>
      <point x="262" y="1431"/>
      <point x="216" y="1482"/>
      <point x="216" y="1599" type="curve" smooth="yes"/>
      <point x="216" y="1639" type="line"/>
      <point x="88" y="1639" type="line"/>
      <point x="86" y="1608"/>
      <point x="86" y="1594"/>
      <point x="86" y="1583" type="curve" smooth="yes"/>
      <point x="86" y="1400"/>
      <point x="182" y="1313"/>
    </contour>
    <contour>
      <point x="361" y="1524" type="curve" smooth="yes"/>
      <point x="412" y="1524"/>
      <point x="431" y="1561"/>
      <point x="431" y="1632" type="curve" smooth="yes"/>
      <point x="431" y="1646" type="line" smooth="yes"/>
      <point x="431" y="1715"/>
      <point x="412" y="1753"/>
      <point x="361" y="1753" type="curve" smooth="yes"/>
      <point x="310" y="1753"/>
      <point x="290" y="1715"/>
      <point x="290" y="1646" type="curve" smooth="yes"/>
      <point x="290" y="1632" type="line" smooth="yes"/>
      <point x="290" y="1561"/>
      <point x="310" y="1524"/>
    </contour>
  </outline>
</glyph>
<glyph name="Bindu.gj" format="2">
  <unicode hex="0A82"/>
  <anchor x="195" y="1273" name="_Top2"/>
  <outline>
    <contour>
      <point x="195" y="1347" type="curve" smooth="yes"/>
      <point x="262" y="1347"/>
      <point x="292" y="1390"/>
      <point x="292" y="1468" type="curve" smooth="yes"/>
      <point x="292" y="1489" type="line" smooth="yes"/>
      <point x="292" y="1566"/>
      <point x="262" y="1610"/>
      <point x="195" y="1610" type="curve" smooth="yes"/>
      <point x="129" y="1610"/>
      <point x="98" y="1566"/>
      <point x="98" y="1489" type="curve" smooth="yes"/>
      <point x="98" y="1468" type="line" smooth="yes"/>
      <point x="98" y="1390"/>
      <point x="129" y="1347"/>
    </contour>
  </outline>
</glyph>
<glyph name="Visarga.gj" format="2">
  <advance width="364"/>
  <unicode hex="0A83"/>
  <anchor x="182" y="117" name="_Top2"/>
  <outline>
    <contour>
      <point x="182" y="191" type="curve" smooth="yes"/>
      <point x="249" y="191"/>
      <point x="279" y="234"/>
      <point x="279" y="312" type="curve" smooth="yes"/>
      <point x="279" y="333" type="line" smooth="yes"/>
      <point x="279" y="410"/>
      <point x="249" y="454"/>
      <point x="182" y="454" type="curve" smooth="yes"/>
      <point x="116" y="454"/>
      <point x="85" y="410"/>
      <point x="85" y="333" type="curve" smooth="yes"/>
      <point x="85" y="312" type="line" smooth="yes"/>
      <point x="85" y="234"/>
      <point x="116" y="191"/>
    </contour>
    <contour>
      <point x="182" y="757" type="curve" smooth="yes"/>
      <point x="249" y="757"/>
      <point x="279" y="800"/>
      <point x="279" y="878" type="curve" smooth="yes"/>
      <point x="279" y="899" type="line" smooth="yes"/>
      <point x="279" y="976"/>
      <point x="249" y="1020"/>
      <point x="182" y="1020" type="curve" smooth="yes"/>
      <point x="116" y="1020"/>
      <point x="85" y="976"/>
      <point x="85" y="899" type="curve" smooth="yes"/>
      <point x="85" y="878" type="line" smooth="yes"/>
      <point x="85" y="800"/>
      <point x="116" y="757"/>
    </contour>
  </outline>
</glyph>
<glyph name="VowelI.gj" format="2">
  <advance width="834"/>
  <unicode hex="0A87"/>
  <guideline x="948" y="1599" angle="0"/>
  <anchor x="261" y="1282" name="Top2"/>
  <outline>
    <contour>
      <point x="567" y="541" type="line"/>
      <point x="742" y="541" type="line"/>
      <point x="742" y="1575" type="line"/>
      <point x="567" y="1558" type="line"/>
    </contour>
    <contour>
      <point x="410" y="-17" type="curve" smooth="yes"/>
      <point x="634" y="-17"/>
      <point x="743" y="98"/>
      <point x="743" y="333" type="curve" smooth="yes"/>
      <point x="743" y="572" type="line"/>
      <point x="568" y="572" type="line"/>
      <point x="568" y="333" type="line" smooth="yes"/>
      <point x="568" y="202"/>
      <point x="520" y="138"/>
      <point x="410" y="138" type="curve" smooth="yes"/>
      <point x="305" y="138"/>
      <point x="255" y="200"/>
      <point x="255" y="323" type="curve" smooth="yes"/>
      <point x="255" y="390" type="line" smooth="yes"/>
      <point x="255" y="503"/>
      <point x="299" y="554"/>
      <point x="389" y="558" type="curve" smooth="yes"/>
      <point x="438" y="560" type="line"/>
      <point x="438" y="705" type="line"/>
      <point x="389" y="708" type="line" smooth="yes"/>
      <point x="300" y="713"/>
      <point x="259" y="758"/>
      <point x="259" y="864" type="curve" smooth="yes"/>
      <point x="259" y="928" type="line" smooth="yes"/>
      <point x="259" y="1034"/>
      <point x="296" y="1082"/>
      <point x="377" y="1082" type="curve" smooth="yes"/>
      <point x="407" y="1082"/>
      <point x="436" y="1073"/>
      <point x="460" y="1061" type="curve"/>
      <point x="448" y="1205" type="line"/>
      <point x="417" y="1222"/>
      <point x="376" y="1232"/>
      <point x="329" y="1232" type="curve" smooth="yes"/>
      <point x="166" y="1232"/>
      <point x="82" y="1146"/>
      <point x="82" y="953" type="curve" smooth="yes"/>
      <point x="82" y="882" type="line" smooth="yes"/>
      <point x="82" y="732"/>
      <point x="135" y="653"/>
      <point x="247" y="634" type="curve"/>
      <point x="247" y="629" type="line"/>
      <point x="130" y="609"/>
      <point x="78" y="521"/>
      <point x="78" y="374" type="curve" smooth="yes"/>
      <point x="78" y="306" type="line" smooth="yes"/>
      <point x="78" y="103"/>
      <point x="181" y="-17"/>
    </contour>
  </outline>
</glyph>
<glyph name="VowelIi.gj" format="2">
  <advance width="834"/>
  <unicode hex="0A88"/>
  <anchor x="261" y="1282" name="Top2"/>
  <outline>
    <contour>
      <point x="567" y="500" type="line"/>
      <point x="742" y="500" type="line"/>
      <point x="742" y="1336" type="line" smooth="yes"/>
      <point x="742" y="1418"/>
      <point x="767" y="1452"/>
      <point x="820" y="1452" type="curve" smooth="yes"/>
      <point x="835" y="1452"/>
      <point x="847" y="1449"/>
      <point x="860" y="1445" type="curve"/>
      <point x="849" y="1588" type="line"/>
      <point x="829" y="1595"/>
      <point x="803" y="1599"/>
      <point x="775" y="1599" type="curve" smooth="yes"/>
      <point x="636" y="1599"/>
      <point x="567" y="1515"/>
      <point x="567" y="1340" type="curve" smooth="yes"/>
    </contour>
    <contour>
      <point x="410" y="-17" type="curve" smooth="yes"/>
      <point x="634" y="-17"/>
      <point x="743" y="98"/>
      <point x="743" y="333" type="curve" smooth="yes"/>
      <point x="743" y="572" type="line"/>
      <point x="568" y="572" type="line"/>
      <point x="568" y="333" type="line" smooth="yes"/>
      <point x="568" y="202"/>
      <point x="520" y="138"/>
      <point x="410" y="138" type="curve" smooth="yes"/>
      <point x="305" y="138"/>
      <point x="255" y="200"/>
      <point x="255" y="323" type="curve" smooth="yes"/>
      <point x="255" y="390" type="line" smooth="yes"/>
      <point x="255" y="503"/>
      <point x="299" y="554"/>
      <point x="389" y="558" type="curve" smooth="yes"/>
      <point x="438" y="560" type="line"/>
      <point x="438" y="705" type="line"/>
      <point x="389" y="708" type="line" smooth="yes"/>
      <point x="300" y="713"/>
      <point x="259" y="758"/>
      <point x="259" y="864" type="curve" smooth="yes"/>
      <point x="259" y="928" type="line" smooth="yes"/>
      <point x="259" y="1034"/>
      <point x="296" y="1082"/>
      <point x="377" y="1082" type="curve" smooth="yes"/>
      <point x="407" y="1082"/>
      <point x="436" y="1073"/>
      <point x="460" y="1061" type="curve"/>
      <point x="448" y="1205" type="line"/>
      <point x="417" y="1222"/>
      <point x="376" y="1232"/>
      <point x="329" y="1232" type="curve" smooth="yes"/>
      <point x="166" y="1232"/>
      <point x="82" y="1146"/>
      <point x="82" y="953" type="curve" smooth="yes"/>
      <point x="82" y="882" type="line" smooth="yes"/>
      <point x="82" y="732"/>
      <point x="135" y="653"/>
      <point x="247" y="634" type="curve"/>
      <point x="247" y="629" type="line"/>
      <point x="130" y="609"/>
      <point x="78" y="521"/>
      <point x="78" y="374" type="curve" smooth="yes"/>
      <point x="78" y="306" type="line" smooth="yes"/>
      <point x="78" y="103"/>
      <point x="181" y="-17"/>
    </contour>
  </outline>
</glyph>
<glyph name="VowelU.gj" format="2">
  <advance width="838"/>
  <unicode hex="0A89"/>
  <anchor x="506" y="1651" name="Top2"/>
  <outline>
    <contour>
      <point x="92" y="691" type="line"/>
      <point x="267" y="691" type="line"/>
      <point x="267" y="1101" type="line" smooth="yes"/>
      <point x="267" y="1332"/>
      <point x="359" y="1450"/>
      <point x="557" y="1450" type="curve" smooth="yes"/>
      <point x="583" y="1450"/>
      <point x="605" y="1448"/>
      <point x="628" y="1445" type="curve"/>
      <point x="618" y="1590" type="line"/>
      <point x="597" y="1595"/>
      <point x="568" y="1599"/>
      <point x="543" y="1599" type="curve" smooth="yes"/>
      <point x="259" y="1599"/>
      <point x="92" y="1433"/>
      <point x="92" y="1096" type="curve" smooth="yes"/>
    </contour>
    <contour>
      <point x="428" y="-17" type="curve" smooth="yes"/>
      <point x="658" y="-17"/>
      <point x="763" y="104"/>
      <point x="763" y="308" type="curve" smooth="yes"/>
      <point x="763" y="374" type="line" smooth="yes"/>
      <point x="763" y="522"/>
      <point x="711" y="611"/>
      <point x="593" y="632" type="curve"/>
      <point x="593" y="637" type="line"/>
      <point x="703" y="655"/>
      <point x="754" y="735"/>
      <point x="754" y="886" type="curve" smooth="yes"/>
      <point x="754" y="972" type="line" smooth="yes"/>
      <point x="754" y="1149"/>
      <point x="670" y="1232"/>
      <point x="522" y="1232" type="curve" smooth="yes"/>
      <point x="467" y="1232"/>
      <point x="422" y="1219"/>
      <point x="393" y="1205" type="curve"/>
      <point x="382" y="1057" type="line"/>
      <point x="407" y="1072"/>
      <point x="439" y="1083"/>
      <point x="478" y="1083" type="curve" smooth="yes"/>
      <point x="542" y="1083"/>
      <point x="578" y="1041"/>
      <point x="578" y="950" type="curve" smooth="yes"/>
      <point x="578" y="869" type="line" smooth="yes"/>
      <point x="578" y="762"/>
      <point x="537" y="714"/>
      <point x="452" y="710" type="curve" smooth="yes"/>
      <point x="401" y="708" type="line"/>
      <point x="401" y="563" type="line"/>
      <point x="452" y="560" type="line" smooth="yes"/>
      <point x="541" y="555"/>
      <point x="586" y="505"/>
      <point x="586" y="390" type="curve" smooth="yes"/>
      <point x="586" y="322" type="line" smooth="yes"/>
      <point x="586" y="200"/>
      <point x="536" y="137"/>
      <point x="429" y="137" type="curve" smooth="yes"/>
      <point x="317" y="137"/>
      <point x="267" y="208"/>
      <point x="267" y="358" type="curve" smooth="yes"/>
      <point x="267" y="739" type="line"/>
      <point x="92" y="739" type="line"/>
      <point x="92" y="359" type="line" smooth="yes"/>
      <point x="92" y="105"/>
      <point x="203" y="-17"/>
    </contour>
  </outline>
</glyph>
<glyph name="VowelUu.gj" format="2">
  <advance width="1189"/>
  <unicode hex="0A8A"/>
  <anchor x="578" y="1651" name="Top2"/>
  <outline>
    <contour>
      <point x="913" y="0" type="line"/>
      <point x="1088" y="0" type="line"/>
      <point x="1088" y="1066" type="line" smooth="yes"/>
      <point x="1088" y="1423"/>
      <point x="897" y="1599"/>
      <point x="591" y="1599" type="curve" smooth="yes"/>
      <point x="276" y="1599"/>
      <point x="92" y="1423"/>
      <point x="92" y="1066" type="curve" smooth="yes"/>
      <point x="92" y="691" type="line"/>
      <point x="267" y="691" type="line"/>
      <point x="267" y="1071" type="line" smooth="yes"/>
      <point x="267" y="1322"/>
      <point x="370" y="1450"/>
      <point x="591" y="1450" type="curve" smooth="yes"/>
      <point x="805" y="1450"/>
      <point x="913" y="1322"/>
      <point x="913" y="1071" type="curve" smooth="yes"/>
    </contour>
    <contour>
      <point x="428" y="-17" type="curve" smooth="yes"/>
      <point x="658" y="-17"/>
      <point x="763" y="104"/>
      <point x="763" y="308" type="curve" smooth="yes"/>
      <point x="763" y="374" type="line" smooth="yes"/>
      <point x="763" y="522"/>
      <point x="711" y="611"/>
      <point x="593" y="632" type="curve"/>
      <point x="593" y="637" type="line"/>
      <point x="703" y="655"/>
      <point x="754" y="735"/>
      <point x="754" y="886" type="curve" smooth="yes"/>
      <point x="754" y="972" type="line" smooth="yes"/>
      <point x="754" y="1149"/>
      <point x="670" y="1232"/>
      <point x="522" y="1232" type="curve" smooth="yes"/>
      <point x="467" y="1232"/>
      <point x="422" y="1219"/>
      <point x="393" y="1205" type="curve"/>
      <point x="382" y="1057" type="line"/>
      <point x="407" y="1072"/>
      <point x="439" y="1083"/>
      <point x="478" y="1083" type="curve" smooth="yes"/>
      <point x="542" y="1083"/>
      <point x="578" y="1041"/>
      <point x="578" y="950" type="curve" smooth="yes"/>
      <point x="578" y="869" type="line" smooth="yes"/>
      <point x="578" y="762"/>
      <point x="537" y="714"/>
      <point x="452" y="710" type="curve" smooth="yes"/>
      <point x="401" y="708" type="line"/>
      <point x="401" y="563" type="line"/>
      <point x="452" y="560" type="line" smooth="yes"/>
      <point x="541" y="555"/>
      <point x="586" y="505"/>
      <point x="586" y="390" type="curve" smooth="yes"/>
      <point x="586" y="322" type="line" smooth="yes"/>
      <point x="586" y="200"/>
      <point x="536" y="137"/>
      <point x="429" y="137" type="curve" smooth="yes"/>
      <point x="317" y="137"/>
      <point x="267" y="208"/>
      <point x="267" y="358" type="curve" smooth="yes"/>
      <point x="267" y="739" type="line"/>
      <point x="92" y="739" type="line"/>
      <point x="92" y="359" type="line" smooth="yes"/>
      <point x="92" y="105"/>
      <point x="203" y="-17"/>
    </contour>
  </outline>
</glyph>
<glyph name="VowelRu.gj" format="2">
  <advance width="1210"/>
  <unicode hex="0A8B"/>
  <anchor x="609" y="-63" name="Bottom"/>
  <anchor x="592" y="1273" name="Top"/>
  <anchor x="621" y="1273" name="Top2"/>
  <outline>
    <contour>
      <point x="936" y="100" type="curve" smooth="yes"/>
      <point x="1077" y="100"/>
      <point x="1145" y="175"/>
      <point x="1145" y="335" type="curve" smooth="yes"/>
      <point x="1145" y="461" type="line" smooth="yes"/>
      <point x="1145" y="589"/>
      <point x="1114" y="661"/>
      <point x="1029" y="720" type="curve"/>
      <point x="915" y="659" type="line"/>
      <point x="964" y="611"/>
      <point x="983" y="572"/>
      <point x="983" y="462" type="curve" smooth="yes"/>
      <point x="983" y="369" type="line" smooth="yes"/>
      <point x="983" y="289"/>
      <point x="954" y="252"/>
      <point x="893" y="252" type="curve" smooth="yes"/>
      <point x="872" y="252"/>
      <point x="850" y="258"/>
      <point x="830" y="267" type="curve"/>
      <point x="841" y="124" type="line"/>
      <point x="865" y="110"/>
      <point x="899" y="100"/>
    </contour>
    <contour>
      <point x="162" y="340" type="curve"/>
      <point x="337" y="396" type="line"/>
      <point x="317" y="438" type="line"/>
      <point x="372" y="485"/>
      <point x="393" y="544"/>
      <point x="393" y="660" type="curve" smooth="yes"/>
      <point x="393" y="820" type="line" smooth="yes"/>
      <point x="393" y="995"/>
      <point x="323" y="1074"/>
      <point x="179" y="1074" type="curve" smooth="yes"/>
      <point x="127" y="1074"/>
      <point x="76" y="1056"/>
      <point x="48" y="1037" type="curve"/>
      <point x="36" y="892" type="line"/>
      <point x="65" y="910"/>
      <point x="100" y="922"/>
      <point x="131" y="922" type="curve" smooth="yes"/>
      <point x="194" y="922"/>
      <point x="223" y="888"/>
      <point x="223" y="793" type="curve" smooth="yes"/>
      <point x="223" y="602" type="line" smooth="yes"/>
      <point x="223" y="467"/>
      <point x="211" y="403"/>
    </contour>
    <contour>
      <point x="42" y="110" type="line"/>
      <point x="580" y="428" type="line"/>
      <point x="577" y="591" type="line"/>
      <point x="483" y="537" type="line" smooth="yes"/>
      <point x="410" y="495"/>
      <point x="348" y="451"/>
      <point x="288" y="409" type="curve"/>
      <point x="262" y="403" type="line"/>
      <point x="42" y="279" type="line"/>
    </contour>
    <contour>
      <point x="656" y="459" type="line"/>
      <point x="1026" y="673" type="line"/>
      <point x="963" y="800" type="line"/>
      <point x="652" y="622" type="line"/>
    </contour>
    <contour>
      <point x="904" y="675" type="line"/>
      <point x="1048" y="701" type="line"/>
      <point x="1101" y="779" type="line"/>
      <point x="1088" y="883"/>
      <point x="1067" y="983"/>
      <point x="1040" y="1071" type="curve"/>
      <point x="904" y="1071" type="line"/>
    </contour>
    <contour>
      <point x="535" y="508" type="line"/>
      <point x="710" y="508" type="line"/>
      <point x="710" y="1212" type="line"/>
      <point x="535" y="1212" type="line"/>
    </contour>
    <contour>
      <point x="535" y="0" type="line"/>
      <point x="710" y="0" type="line"/>
      <point x="710" y="666" type="line"/>
      <point x="535" y="666" type="line"/>
    </contour>
  </outline>
</glyph>
<glyph name="VowelLru.gj" format="2">
  <advance width="1074"/>
  <unicode hex="0A8C"/>
  <anchor x="765" y="1273" name="Top2"/>
  <outline>
    <contour>
      <point x="879" y="-285" type="curve" smooth="yes"/>
      <point x="937" y="-285"/>
      <point x="986" y="-271"/>
      <point x="1023" y="-253" type="curve"/>
      <point x="1035" y="-98" type="line"/>
      <point x="999" y="-121"/>
      <point x="960" y="-135"/>
      <point x="912" y="-135" type="curve" smooth="yes"/>
      <point x="847" y="-135"/>
      <point x="816" y="-104"/>
      <point x="816" y="-40" type="curve" smooth="yes"/>
      <point x="816" y="-33" type="line" smooth="yes"/>
      <point x="816" y="131"/>
      <point x="1014" y="367"/>
      <point x="1014" y="656" type="curve" smooth="yes"/>
      <point x="1014" y="677" type="line" smooth="yes"/>
      <point x="1014" y="897"/>
      <point x="921" y="996"/>
      <point x="757" y="996" type="curve" smooth="yes"/>
      <point x="634" y="995"/>
      <point x="561" y="931"/>
      <point x="546" y="828" type="curve"/>
      <point x="509" y="828" type="line"/>
      <point x="509" y="349" type="line"/>
      <point x="621" y="349" type="line"/>
      <point x="629" y="683" type="line" smooth="yes"/>
      <point x="632" y="792"/>
      <point x="663" y="840"/>
      <point x="732" y="841" type="curve" smooth="yes"/>
      <point x="802" y="841"/>
      <point x="835" y="786"/>
      <point x="835" y="669" type="curve" smooth="yes"/>
      <point x="835" y="652" type="line" smooth="yes"/>
      <point x="835" y="396"/>
      <point x="639" y="225"/>
      <point x="639" y="-34" type="curve" smooth="yes"/>
      <point x="639" y="-43" type="line" smooth="yes"/>
      <point x="639" y="-194"/>
      <point x="724" y="-285"/>
    </contour>
    <contour>
      <point x="207" y="0" type="curve"/>
      <point x="405" y="0" type="line"/>
      <point x="405" y="3" type="line"/>
      <point x="299" y="132"/>
      <point x="257" y="239"/>
      <point x="257" y="459" type="curve" smooth="yes"/>
      <point x="257" y="657" type="line" smooth="yes"/>
      <point x="257" y="781"/>
      <point x="288" y="841"/>
      <point x="358" y="841" type="curve" smooth="yes"/>
      <point x="426" y="841"/>
      <point x="455" y="792"/>
      <point x="458" y="684" type="curve" smooth="yes"/>
      <point x="466" y="349" type="line"/>
      <point x="541" y="349" type="line"/>
      <point x="541" y="828" type="line"/>
      <point x="526" y="931"/>
      <point x="455" y="996"/>
      <point x="335" y="996" type="curve" smooth="yes"/>
      <point x="174" y="996"/>
      <point x="80" y="892"/>
      <point x="80" y="664" type="curve" smooth="yes"/>
      <point x="80" y="458" type="line" smooth="yes"/>
      <point x="80" y="230"/>
      <point x="115" y="118"/>
    </contour>
    <contour>
      <point x="678" y="900" type="line"/>
      <point x="853" y="900" type="line"/>
      <point x="853" y="1212" type="line"/>
      <point x="678" y="1212" type="line"/>
    </contour>
  </outline>
</glyph>
<glyph name="VowelChadraE.gj" format="2">
  <advance width="1195"/>
  <unicode hex="0A8D"/>
  <anchor x="994" y="-63" name="Bottom"/>
  <anchor x="977" y="1273" name="Top"/>
  <anchor x="1006" y="1273" name="Top2"/>
  <outline>
    <contour>
      <point x="457" y="108" type="curve" smooth="yes"/>
      <point x="644" y="108"/>
      <point x="739" y="211"/>
      <point x="739" y="431" type="curve" smooth="yes"/>
      <point x="739" y="1010" type="line"/>
      <point x="574" y="1010" type="line"/>
      <point x="574" y="435" type="line" smooth="yes"/>
      <point x="574" y="313"/>
      <point x="534" y="261"/>
      <point x="455" y="261" type="curve" smooth="yes"/>
      <point x="380" y="261"/>
      <point x="332" y="312"/>
      <point x="320" y="438" type="curve" smooth="yes"/>
      <point x="306" y="575" type="line"/>
      <point x="148" y="546" type="line"/>
      <point x="162" y="414" type="line" smooth="yes"/>
      <point x="178" y="202"/>
      <point x="284" y="108"/>
    </contour>
    <contour>
      <point x="208" y="486" type="line"/>
      <point x="205" y="516" type="line"/>
      <point x="212" y="516" type="line"/>
      <point x="351" y="516"/>
      <point x="424" y="609"/>
      <point x="424" y="793" type="curve" smooth="yes"/>
      <point x="424" y="969" type="line" smooth="yes"/>
      <point x="424" y="1148"/>
      <point x="350" y="1232"/>
      <point x="209" y="1232" type="curve" smooth="yes"/>
      <point x="155" y="1232"/>
      <point x="109" y="1216"/>
      <point x="75" y="1193" type="curve"/>
      <point x="63" y="1046" type="line"/>
      <point x="94" y="1068"/>
      <point x="123" y="1082"/>
      <point x="164" y="1082" type="curve" smooth="yes"/>
      <point x="224" y="1082"/>
      <point x="256" y="1043"/>
      <point x="256" y="953" type="curve" smooth="yes"/>
      <point x="256" y="804" type="line" smooth="yes"/>
      <point x="256" y="703"/>
      <point x="217" y="656"/>
      <point x="129" y="654" type="curve" smooth="yes"/>
      <point x="48" y="652" type="line"/>
      <point x="48" y="515" type="line"/>
    </contour>
    <contour>
      <point x="919" y="508" type="line"/>
      <point x="1094" y="508" type="line"/>
      <point x="1094" y="1212" type="line"/>
      <point x="919" y="1212" type="line"/>
    </contour>
    <contour>
      <point x="919" y="0" type="line"/>
      <point x="1094" y="0" type="line"/>
      <point x="1094" y="666" type="line"/>
      <point x="919" y="666" type="line"/>
    </contour>
    <contour>
      <point x="654" y="563" type="line"/>
      <point x="979" y="563" type="line"/>
      <point x="967" y="710" type="line"/>
      <point x="654" y="710" type="line"/>
    </contour>
    <contour>
      <point x="1044" y="1273" type="curve" smooth="yes"/>
      <point x="1080" y="1273"/>
      <point x="1116" y="1281"/>
      <point x="1134" y="1292" type="curve"/>
      <point x="1134" y="1427" type="line"/>
      <point x="1123" y="1421"/>
      <point x="1097" y="1412"/>
      <point x="1067" y="1412" type="curve" smooth="yes"/>
      <point x="1000" y="1412"/>
      <point x="953" y="1434"/>
      <point x="859" y="1530" type="curve" smooth="yes"/>
      <point x="638" y="1756" type="line"/>
      <point x="533" y="1634" type="line"/>
      <point x="757" y="1416" type="line" smooth="yes"/>
      <point x="886" y="1290"/>
      <point x="961" y="1273"/>
    </contour>
  </outline>
</glyph>
<glyph name="Ka.gj" format="2">
  <advance width="704"/>
  <unicode hex="0A95"/>
  <anchor x="353" y="-63" name="Bottom"/>
  <anchor x="420" y="1273" name="Top"/>
  <anchor x="348" y="1273" name="Top2"/>
  <outline>
    <contour>
      <point x="324" y="631" type="curve"/>
      <point x="417" y="697" type="line"/>
      <point x="308" y="719"/>
      <point x="260" y="774"/>
      <point x="260" y="875" type="curve" smooth="yes"/>
      <point x="260" y="925" type="line" smooth="yes"/>
      <point x="260" y="1032"/>
      <point x="308" y="1080"/>
      <point x="404" y="1080" type="curve" smooth="yes"/>
      <point x="464" y="1080"/>
      <point x="511" y="1060"/>
      <point x="556" y="1033" type="curve"/>
      <point x="544" y="1183" type="line"/>
      <point x="506" y="1208"/>
      <point x="439" y="1232"/>
      <point x="363" y="1232" type="curve" smooth="yes"/>
      <point x="181" y="1232"/>
      <point x="83" y="1135"/>
      <point x="83" y="946" type="curve" smooth="yes"/>
      <point x="83" y="893" type="line" smooth="yes"/>
      <point x="83" y="730"/>
      <point x="177" y="649"/>
    </contour>
    <contour>
      <point x="309" y="-17" type="curve" smooth="yes"/>
      <point x="510" y="-17"/>
      <point x="613" y="85"/>
      <point x="613" y="295" type="curve" smooth="yes"/>
      <point x="613" y="372" type="line" smooth="yes"/>
      <point x="613" y="535"/>
      <point x="530" y="618"/>
      <point x="398" y="630" type="curve"/>
      <point x="275" y="574" type="line"/>
      <point x="400" y="546"/>
      <point x="436" y="489"/>
      <point x="436" y="385" type="curve" smooth="yes"/>
      <point x="436" y="316" type="line" smooth="yes"/>
      <point x="436" y="192"/>
      <point x="379" y="138"/>
      <point x="272" y="138" type="curve" smooth="yes"/>
      <point x="201" y="138"/>
      <point x="133" y="161"/>
      <point x="75" y="204" type="curve"/>
      <point x="87" y="38" type="line"/>
      <point x="140" y="8"/>
      <point x="211" y="-17"/>
    </contour>
    <contour>
      <point x="53" y="432" type="line"/>
      <point x="383" y="568" type="line"/>
      <point x="349" y="698" type="line"/>
      <point x="53" y="595" type="line"/>
    </contour>
    <contour>
      <point x="319" y="699" type="line"/>
      <point x="366" y="571" type="line"/>
      <point x="662" y="682" type="line"/>
      <point x="662" y="843" type="line"/>
    </contour>
  </outline>
</glyph>
<glyph name="Gha.gj" format="2">
  <advance width="840"/>
  <unicode hex="0A98"/>
  <anchor x="639" y="-63" name="Bottom"/>
  <anchor x="622" y="1273" name="Top"/>
  <anchor x="651" y="1273" name="Top2"/>
  <outline>
    <contour>
      <point x="344" y="108" type="curve" smooth="yes"/>
      <point x="470" y="108"/>
      <point x="538" y="166"/>
      <point x="556" y="251" type="curve"/>
      <point x="579" y="251" type="line"/>
      <point x="567" y="402" type="line"/>
      <point x="550" y="304"/>
      <point x="489" y="262"/>
      <point x="400" y="262" type="curve" smooth="yes"/>
      <point x="298" y="262"/>
      <point x="247" y="316"/>
      <point x="247" y="426" type="curve" smooth="yes"/>
      <point x="247" y="448" type="line" smooth="yes"/>
      <point x="247" y="555"/>
      <point x="294" y="602"/>
      <point x="387" y="606" type="curve" smooth="yes"/>
      <point x="433" y="608" type="line"/>
      <point x="433" y="753" type="line"/>
      <point x="387" y="756" type="line" smooth="yes"/>
      <point x="296" y="762"/>
      <point x="252" y="806"/>
      <point x="252" y="912" type="curve" smooth="yes"/>
      <point x="252" y="938" type="line" smooth="yes"/>
      <point x="252" y="1036"/>
      <point x="290" y="1082"/>
      <point x="368" y="1082" type="curve" smooth="yes"/>
      <point x="398" y="1082"/>
      <point x="426" y="1073"/>
      <point x="450" y="1060" type="curve"/>
      <point x="437" y="1206" type="line"/>
      <point x="407" y="1221"/>
      <point x="366" y="1232"/>
      <point x="321" y="1232" type="curve" smooth="yes"/>
      <point x="159" y="1232"/>
      <point x="74" y="1148"/>
      <point x="74" y="966" type="curve" smooth="yes"/>
      <point x="74" y="930" type="line" smooth="yes"/>
      <point x="74" y="781"/>
      <point x="127" y="699"/>
      <point x="240" y="682" type="curve"/>
      <point x="240" y="678" type="line"/>
      <point x="123" y="657"/>
      <point x="69" y="573"/>
      <point x="69" y="428" type="curve" smooth="yes"/>
      <point x="69" y="400" type="line" smooth="yes"/>
      <point x="69" y="215"/>
      <point x="158" y="108"/>
    </contour>
    <contour>
      <point x="564" y="508" type="line"/>
      <point x="739" y="508" type="line"/>
      <point x="739" y="1212" type="line"/>
      <point x="564" y="1212" type="line"/>
    </contour>
    <contour>
      <point x="564" y="0" type="line"/>
      <point x="739" y="0" type="line"/>
      <point x="739" y="666" type="line"/>
      <point x="564" y="666" type="line"/>
    </contour>
  </outline>
</glyph>
<glyph name="Nga.gj" format="2">
  <advance width="804"/>
  <unicode hex="0A99"/>
  <anchor x="323" y="-63" name="Bottom"/>
  <anchor x="392" y="1273" name="Top"/>
  <anchor x="316" y="1273" name="Top2"/>
  <outline>
    <contour>
      <point x="673" y="655" type="curve" smooth="yes"/>
      <point x="744" y="655"/>
      <point x="775" y="701"/>
      <point x="775" y="786" type="curve" smooth="yes"/>
      <point x="775" y="800" type="line" smooth="yes"/>
      <point x="775" y="885"/>
      <point x="744" y="932"/>
      <point x="673" y="932" type="curve" smooth="yes"/>
      <point x="602" y="932"/>
      <point x="571" y="885"/>
      <point x="571" y="800" type="curve" smooth="yes"/>
      <point x="571" y="786" type="line" smooth="yes"/>
      <point x="571" y="701"/>
      <point x="602" y="655"/>
    </contour>
    <contour>
      <point x="272" y="-17" type="curve" smooth="yes"/>
      <point x="473" y="-17"/>
      <point x="573" y="86"/>
      <point x="573" y="299" type="curve" smooth="yes"/>
      <point x="573" y="362" type="line" smooth="yes"/>
      <point x="573" y="532"/>
      <point x="523" y="599"/>
      <point x="402" y="682" type="curve" smooth="yes"/>
      <point x="360" y="711" type="line" smooth="yes"/>
      <point x="266" y="776"/>
      <point x="239" y="814"/>
      <point x="239" y="895" type="curve" smooth="yes"/>
      <point x="239" y="927" type="line" smooth="yes"/>
      <point x="239" y="1034"/>
      <point x="285" y="1080"/>
      <point x="384" y="1080" type="curve" smooth="yes"/>
      <point x="444" y="1080"/>
      <point x="492" y="1060"/>
      <point x="537" y="1033" type="curve"/>
      <point x="525" y="1186" type="line"/>
      <point x="486" y="1210"/>
      <point x="419" y="1232"/>
      <point x="343" y="1232" type="curve" smooth="yes"/>
      <point x="156" y="1232"/>
      <point x="62" y="1133"/>
      <point x="62" y="942" type="curve" smooth="yes"/>
      <point x="62" y="899" type="line" smooth="yes"/>
      <point x="62" y="769"/>
      <point x="106" y="687"/>
      <point x="247" y="591" type="curve" smooth="yes"/>
      <point x="285" y="565" type="line" smooth="yes"/>
      <point x="371" y="506"/>
      <point x="396" y="467"/>
      <point x="396" y="368" type="curve" smooth="yes"/>
      <point x="396" y="315" type="line" smooth="yes"/>
      <point x="396" y="195"/>
      <point x="343" y="138"/>
      <point x="243" y="138" type="curve" smooth="yes"/>
      <point x="171" y="138"/>
      <point x="108" y="165"/>
      <point x="53" y="208" type="curve"/>
      <point x="65" y="41" type="line"/>
      <point x="112" y="11"/>
      <point x="182" y="-17"/>
    </contour>
  </outline>
</glyph>
<glyph name="Ca.gj" format="2">
  <advance width="887"/>
  <unicode hex="0A9A"/>
  <anchor x="686" y="-63" name="Bottom"/>
  <anchor x="669" y="1273" name="Top"/>
  <anchor x="698" y="1273" name="Top2"/>
  <outline>
    <contour>
      <point x="459" y="297" type="curve" smooth="yes"/>
      <point x="375" y="297"/>
      <point x="323" y="349"/>
      <point x="312" y="468" type="curve" smooth="yes"/>
      <point x="300" y="594" type="line"/>
      <point x="133" y="568" type="line"/>
      <point x="145" y="453" type="line" smooth="yes"/>
      <point x="167" y="237"/>
      <point x="250" y="142"/>
      <point x="410" y="142" type="curve" smooth="yes"/>
      <point x="529" y="142"/>
      <point x="586" y="203"/>
      <point x="603" y="291" type="curve"/>
      <point x="626" y="291" type="line"/>
      <point x="618" y="445" type="line"/>
      <point x="596" y="354"/>
      <point x="553" y="297"/>
    </contour>
    <contour>
      <point x="611" y="508" type="line"/>
      <point x="786" y="508" type="line"/>
      <point x="786" y="1212" type="line"/>
      <point x="611" y="1212" type="line"/>
    </contour>
    <contour>
      <point x="611" y="0" type="line"/>
      <point x="786" y="0" type="line"/>
      <point x="786" y="666" type="line"/>
      <point x="611" y="666" type="line"/>
    </contour>
    <contour>
      <point x="203" y="505" type="line"/>
      <point x="200" y="536" type="line"/>
      <point x="207" y="536" type="line"/>
      <point x="357" y="536"/>
      <point x="435" y="633"/>
      <point x="435" y="825" type="curve" smooth="yes"/>
      <point x="435" y="963" type="line" smooth="yes"/>
      <point x="435" y="1147"/>
      <point x="361" y="1232"/>
      <point x="216" y="1232" type="curve" smooth="yes"/>
      <point x="155" y="1232"/>
      <point x="105" y="1216"/>
      <point x="68" y="1193" type="curve"/>
      <point x="55" y="1047" type="line"/>
      <point x="88" y="1068"/>
      <point x="118" y="1082"/>
      <point x="161" y="1082" type="curve" smooth="yes"/>
      <point x="230" y="1082"/>
      <point x="264" y="1042"/>
      <point x="264" y="948" type="curve" smooth="yes"/>
      <point x="264" y="835" type="line" smooth="yes"/>
      <point x="264" y="725"/>
      <point x="221" y="675"/>
      <point x="125" y="674" type="curve" smooth="yes"/>
      <point x="36" y="672" type="line"/>
      <point x="36" y="535" type="line"/>
    </contour>
  </outline>
</glyph>
<glyph name="Cha.gj" format="2">
  <advance width="1039"/>
  <unicode hex="0A9B"/>
  <anchor x="494" y="-63" name="Bottom"/>
  <anchor x="758" y="1273" name="Top"/>
  <anchor x="718" y="1273" name="Top2"/>
  <outline>
    <contour>
      <point x="498" y="-17" type="curve" smooth="yes"/>
      <point x="794" y="-17"/>
      <point x="952" y="146"/>
      <point x="952" y="469" type="curve" smooth="yes"/>
      <point x="952" y="576" type="line"/>
      <point x="784" y="576" type="line"/>
      <point x="784" y="464" type="line" smooth="yes"/>
      <point x="784" y="246"/>
      <point x="686" y="138"/>
      <point x="498" y="138" type="curve" smooth="yes"/>
      <point x="333" y="138"/>
      <point x="255" y="213"/>
      <point x="255" y="360" type="curve" smooth="yes"/>
      <point x="255" y="394" type="line" smooth="yes"/>
      <point x="255" y="504"/>
      <point x="298" y="549"/>
      <point x="385" y="557" type="curve" smooth="yes"/>
      <point x="419" y="560" type="line"/>
      <point x="419" y="704" type="line"/>
      <point x="385" y="707" type="line" smooth="yes"/>
      <point x="302" y="714"/>
      <point x="263" y="757"/>
      <point x="263" y="862" type="curve" smooth="yes"/>
      <point x="263" y="933" type="line" smooth="yes"/>
      <point x="263" y="1035"/>
      <point x="296" y="1082"/>
      <point x="366" y="1082" type="curve" smooth="yes"/>
      <point x="393" y="1082"/>
      <point x="419" y="1073"/>
      <point x="440" y="1060" type="curve"/>
      <point x="428" y="1205" type="line"/>
      <point x="400" y="1221"/>
      <point x="361" y="1232"/>
      <point x="318" y="1232" type="curve" smooth="yes"/>
      <point x="166" y="1232"/>
      <point x="86" y="1146"/>
      <point x="86" y="958" type="curve" smooth="yes"/>
      <point x="86" y="880" type="line" smooth="yes"/>
      <point x="86" y="731"/>
      <point x="136" y="652"/>
      <point x="241" y="633" type="curve"/>
      <point x="241" y="628" type="line"/>
      <point x="129" y="608"/>
      <point x="78" y="523"/>
      <point x="78" y="378" type="curve" smooth="yes"/>
      <point x="78" y="341" type="line" smooth="yes"/>
      <point x="78" y="115"/>
      <point x="210" y="-17"/>
    </contour>
    <contour>
      <point x="650" y="428" type="curve" smooth="yes"/>
      <point x="720" y="428"/>
      <point x="762" y="469"/>
      <point x="778" y="535" type="curve"/>
      <point x="796" y="535" type="line"/>
      <point x="793" y="654" type="line"/>
      <point x="781" y="603"/>
      <point x="760" y="575"/>
      <point x="723" y="575" type="curve" smooth="yes"/>
      <point x="678" y="575"/>
      <point x="660" y="606"/>
      <point x="660" y="675" type="curve" smooth="yes"/>
      <point x="660" y="976" type="line" smooth="yes"/>
      <point x="660" y="1055"/>
      <point x="678" y="1088"/>
      <point x="724" y="1088" type="curve" smooth="yes"/>
      <point x="769" y="1088"/>
      <point x="787" y="1055"/>
      <point x="787" y="976" type="curve" smooth="yes"/>
      <point x="787" y="566" type="line"/>
      <point x="952" y="566" type="line"/>
      <point x="952" y="965" type="line" smooth="yes"/>
      <point x="952" y="1145"/>
      <point x="883" y="1232"/>
      <point x="727" y="1232" type="curve" smooth="yes"/>
      <point x="573" y="1232"/>
      <point x="500" y="1148"/>
      <point x="500" y="974" type="curve" smooth="yes"/>
      <point x="500" y="638" type="line" smooth="yes"/>
      <point x="500" y="488"/>
      <point x="554" y="428"/>
    </contour>
  </outline>
</glyph>
<glyph name="Jha.gj" format="2">
  <advance width="932"/>
  <unicode hex="0A9D"/>
  <anchor x="627" y="-63" name="Bottom"/>
  <anchor x="697" y="1273" name="Top"/>
  <anchor x="779" y="1273" name="Top2"/>
  <outline>
    <contour>
      <point x="218" y="150" type="curve" smooth="yes"/>
      <point x="386" y="150"/>
      <point x="473" y="244"/>
      <point x="473" y="452" type="curve" smooth="yes"/>
      <point x="473" y="943" type="line" smooth="yes"/>
      <point x="473" y="1141"/>
      <point x="394" y="1232"/>
      <point x="237" y="1232" type="curve" smooth="yes"/>
      <point x="169" y="1232"/>
      <point x="116" y="1215"/>
      <point x="75" y="1189" type="curve"/>
      <point x="62" y="1042" type="line"/>
      <point x="98" y="1066"/>
      <point x="134" y="1080"/>
      <point x="185" y="1080" type="curve" smooth="yes"/>
      <point x="258" y="1080"/>
      <point x="298" y="1035"/>
      <point x="298" y="930" type="curve" smooth="yes"/>
      <point x="298" y="465" type="line" smooth="yes"/>
      <point x="298" y="351"/>
      <point x="257" y="304"/>
      <point x="176" y="304" type="curve" smooth="yes"/>
      <point x="126" y="304"/>
      <point x="81" y="322"/>
      <point x="41" y="349" type="curve"/>
      <point x="55" y="189" type="line"/>
      <point x="99" y="164"/>
      <point x="153" y="150"/>
    </contour>
    <contour>
      <point x="625" y="-17" type="curve" smooth="yes"/>
      <point x="779" y="-17"/>
      <point x="855" y="74"/>
      <point x="855" y="271" type="curve" smooth="yes"/>
      <point x="855" y="445" type="line" smooth="yes"/>
      <point x="855" y="638"/>
      <point x="762" y="725"/>
      <point x="611" y="730" type="curve"/>
      <point x="604" y="743" type="line"/>
      <point x="453" y="743" type="line"/>
      <point x="453" y="608" type="line"/>
      <point x="532" y="608" type="line" smooth="yes"/>
      <point x="637" y="608"/>
      <point x="682" y="558"/>
      <point x="682" y="434" type="curve" smooth="yes"/>
      <point x="682" y="279" type="line" smooth="yes"/>
      <point x="682" y="175"/>
      <point x="646" y="130"/>
      <point x="577" y="130" type="curve" smooth="yes"/>
      <point x="537" y="130"/>
      <point x="504" y="139"/>
      <point x="471" y="154" type="curve"/>
      <point x="483" y="11" type="line"/>
      <point x="516" y="-4"/>
      <point x="563" y="-17"/>
    </contour>
    <contour>
      <point x="645" y="679" type="line"/>
      <point x="688" y="755"/>
      <point x="725" y="830"/>
      <point x="755" y="908" type="curve" smooth="yes"/>
      <point x="872" y="1205" type="line"/>
      <point x="872" y="1212" type="line"/>
      <point x="687" y="1212" type="line"/>
      <point x="517" y="718" type="line"/>
    </contour>
  </outline>
</glyph>
<glyph name="Tta.gj" format="2">
  <advance width="635"/>
  <unicode hex="0A9F"/>
  <anchor x="377" y="-63" name="Bottom"/>
  <anchor x="412" y="1273" name="Top"/>
  <anchor x="341" y="1273" name="Top2"/>
  <outline>
    <contour>
      <point x="377" y="-17" type="curve" smooth="yes"/>
      <point x="463" y="-17"/>
      <point x="534" y="9"/>
      <point x="570" y="35" type="curve"/>
      <point x="583" y="206" type="line"/>
      <point x="537" y="164"/>
      <point x="475" y="138"/>
      <point x="407" y="138" type="curve" smooth="yes"/>
      <point x="297" y="138"/>
      <point x="238" y="195"/>
      <point x="238" y="321" type="curve" smooth="yes"/>
      <point x="238" y="393" type="line" smooth="yes"/>
      <point x="238" y="499"/>
      <point x="281" y="547"/>
      <point x="377" y="621" type="curve" smooth="yes"/>
      <point x="407" y="644" type="line" smooth="yes"/>
      <point x="519" y="730"/>
      <point x="564" y="803"/>
      <point x="564" y="926" type="curve" smooth="yes"/>
      <point x="564" y="962" type="line" smooth="yes"/>
      <point x="564" y="1148"/>
      <point x="472" y="1232"/>
      <point x="296" y="1232" type="curve" smooth="yes"/>
      <point x="222" y="1232"/>
      <point x="157" y="1206"/>
      <point x="125" y="1186" type="curve"/>
      <point x="112" y="1034" type="line"/>
      <point x="156" y="1060"/>
      <point x="202" y="1080"/>
      <point x="255" y="1080" type="curve" smooth="yes"/>
      <point x="347" y="1080"/>
      <point x="387" y="1036"/>
      <point x="387" y="947" type="curve" smooth="yes"/>
      <point x="387" y="924" type="line" smooth="yes"/>
      <point x="387" y="855"/>
      <point x="368" y="815"/>
      <point x="285" y="755" type="curve" smooth="yes"/>
      <point x="253" y="732" type="line" smooth="yes"/>
      <point x="103" y="624"/>
      <point x="61" y="549"/>
      <point x="61" y="391" type="curve" smooth="yes"/>
      <point x="61" y="305" type="line" smooth="yes"/>
      <point x="61" y="97"/>
      <point x="170" y="-17"/>
    </contour>
  </outline>
</glyph>
<glyph name="Ttha.gj" format="2">
  <advance width="747"/>
  <unicode hex="0AA0"/>
  <anchor x="381" y="-63" name="Bottom"/>
  <anchor x="460" y="1273" name="Top"/>
  <anchor x="380" y="1273" name="Top2"/>
  <outline>
    <contour>
      <point x="376" y="-17" type="curve" smooth="yes"/>
      <point x="577" y="-17"/>
      <point x="683" y="85"/>
      <point x="683" y="306" type="curve" smooth="yes"/>
      <point x="683" y="450" type="line" smooth="yes"/>
      <point x="683" y="639"/>
      <point x="628" y="725"/>
      <point x="469" y="794" type="curve" smooth="yes"/>
      <point x="423" y="814" type="line" smooth="yes"/>
      <point x="330" y="855"/>
      <point x="305" y="896"/>
      <point x="305" y="956" type="curve" smooth="yes"/>
      <point x="305" y="970" type="line" smooth="yes"/>
      <point x="305" y="1049"/>
      <point x="349" y="1082"/>
      <point x="440" y="1082" type="curve" smooth="yes"/>
      <point x="507" y="1082"/>
      <point x="561" y="1062"/>
      <point x="611" y="1034" type="curve"/>
      <point x="600" y="1181" type="line"/>
      <point x="558" y="1207"/>
      <point x="487" y="1232"/>
      <point x="406" y="1232" type="curve" smooth="yes"/>
      <point x="221" y="1232"/>
      <point x="127" y="1149"/>
      <point x="127" y="982" type="curve" smooth="yes"/>
      <point x="127" y="959" type="line" smooth="yes"/>
      <point x="127" y="824"/>
      <point x="194" y="762"/>
      <point x="304" y="712" type="curve"/>
      <point x="299" y="697" type="line"/>
      <point x="307" y="693"/>
      <point x="319" y="687"/>
      <point x="327" y="684" type="curve" smooth="yes"/>
      <point x="363" y="670" type="line" smooth="yes"/>
      <point x="475" y="627"/>
      <point x="508" y="582"/>
      <point x="508" y="466" type="curve" smooth="yes"/>
      <point x="508" y="304" type="line" smooth="yes"/>
      <point x="508" y="185"/>
      <point x="462" y="135"/>
      <point x="376" y="135" type="curve" smooth="yes"/>
      <point x="291" y="135"/>
      <point x="245" y="185"/>
      <point x="245" y="304" type="curve" smooth="yes"/>
      <point x="245" y="380" type="line"/>
      <point x="70" y="380" type="line"/>
      <point x="70" y="306" type="line" smooth="yes"/>
      <point x="70" y="85"/>
      <point x="176" y="-17"/>
    </contour>
    <contour>
      <point x="70" y="352" type="line"/>
      <point x="245" y="352" type="line"/>
      <point x="245" y="472" type="line" smooth="yes"/>
      <point x="245" y="593"/>
      <point x="277" y="646"/>
      <point x="356" y="696" type="curve"/>
      <point x="262" y="764" type="line"/>
      <point x="153" y="714"/>
      <point x="70" y="638"/>
      <point x="70" y="458" type="curve" smooth="yes"/>
    </contour>
  </outline>
</glyph>
<glyph name="Ddha.gj" format="2">
  <advance width="803"/>
  <unicode hex="0AA2"/>
  <anchor x="435" y="-63" name="Bottom"/>
  <anchor x="511" y="1273" name="Top"/>
  <anchor x="412" y="1273" name="Top2"/>
  <outline>
    <contour>
      <point x="425" y="-17" type="curve" smooth="yes"/>
      <point x="637" y="-17"/>
      <point x="753" y="82"/>
      <point x="753" y="288" type="curve" smooth="yes"/>
      <point x="753" y="403" type="line" smooth="yes"/>
      <point x="753" y="556"/>
      <point x="679" y="621"/>
      <point x="555" y="621" type="curve" smooth="yes"/>
      <point x="427" y="621"/>
      <point x="357" y="554"/>
      <point x="357" y="424" type="curve" smooth="yes"/>
      <point x="357" y="319" type="line" smooth="yes"/>
      <point x="357" y="211"/>
      <point x="391" y="162"/>
      <point x="459" y="127" type="curve"/>
      <point x="459" y="109" type="line"/>
      <point x="567" y="129" type="line"/>
      <point x="519" y="164"/>
      <point x="500" y="201"/>
      <point x="500" y="289" type="curve" smooth="yes"/>
      <point x="500" y="406" type="line" smooth="yes"/>
      <point x="500" y="469"/>
      <point x="519" y="494"/>
      <point x="554" y="494" type="curve" smooth="yes"/>
      <point x="591" y="494"/>
      <point x="609" y="469"/>
      <point x="609" y="406" type="curve" smooth="yes"/>
      <point x="609" y="291" type="line" smooth="yes"/>
      <point x="609" y="215"/>
      <point x="591" y="157"/>
      <point x="540" y="133" type="curve"/>
      <point x="524" y="143" type="line"/>
      <point x="500" y="123"/>
      <point x="474" y="117"/>
      <point x="431" y="117" type="curve" smooth="yes"/>
      <point x="305" y="117"/>
      <point x="242" y="188"/>
      <point x="242" y="340" type="curve" smooth="yes"/>
      <point x="242" y="468" type="line" smooth="yes"/>
      <point x="242" y="602"/>
      <point x="293" y="665"/>
      <point x="408" y="716" type="curve" smooth="yes"/>
      <point x="469" y="743" type="line" smooth="yes"/>
      <point x="625" y="812"/>
      <point x="660" y="872"/>
      <point x="660" y="991" type="curve" smooth="yes"/>
      <point x="660" y="998" type="line" smooth="yes"/>
      <point x="660" y="1147"/>
      <point x="567" y="1232"/>
      <point x="395" y="1232" type="curve" smooth="yes"/>
      <point x="307" y="1232"/>
      <point x="227" y="1204"/>
      <point x="189" y="1181" type="curve"/>
      <point x="177" y="1029" type="line"/>
      <point x="236" y="1059"/>
      <point x="298" y="1080"/>
      <point x="369" y="1080" type="curve" smooth="yes"/>
      <point x="453" y="1080"/>
      <point x="490" y="1057"/>
      <point x="490" y="996" type="curve" smooth="yes"/>
      <point x="490" y="992" type="line" smooth="yes"/>
      <point x="490" y="943"/>
      <point x="471" y="917"/>
      <point x="384" y="878" type="curve" smooth="yes"/>
      <point x="319" y="849" type="line" smooth="yes"/>
      <point x="143" y="771"/>
      <point x="72" y="683"/>
      <point x="72" y="472" type="curve" smooth="yes"/>
      <point x="72" y="343" type="line" smooth="yes"/>
      <point x="72" y="104"/>
      <point x="185" y="-17"/>
    </contour>
  </outline>
</glyph>
<glyph name="Ta.gj" format="2">
  <advance width="798"/>
  <unicode hex="0AA4"/>
  <anchor x="597" y="-63" name="Bottom"/>
  <anchor x="580" y="1273" name="Top"/>
  <anchor x="609" y="1273" name="Top2"/>
  <outline>
    <contour>
      <point x="522" y="508" type="line"/>
      <point x="697" y="508" type="line"/>
      <point x="697" y="1212" type="line"/>
      <point x="522" y="1212" type="line"/>
    </contour>
    <contour>
      <point x="522" y="0" type="line"/>
      <point x="697" y="0" type="line"/>
      <point x="697" y="666" type="line"/>
      <point x="522" y="666" type="line"/>
    </contour>
    <contour>
      <point x="153" y="0" type="curve"/>
      <point x="325" y="0" type="line"/>
      <point x="288" y="166"/>
      <point x="248" y="431"/>
      <point x="248" y="592" type="curve" smooth="yes"/>
      <point x="248" y="726"/>
      <point x="296" y="779"/>
      <point x="400" y="779" type="curve" smooth="yes"/>
      <point x="607" y="779" type="line"/>
      <point x="607" y="926" type="line"/>
      <point x="352" y="926" type="line" smooth="yes"/>
      <point x="166" y="926"/>
      <point x="70" y="827"/>
      <point x="70" y="600" type="curve" smooth="yes"/>
      <point x="70" y="426"/>
      <point x="113" y="167"/>
    </contour>
  </outline>
</glyph>
<glyph name="Da.gj" format="2">
  <advance width="596"/>
  <unicode hex="0AA6"/>
  <anchor x="368" y="-63" name="Bottom"/>
  <anchor x="409" y="1273" name="Top"/>
  <anchor x="345" y="1273" name="Top2"/>
  <outline>
    <contour>
      <point x="366" y="-17" type="curve" smooth="yes"/>
      <point x="446" y="-17"/>
      <point x="512" y="12"/>
      <point x="545" y="41" type="curve"/>
      <point x="558" y="208" type="line"/>
      <point x="516" y="165"/>
      <point x="460" y="138"/>
      <point x="399" y="138" type="curve" smooth="yes"/>
      <point x="305" y="138"/>
      <point x="253" y="191"/>
      <point x="253" y="310" type="curve" smooth="yes"/>
      <point x="253" y="377" type="line" smooth="yes"/>
      <point x="253" y="497"/>
      <point x="306" y="547"/>
      <point x="397" y="550" type="curve" smooth="yes"/>
      <point x="505" y="554" type="line"/>
      <point x="505" y="702" type="line"/>
      <point x="397" y="706" type="line" smooth="yes"/>
      <point x="316" y="709"/>
      <point x="266" y="755"/>
      <point x="266" y="858" type="curve" smooth="yes"/>
      <point x="266" y="926" type="line" smooth="yes"/>
      <point x="266" y="1031"/>
      <point x="314" y="1082"/>
      <point x="401" y="1082" type="curve" smooth="yes"/>
      <point x="456" y="1082"/>
      <point x="500" y="1061"/>
      <point x="541" y="1033" type="curve"/>
      <point x="529" y="1184" type="line"/>
      <point x="492" y="1209"/>
      <point x="429" y="1232"/>
      <point x="357" y="1232" type="curve" smooth="yes"/>
      <point x="182" y="1232"/>
      <point x="89" y="1141"/>
      <point x="89" y="949" type="curve" smooth="yes"/>
      <point x="89" y="877" type="line" smooth="yes"/>
      <point x="89" y="730"/>
      <point x="147" y="648"/>
      <point x="252" y="629" type="curve"/>
      <point x="252" y="624" type="line"/>
      <point x="139" y="602"/>
      <point x="76" y="509"/>
      <point x="76" y="355" type="curve" smooth="yes"/>
      <point x="76" y="284" type="line" smooth="yes"/>
      <point x="76" y="92"/>
      <point x="167" y="-17"/>
    </contour>
  </outline>
</glyph>
<glyph name="Dha.gj" format="2">
  <advance width="816"/>
  <unicode hex="0AA7"/>
  <anchor x="614" y="-63" name="Bottom"/>
  <anchor x="597" y="1273" name="Top"/>
  <anchor x="627" y="1273" name="Top2"/>
  <outline>
    <contour>
      <point x="330" y="107" type="curve" smooth="yes"/>
      <point x="449" y="107"/>
      <point x="516" y="167"/>
      <point x="532" y="251" type="curve"/>
      <point x="555" y="251" type="line"/>
      <point x="543" y="401" type="line"/>
      <point x="526" y="303"/>
      <point x="468" y="261"/>
      <point x="385" y="261" type="curve" smooth="yes"/>
      <point x="294" y="261"/>
      <point x="247" y="317"/>
      <point x="247" y="432" type="curve" smooth="yes"/>
      <point x="247" y="461" type="line" smooth="yes"/>
      <point x="247" y="571"/>
      <point x="294" y="620"/>
      <point x="387" y="624" type="curve" smooth="yes"/>
      <point x="433" y="626" type="line"/>
      <point x="433" y="771" type="line"/>
      <point x="387" y="774" type="line" smooth="yes"/>
      <point x="295" y="780"/>
      <point x="251" y="826"/>
      <point x="251" y="936" type="curve" smooth="yes"/>
      <point x="251" y="948" type="line" smooth="yes"/>
      <point x="251" y="1055"/>
      <point x="277" y="1175"/>
      <point x="305" y="1287" type="curve"/>
      <point x="305" y="1292" type="line"/>
      <point x="133" y="1292" type="line"/>
      <point x="101" y="1179"/>
      <point x="74" y="1060"/>
      <point x="74" y="951" type="curve" smooth="yes"/>
      <point x="74" y="939" type="line" smooth="yes"/>
      <point x="74" y="795"/>
      <point x="127" y="716"/>
      <point x="240" y="700" type="curve"/>
      <point x="240" y="696" type="line"/>
      <point x="123" y="675"/>
      <point x="69" y="590"/>
      <point x="69" y="443" type="curve" smooth="yes"/>
      <point x="69" y="404" type="line" smooth="yes"/>
      <point x="69" y="216"/>
      <point x="155" y="107"/>
    </contour>
    <contour>
      <point x="540" y="508" type="line"/>
      <point x="715" y="508" type="line"/>
      <point x="715" y="1212" type="line"/>
      <point x="540" y="1212" type="line"/>
    </contour>
    <contour>
      <point x="540" y="0" type="line"/>
      <point x="715" y="0" type="line"/>
      <point x="715" y="666" type="line"/>
      <point x="540" y="666" type="line"/>
    </contour>
  </outline>
</glyph>
<glyph name="Na.gj" format="2">
  <advance width="752"/>
  <unicode hex="0AA8"/>
  <anchor x="551" y="-63" name="Bottom"/>
  <anchor x="534" y="1273" name="Top"/>
  <anchor x="563" y="1273" name="Top2"/>
  <outline>
    <contour>
      <point x="476" y="508" type="line"/>
      <point x="651" y="508" type="line"/>
      <point x="651" y="1212" type="line"/>
      <point x="476" y="1212" type="line"/>
    </contour>
    <contour>
      <point x="476" y="0" type="line"/>
      <point x="651" y="0" type="line"/>
      <point x="651" y="666" type="line"/>
      <point x="476" y="666" type="line"/>
    </contour>
    <contour>
      <point x="138" y="232" type="curve"/>
      <point x="276" y="232" type="line"/>
      <point x="276" y="851" type="line"/>
      <point x="125" y="851" type="line"/>
      <point x="49" y="794" type="line"/>
      <point x="62" y="578"/>
      <point x="92" y="413"/>
    </contour>
    <contour>
      <point x="229" y="704" type="line"/>
      <point x="582" y="704" type="line"/>
      <point x="570" y="851" type="line"/>
      <point x="229" y="851" type="line"/>
    </contour>
  </outline>
</glyph>
<glyph name="Pa.gj" format="2">
  <advance width="802"/>
  <unicode hex="0AAA"/>
  <anchor x="601" y="-63" name="Bottom"/>
  <anchor x="584" y="1273" name="Top"/>
  <anchor x="613" y="1273" name="Top2"/>
  <outline>
    <contour>
      <point x="338" y="218" type="curve" smooth="yes"/>
      <point x="440" y="218"/>
      <point x="500" y="279"/>
      <point x="518" y="350" type="curve"/>
      <point x="541" y="350" type="line"/>
      <point x="530" y="501" type="line"/>
      <point x="515" y="416"/>
      <point x="472" y="373"/>
      <point x="400" y="373" type="curve" smooth="yes"/>
      <point x="318" y="373"/>
      <point x="279" y="424"/>
      <point x="279" y="542" type="curve" smooth="yes"/>
      <point x="279" y="775" type="line"/>
      <point x="104" y="775" type="line"/>
      <point x="104" y="526" type="line" smooth="yes"/>
      <point x="104" y="329"/>
      <point x="163" y="218"/>
    </contour>
    <contour>
      <point x="104" y="749" type="line"/>
      <point x="279" y="749" type="line"/>
      <point x="279" y="1042" type="line" smooth="yes"/>
      <point x="279" y="1162"/>
      <point x="227" y="1222"/>
      <point x="118" y="1222" type="curve" smooth="yes"/>
      <point x="90" y="1222"/>
      <point x="62" y="1217"/>
      <point x="38" y="1207" type="curve"/>
      <point x="28" y="1074" type="line"/>
      <point x="35" y="1077"/>
      <point x="48" y="1079"/>
      <point x="59" y="1079" type="curve" smooth="yes"/>
      <point x="91" y="1079"/>
      <point x="104" y="1061"/>
      <point x="104" y="1016" type="curve" smooth="yes"/>
    </contour>
    <contour>
      <point x="526" y="508" type="line"/>
      <point x="701" y="508" type="line"/>
      <point x="701" y="1212" type="line"/>
      <point x="526" y="1212" type="line"/>
    </contour>
    <contour>
      <point x="526" y="0" type="line"/>
      <point x="701" y="0" type="line"/>
      <point x="701" y="666" type="line"/>
      <point x="526" y="666" type="line"/>
    </contour>
  </outline>
</glyph>
<glyph name="Bha.gj" format="2">
  <advance width="1145"/>
  <unicode hex="0AAD"/>
  <anchor x="944" y="-63" name="Bottom"/>
  <anchor x="927" y="1273" name="Top"/>
  <anchor x="956" y="1273" name="Top2"/>
  <outline>
    <contour>
      <point x="869" y="508" type="line"/>
      <point x="1044" y="508" type="line"/>
      <point x="1044" y="1212" type="line"/>
      <point x="869" y="1212" type="line"/>
    </contour>
    <contour>
      <point x="869" y="0" type="line"/>
      <point x="1044" y="0" type="line"/>
      <point x="1044" y="666" type="line"/>
      <point x="869" y="666" type="line"/>
    </contour>
    <contour>
      <point x="596" y="523" type="line"/>
      <point x="943" y="523" type="line"/>
      <point x="931" y="670" type="line"/>
      <point x="596" y="670" type="line"/>
    </contour>
    <contour>
      <point x="217" y="0" type="curve"/>
      <point x="401" y="0" type="line"/>
      <point x="303" y="146"/>
      <point x="262" y="301"/>
      <point x="262" y="512" type="curve" smooth="yes"/>
      <point x="262" y="859" type="line" smooth="yes"/>
      <point x="262" y="1010"/>
      <point x="315" y="1079"/>
      <point x="415" y="1079" type="curve" smooth="yes"/>
      <point x="458" y="1079"/>
      <point x="494" y="1069"/>
      <point x="530" y="1042" type="curve"/>
      <point x="498" y="1105" type="line"/>
      <point x="498" y="586" type="line"/>
      <point x="669" y="586" type="line"/>
      <point x="669" y="1160" type="line"/>
      <point x="593" y="1210"/>
      <point x="511" y="1232"/>
      <point x="414" y="1232" type="curve" smooth="yes"/>
      <point x="193" y="1232"/>
      <point x="87" y="1110"/>
      <point x="87" y="857" type="curve" smooth="yes"/>
      <point x="87" y="517" type="line" smooth="yes"/>
      <point x="87" y="285"/>
      <point x="125" y="128"/>
    </contour>
    <contour>
      <point x="524" y="166" type="curve"/>
      <point x="666" y="166" type="line"/>
      <point x="666" y="662" type="line"/>
      <point x="509" y="662" type="line"/>
      <point x="433" y="605" type="line"/>
      <point x="445" y="436"/>
      <point x="475" y="310"/>
    </contour>
  </outline>
</glyph>
<glyph name="Ra.gj" format="2">
  <advance width="560"/>
  <unicode hex="0AB0"/>
  <anchor x="424" y="-63" name="Bottom"/>
  <anchor x="299" y="1273" name="Top"/>
  <anchor x="271" y="1273" name="Top2"/>
  <outline>
    <contour>
      <point x="214" y="426" type="line"/>
      <point x="212" y="459" type="line"/>
      <point x="222" y="459" type="line"/>
      <point x="395" y="459"/>
      <point x="482" y="560"/>
      <point x="482" y="758" type="curve" smooth="yes"/>
      <point x="482" y="956" type="line" smooth="yes"/>
      <point x="482" y="1144"/>
      <point x="395" y="1232"/>
      <point x="228" y="1232" type="curve" smooth="yes"/>
      <point x="163" y="1232"/>
      <point x="112" y="1216"/>
      <point x="70" y="1190" type="curve"/>
      <point x="57" y="1044" type="line"/>
      <point x="97" y="1067"/>
      <point x="132" y="1081"/>
      <point x="183" y="1081" type="curve" smooth="yes"/>
      <point x="260" y="1081"/>
      <point x="304" y="1037"/>
      <point x="304" y="939" type="curve" smooth="yes"/>
      <point x="304" y="764" type="line" smooth="yes"/>
      <point x="304" y="651"/>
      <point x="256" y="600"/>
      <point x="147" y="598" type="curve" smooth="yes"/>
      <point x="36" y="596" type="line"/>
      <point x="36" y="457" type="line"/>
    </contour>
    <contour>
      <point x="434" y="-17" type="curve" smooth="yes"/>
      <point x="456" y="-17"/>
      <point x="477" y="-14"/>
      <point x="496" y="-10" type="curve"/>
      <point x="507" y="140" type="line"/>
      <point x="497" y="139"/>
      <point x="482" y="137"/>
      <point x="468" y="137" type="curve" smooth="yes"/>
      <point x="385" y="137"/>
      <point x="331" y="189"/>
      <point x="306" y="344" type="curve" smooth="yes"/>
      <point x="275" y="539" type="line"/>
      <point x="107" y="537" type="line"/>
      <point x="140" y="325" type="line" smooth="yes"/>
      <point x="180" y="68"/>
      <point x="264" y="-17"/>
    </contour>
  </outline>
</glyph>
<glyph name="La.gj" format="2">
  <advance width="918"/>
  <unicode hex="0AB2"/>
  <anchor x="717" y="-63" name="Bottom"/>
  <anchor x="700" y="1273" name="Top"/>
  <anchor x="729" y="1273" name="Top2"/>
  <outline>
    <contour>
      <point x="642" y="508" type="line"/>
      <point x="817" y="508" type="line"/>
      <point x="817" y="1212" type="line"/>
      <point x="642" y="1212" type="line"/>
    </contour>
    <contour>
      <point x="642" y="0" type="line"/>
      <point x="817" y="0" type="line"/>
      <point x="817" y="666" type="line"/>
      <point x="642" y="666" type="line"/>
    </contour>
    <contour>
      <point x="385" y="6" type="curve" smooth="yes"/>
      <point x="437" y="6"/>
      <point x="482" y="14"/>
      <point x="519" y="27" type="curve"/>
      <point x="530" y="175" type="line"/>
      <point x="502" y="165"/>
      <point x="468" y="158"/>
      <point x="427" y="158" type="curve" smooth="yes"/>
      <point x="317" y="158"/>
      <point x="262" y="227"/>
      <point x="262" y="381" type="curve" smooth="yes"/>
      <point x="262" y="857" type="line" smooth="yes"/>
      <point x="262" y="1004"/>
      <point x="317" y="1071"/>
      <point x="426" y="1071" type="curve" smooth="yes"/>
      <point x="462" y="1071"/>
      <point x="497" y="1064"/>
      <point x="525" y="1055" type="curve"/>
      <point x="514" y="1199" type="line"/>
      <point x="474" y="1216"/>
      <point x="430" y="1223"/>
      <point x="384" y="1223" type="curve" smooth="yes"/>
      <point x="189" y="1223"/>
      <point x="87" y="1111"/>
      <point x="87" y="875" type="curve" smooth="yes"/>
      <point x="87" y="365" type="line" smooth="yes"/>
      <point x="87" y="122"/>
      <point x="189" y="6"/>
    </contour>
    <contour>
      <point x="375" y="477" type="line"/>
      <point x="722" y="670" type="line"/>
      <point x="722" y="845" type="line"/>
      <point x="375" y="661" type="line"/>
    </contour>
  </outline>
</glyph>
<glyph name="Lla.gj" format="2">
  <advance width="1095"/>
  <unicode hex="0AB3"/>
  <anchor x="893" y="-63" name="Bottom"/>
  <anchor x="783" y="1273" name="Top"/>
  <anchor x="733" y="1273" name="Top2"/>
  <outline>
    <contour>
      <point x="819" y="0" type="line"/>
      <point x="994" y="0" type="line"/>
      <point x="994" y="919" type="line" smooth="yes"/>
      <point x="994" y="1137"/>
      <point x="910" y="1232"/>
      <point x="725" y="1232" type="curve" smooth="yes"/>
      <point x="540" y="1232"/>
      <point x="456" y="1137"/>
      <point x="456" y="919" type="curve" smooth="yes"/>
      <point x="456" y="751"/>
      <point x="468" y="622"/>
      <point x="468" y="453" type="curve" smooth="yes"/>
      <point x="468" y="355"/>
      <point x="437" y="306"/>
      <point x="366" y="306" type="curve" smooth="yes"/>
      <point x="291" y="306"/>
      <point x="261" y="355"/>
      <point x="261" y="453" type="curve" smooth="yes"/>
      <point x="261" y="844" type="line" smooth="yes"/>
      <point x="261" y="1011"/>
      <point x="285" y="1112"/>
      <point x="367" y="1212" type="curve"/>
      <point x="187" y="1212" type="line"/>
      <point x="111" y="1125"/>
      <point x="86" y="1025"/>
      <point x="86" y="851" type="curve" smooth="yes"/>
      <point x="86" y="466" type="line" smooth="yes"/>
      <point x="86" y="246"/>
      <point x="173" y="151"/>
      <point x="362" y="151" type="curve" smooth="yes"/>
      <point x="551" y="151"/>
      <point x="639" y="246"/>
      <point x="639" y="466" type="curve" smooth="yes"/>
      <point x="639" y="654"/>
      <point x="627" y="783"/>
      <point x="627" y="931" type="curve" smooth="yes"/>
      <point x="627" y="1028"/>
      <point x="656" y="1077"/>
      <point x="723" y="1077" type="curve" smooth="yes"/>
      <point x="790" y="1077"/>
      <point x="819" y="1028"/>
      <point x="819" y="931" type="curve" smooth="yes"/>
    </contour>
  </outline>
</glyph>
<glyph name="Va.gj" format="2">
  <advance width="790"/>
  <unicode hex="0AB5"/>
  <anchor x="589" y="-63" name="Bottom"/>
  <anchor x="572" y="1273" name="Top"/>
  <anchor x="601" y="1273" name="Top2"/>
  <outline>
    <contour>
      <point x="324" y="182" type="curve" smooth="yes"/>
      <point x="427" y="182"/>
      <point x="488" y="240"/>
      <point x="506" y="320" type="curve"/>
      <point x="522" y="320" type="line"/>
      <point x="518" y="473" type="line"/>
      <point x="504" y="379"/>
      <point x="456" y="337"/>
      <point x="388" y="337" type="curve" smooth="yes"/>
      <point x="303" y="337"/>
      <point x="263" y="390"/>
      <point x="263" y="506" type="curve" smooth="yes"/>
      <point x="263" y="897" type="line" smooth="yes"/>
      <point x="263" y="1009"/>
      <point x="295" y="1062"/>
      <point x="376" y="1062" type="curve" smooth="yes"/>
      <point x="392" y="1062"/>
      <point x="405" y="1060"/>
      <point x="420" y="1057" type="curve"/>
      <point x="410" y="1197" type="line"/>
      <point x="387" y="1206"/>
      <point x="358" y="1212"/>
      <point x="327" y="1212" type="curve" smooth="yes"/>
      <point x="162" y="1212"/>
      <point x="88" y="1114"/>
      <point x="88" y="902" type="curve" smooth="yes"/>
      <point x="88" y="486" type="line" smooth="yes"/>
      <point x="88" y="295"/>
      <point x="152" y="182"/>
    </contour>
    <contour>
      <point x="514" y="508" type="line"/>
      <point x="689" y="508" type="line"/>
      <point x="689" y="1212" type="line"/>
      <point x="514" y="1212" type="line"/>
    </contour>
    <contour>
      <point x="514" y="0" type="line"/>
      <point x="689" y="0" type="line"/>
      <point x="689" y="666" type="line"/>
      <point x="514" y="666" type="line"/>
    </contour>
  </outline>
</glyph>
<glyph name="Ssa.gj" format="2">
  <advance width="817"/>
  <unicode hex="0AB7"/>
  <anchor x="616" y="-63" name="Bottom"/>
  <anchor x="599" y="1273" name="Top"/>
  <anchor x="628" y="1273" name="Top2"/>
  <outline>
    <contour>
      <point x="529" y="398" type="line"/>
      <point x="603" y="463" type="line"/>
      <point x="259" y="1146" type="line"/>
      <point x="208" y="1074" type="line"/>
      <point x="241" y="985"/>
      <point x="292" y="865"/>
      <point x="331" y="788" type="curve" smooth="yes"/>
    </contour>
    <contour>
      <point x="346" y="193" type="curve" smooth="yes"/>
      <point x="457" y="193"/>
      <point x="517" y="251"/>
      <point x="532" y="325" type="curve"/>
      <point x="556" y="325" type="line"/>
      <point x="545" y="476" type="line"/>
      <point x="529" y="390"/>
      <point x="483" y="347"/>
      <point x="408" y="347" type="curve" smooth="yes"/>
      <point x="320" y="347"/>
      <point x="279" y="398"/>
      <point x="279" y="517" type="curve" smooth="yes"/>
      <point x="279" y="785" type="line"/>
      <point x="104" y="785" type="line"/>
      <point x="104" y="501" type="line" smooth="yes"/>
      <point x="104" y="304"/>
      <point x="165" y="193"/>
    </contour>
    <contour>
      <point x="104" y="749" type="line"/>
      <point x="279" y="749" type="line"/>
      <point x="279" y="1042" type="line" smooth="yes"/>
      <point x="279" y="1162"/>
      <point x="227" y="1222"/>
      <point x="118" y="1222" type="curve" smooth="yes"/>
      <point x="90" y="1222"/>
      <point x="62" y="1217"/>
      <point x="38" y="1207" type="curve"/>
      <point x="28" y="1074" type="line"/>
      <point x="35" y="1077"/>
      <point x="48" y="1079"/>
      <point x="59" y="1079" type="curve" smooth="yes"/>
      <point x="91" y="1079"/>
      <point x="104" y="1061"/>
      <point x="104" y="1016" type="curve" smooth="yes"/>
    </contour>
    <contour>
      <point x="541" y="508" type="line"/>
      <point x="716" y="508" type="line"/>
      <point x="716" y="1212" type="line"/>
      <point x="541" y="1212" type="line"/>
    </contour>
    <contour>
      <point x="541" y="0" type="line"/>
      <point x="716" y="0" type="line"/>
      <point x="716" y="666" type="line"/>
      <point x="541" y="666" type="line"/>
    </contour>
  </outline>
</glyph>
<glyph name="Sa.gj" format="2">
  <advance width="903"/>
  <unicode hex="0AB8"/>
  <anchor x="702" y="-63" name="Bottom"/>
  <anchor x="685" y="1273" name="Top"/>
  <anchor x="714" y="1273" name="Top2"/>
  <outline>
    <contour>
      <point x="627" y="508" type="line"/>
      <point x="802" y="508" type="line"/>
      <point x="802" y="1212" type="line"/>
      <point x="627" y="1212" type="line"/>
    </contour>
    <contour>
      <point x="627" y="0" type="line"/>
      <point x="802" y="0" type="line"/>
      <point x="802" y="666" type="line"/>
      <point x="627" y="666" type="line"/>
    </contour>
    <contour>
      <point x="212" y="454" type="line"/>
      <point x="208" y="486" type="line"/>
      <point x="220" y="486" type="line"/>
      <point x="368" y="486"/>
      <point x="440" y="582"/>
      <point x="440" y="770" type="curve" smooth="yes"/>
      <point x="440" y="966" type="line" smooth="yes"/>
      <point x="440" y="1147"/>
      <point x="366" y="1232"/>
      <point x="221" y="1232" type="curve" smooth="yes"/>
      <point x="160" y="1232"/>
      <point x="110" y="1216"/>
      <point x="74" y="1193" type="curve"/>
      <point x="62" y="1047" type="line"/>
      <point x="96" y="1068"/>
      <point x="127" y="1082"/>
      <point x="173" y="1082" type="curve" smooth="yes"/>
      <point x="236" y="1082"/>
      <point x="269" y="1042"/>
      <point x="269" y="949" type="curve" smooth="yes"/>
      <point x="269" y="786" type="line" smooth="yes"/>
      <point x="269" y="676"/>
      <point x="231" y="626"/>
      <point x="142" y="625" type="curve" smooth="yes"/>
      <point x="37" y="623" type="line"/>
      <point x="37" y="484" type="line"/>
    </contour>
    <contour>
      <point x="438" y="-17" type="curve" smooth="yes"/>
      <point x="460" y="-17"/>
      <point x="481" y="-14"/>
      <point x="500" y="-10" type="curve"/>
      <point x="511" y="140" type="line"/>
      <point x="501" y="139"/>
      <point x="487" y="137"/>
      <point x="472" y="137" type="curve" smooth="yes"/>
      <point x="395" y="137"/>
      <point x="342" y="189"/>
      <point x="318" y="344" type="curve" smooth="yes"/>
      <point x="287" y="548" type="line"/>
      <point x="119" y="546" type="line"/>
      <point x="152" y="325" type="line" smooth="yes"/>
      <point x="190" y="68"/>
      <point x="274" y="-17"/>
    </contour>
    <contour>
      <point x="512" y="555" type="curve" smooth="yes"/>
      <point x="751" y="555" type="line"/>
      <point x="739" y="702" type="line"/>
      <point x="692" y="702"/>
      <point x="622" y="702"/>
      <point x="575" y="702" type="curve"/>
      <point x="364" y="702" type="line"/>
      <point x="340" y="578" type="line"/>
      <point x="387" y="564"/>
      <point x="449" y="555"/>
    </contour>
  </outline>
</glyph>
<glyph name="Ha.gj" format="2">
  <advance width="718"/>
  <unicode hex="0AB9"/>
  <anchor x="422" y="-66" name="Bottom"/>
  <anchor x="438" y="1273" name="Top"/>
  <anchor x="372" y="1273" name="Top2"/>
  <outline>
    <contour>
      <point x="425" y="-17" type="curve" smooth="yes"/>
      <point x="515" y="-17"/>
      <point x="585" y="7"/>
      <point x="634" y="35" type="curve"/>
      <point x="647" y="193" type="line"/>
      <point x="589" y="161"/>
      <point x="530" y="138"/>
      <point x="452" y="138" type="curve" smooth="yes"/>
      <point x="314" y="138"/>
      <point x="252" y="216"/>
      <point x="252" y="386" type="curve" smooth="yes"/>
      <point x="252" y="450"/>
      <point x="252" y="512"/>
      <point x="252" y="584" type="curve"/>
      <point x="87" y="584" type="line"/>
      <point x="80" y="503"/>
      <point x="77" y="434"/>
      <point x="77" y="361" type="curve" smooth="yes"/>
      <point x="77" y="107"/>
      <point x="191" y="-17"/>
    </contour>
    <contour>
      <point x="476" y="323" type="curve"/>
      <point x="644" y="323" type="line"/>
      <point x="655" y="393"/>
      <point x="660" y="447"/>
      <point x="660" y="503" type="curve" smooth="yes"/>
      <point x="660" y="661"/>
      <point x="605" y="733"/>
      <point x="447" y="786" type="curve" smooth="yes"/>
      <point x="411" y="798" type="line" smooth="yes"/>
      <point x="312" y="831"/>
      <point x="281" y="869"/>
      <point x="281" y="939" type="curve" smooth="yes"/>
      <point x="281" y="948" type="line" smooth="yes"/>
      <point x="281" y="1039"/>
      <point x="332" y="1079"/>
      <point x="422" y="1079" type="curve" smooth="yes"/>
      <point x="490" y="1079"/>
      <point x="543" y="1060"/>
      <point x="588" y="1034" type="curve"/>
      <point x="577" y="1184" type="line"/>
      <point x="535" y="1209"/>
      <point x="466" y="1232"/>
      <point x="384" y="1232" type="curve" smooth="yes"/>
      <point x="198" y="1232"/>
      <point x="104" y="1138"/>
      <point x="104" y="954" type="curve" smooth="yes"/>
      <point x="104" y="939" type="line" smooth="yes"/>
      <point x="104" y="798"/>
      <point x="170" y="717"/>
      <point x="296" y="675" type="curve" smooth="yes"/>
      <point x="344" y="659" type="line" smooth="yes"/>
      <point x="455" y="622"/>
      <point x="485" y="580"/>
      <point x="485" y="465" type="curve" smooth="yes"/>
      <point x="485" y="422"/>
      <point x="482" y="376"/>
    </contour>
  </outline>
</glyph>
<glyph name="Nukta.gj" format="2">
  <unicode hex="0ABC"/>
  <anchor x="183" y="-63" name="_Bottom"/>
  <outline>
    <contour>
      <point x="195" y="-326" type="curve" smooth="yes"/>
      <point x="262" y="-326"/>
      <point x="292" y="-283"/>
      <point x="292" y="-205" type="curve" smooth="yes"/>
      <point x="292" y="-184" type="line" smooth="yes"/>
      <point x="292" y="-107"/>
      <point x="262" y="-63"/>
      <point x="195" y="-63" type="curve" smooth="yes"/>
      <point x="129" y="-63"/>
      <point x="98" y="-107"/>
      <point x="98" y="-184" type="curve" smooth="yes"/>
      <point x="98" y="-205" type="line" smooth="yes"/>
      <point x="98" y="-283"/>
      <point x="129" y="-326"/>
    </contour>
  </outline>
</glyph>
<glyph name="Avagraha.gj" format="2">
  <advance width="633"/>
  <unicode hex="0ABD"/>
  <outline>
    <contour>
      <point x="272" y="-17" type="curve" smooth="yes"/>
      <point x="473" y="-17"/>
      <point x="573" y="86"/>
      <point x="573" y="299" type="curve" smooth="yes"/>
      <point x="573" y="362" type="line" smooth="yes"/>
      <point x="573" y="532"/>
      <point x="523" y="599"/>
      <point x="402" y="682" type="curve" smooth="yes"/>
      <point x="360" y="711" type="line" smooth="yes"/>
      <point x="266" y="776"/>
      <point x="239" y="814"/>
      <point x="239" y="895" type="curve" smooth="yes"/>
      <point x="239" y="917" type="line" smooth="yes"/>
      <point x="239" y="1017"/>
      <point x="285" y="1060"/>
      <point x="384" y="1060" type="curve" smooth="yes"/>
      <point x="532" y="1060" type="line"/>
      <point x="519" y="1212" type="line"/>
      <point x="343" y="1212" type="line" smooth="yes"/>
      <point x="156" y="1212"/>
      <point x="62" y="1116"/>
      <point x="62" y="932" type="curve" smooth="yes"/>
      <point x="62" y="899" type="line" smooth="yes"/>
      <point x="62" y="769"/>
      <point x="106" y="687"/>
      <point x="247" y="591" type="curve" smooth="yes"/>
      <point x="285" y="565" type="line" smooth="yes"/>
      <point x="371" y="506"/>
      <point x="396" y="467"/>
      <point x="396" y="368" type="curve" smooth="yes"/>
      <point x="396" y="315" type="line" smooth="yes"/>
      <point x="396" y="195"/>
      <point x="343" y="138"/>
      <point x="243" y="138" type="curve" smooth="yes"/>
      <point x="171" y="138"/>
      <point x="108" y="165"/>
      <point x="53" y="208" type="curve"/>
      <point x="65" y="41" type="line"/>
      <point x="112" y="11"/>
      <point x="182" y="-17"/>
    </contour>
  </outline>
</glyph>
<glyph name="MatraA.gj" format="2">
  <advance width="377"/>
  <unicode hex="0ABE"/>
  <anchor x="176" y="-63" name="Bottom"/>
  <anchor x="159" y="1273" name="Top"/>
  <anchor x="188" y="1273" name="Top2"/>
  <outline>
    <contour>
      <point x="101" y="508" type="line"/>
      <point x="276" y="508" type="line"/>
      <point x="276" y="1212" type="line"/>
      <point x="101" y="1212" type="line"/>
    </contour>
    <contour>
      <point x="101" y="0" type="line"/>
      <point x="276" y="0" type="line"/>
      <point x="276" y="666" type="line"/>
      <point x="101" y="666" type="line"/>
    </contour>
  </outline>
</glyph>
<glyph name="MatraI.gj" format="2">
  <advance width="377"/>
  <unicode hex="0ABF"/>
  <anchor x="176" y="-63" name="Bottom"/>
  <anchor x="159" y="1273" name="Top"/>
  <anchor x="188" y="1273" name="Top2"/>
  <outline>
    <contour>
      <point x="101" y="1185" type="curve"/>
      <point x="276" y="1185" type="line"/>
      <point x="276" y="1256"/>
      <point x="276" y="1304"/>
      <point x="276" y="1352" type="curve" smooth="yes"/>
      <point x="276" y="1537"/>
      <point x="362" y="1606"/>
      <point x="501" y="1606" type="curve" smooth="yes"/>
      <point x="651" y="1606"/>
      <point x="810" y="1503"/>
      <point x="919" y="1273" type="curve"/>
      <point x="1059" y="1350" type="line"/>
      <point x="941" y="1617"/>
      <point x="726" y="1754"/>
      <point x="501" y="1754" type="curve" smooth="yes"/>
      <point x="257" y="1754"/>
      <point x="101" y="1627"/>
      <point x="101" y="1352" type="curve" smooth="yes"/>
      <point x="101" y="1291"/>
      <point x="101" y="1244"/>
    </contour>
    <contour>
      <point x="101" y="508" type="line"/>
      <point x="276" y="508" type="line"/>
      <point x="276" y="1212" type="line"/>
      <point x="101" y="1212" type="line"/>
    </contour>
    <contour>
      <point x="101" y="0" type="line"/>
      <point x="276" y="0" type="line"/>
      <point x="276" y="666" type="line"/>
      <point x="101" y="666" type="line"/>
    </contour>
  </outline>
</glyph>
<glyph name="MatraU.gj" format="2">
  <unicode hex="0AC1"/>
  <guideline x="176" y="-217" angle="0"/>
  <guideline x="338" y="-166" angle="266.3478"/>
  <guideline x="711" y="-349" angle="90"/>
  <guideline x="566" y="-349" angle="90"/>
  <guideline x="460" y="-191" angle="0"/>
  <anchor x="497" y="-63" name="_Bottom"/>
  <outline>
    <contour>
      <point x="448" y="-635" type="curve" smooth="yes"/>
      <point x="631" y="-635"/>
      <point x="715" y="-541"/>
      <point x="715" y="-363" type="curve" smooth="yes"/>
      <point x="715" y="-328" type="line" smooth="yes"/>
      <point x="715" y="-154"/>
      <point x="645" y="-63"/>
      <point x="491" y="-63" type="curve" smooth="yes"/>
      <point x="432" y="-63"/>
      <point x="381" y="-75"/>
      <point x="342" y="-94" type="curve"/>
      <point x="333" y="-243" type="line"/>
      <point x="375" y="-220"/>
      <point x="414" y="-208"/>
      <point x="458" y="-208" type="curve" smooth="yes"/>
      <point x="526" y="-208"/>
      <point x="551" y="-246"/>
      <point x="551" y="-332" type="curve" smooth="yes"/>
      <point x="551" y="-362" type="line" smooth="yes"/>
      <point x="551" y="-450"/>
      <point x="518" y="-490"/>
      <point x="446" y="-490" type="curve" smooth="yes"/>
      <point x="341" y="-490"/>
      <point x="291" y="-410"/>
      <point x="254" y="-217" type="curve"/>
      <point x="94" y="-217" type="line"/>
      <point x="146" y="-521"/>
      <point x="238" y="-635"/>
    </contour>
  </outline>
</glyph>
<glyph name="MatraUu.gj" format="2">
  <unicode hex="0AC2"/>
  <anchor x="356" y="-63" name="_Bottom"/>
  <outline>
    <contour>
      <point x="541" y="-636" type="curve"/>
      <point x="709" y="-636" type="line"/>
      <point x="646" y="-197"/>
      <point x="591" y="-63"/>
      <point x="357" y="-63" type="curve" smooth="yes"/>
      <point x="191" y="-63"/>
      <point x="98" y="-156"/>
      <point x="98" y="-332" type="curve" smooth="yes"/>
      <point x="98" y="-371" type="line" smooth="yes"/>
      <point x="98" y="-553"/>
      <point x="183" y="-634"/>
      <point x="317" y="-634" type="curve" smooth="yes"/>
      <point x="363" y="-634"/>
      <point x="404" y="-626"/>
      <point x="430" y="-612" type="curve"/>
      <point x="442" y="-465" type="line"/>
      <point x="413" y="-481"/>
      <point x="384" y="-489"/>
      <point x="352" y="-489" type="curve" smooth="yes"/>
      <point x="294" y="-489"/>
      <point x="262" y="-455"/>
      <point x="262" y="-366" type="curve" smooth="yes"/>
      <point x="262" y="-333" type="line" smooth="yes"/>
      <point x="262" y="-247"/>
      <point x="297" y="-207"/>
      <point x="360" y="-207" type="curve" smooth="yes"/>
      <point x="467" y="-207"/>
      <point x="491" y="-280"/>
    </contour>
  </outline>
</glyph>
<glyph name="MatraRu.gj" format="2">
  <unicode hex="0AC3"/>
  <anchor x="361" y="-63" name="_Bottom"/>
  <outline>
    <contour>
      <point x="353" y="-635" type="curve" smooth="yes"/>
      <point x="422" y="-635"/>
      <point x="474" y="-621"/>
      <point x="517" y="-595" type="curve"/>
      <point x="529" y="-444" type="line"/>
      <point x="486" y="-473"/>
      <point x="440" y="-488"/>
      <point x="383" y="-488" type="curve" smooth="yes"/>
      <point x="301" y="-488"/>
      <point x="257" y="-448"/>
      <point x="257" y="-356" type="curve" smooth="yes"/>
      <point x="257" y="-340" type="line" smooth="yes"/>
      <point x="257" y="-245"/>
      <point x="296" y="-204"/>
      <point x="394" y="-204" type="curve" smooth="yes"/>
      <point x="473" y="-204" type="line"/>
      <point x="473" y="-63" type="line"/>
      <point x="370" y="-63" type="line" smooth="yes"/>
      <point x="179" y="-63"/>
      <point x="93" y="-155"/>
      <point x="93" y="-338" type="curve" smooth="yes"/>
      <point x="93" y="-360" type="line" smooth="yes"/>
      <point x="93" y="-548"/>
      <point x="194" y="-635"/>
    </contour>
  </outline>
</glyph>
<glyph name="MatraRuu.gj" format="2">
  <unicode hex="0AC4"/>
  <guideline x="290" y="-290" angle="0"/>
  <guideline x="116" y="-290" angle="90"/>
  <guideline x="239" y="-487" angle="0"/>
  <anchor x="329" y="-63" name="_Bottom"/>
  <outline>
    <contour>
      <point x="335" y="-520" type="curve" smooth="yes"/>
      <point x="391" y="-520"/>
      <point x="441" y="-508"/>
      <point x="474" y="-489" type="curve"/>
      <point x="484" y="-350" type="line"/>
      <point x="445" y="-372"/>
      <point x="401" y="-385"/>
      <point x="350" y="-385" type="curve" smooth="yes"/>
      <point x="278" y="-385"/>
      <point x="243" y="-351"/>
      <point x="243" y="-295" type="curve" smooth="yes"/>
      <point x="243" y="-285" type="line" smooth="yes"/>
      <point x="243" y="-218"/>
      <point x="278" y="-190"/>
      <point x="362" y="-190" type="curve" smooth="yes"/>
      <point x="440" y="-190" type="line"/>
      <point x="440" y="-63" type="line"/>
      <point x="334" y="-63" type="line" smooth="yes"/>
      <point x="171" y="-63"/>
      <point x="94" y="-135"/>
      <point x="94" y="-283" type="curve" smooth="yes"/>
      <point x="94" y="-297" type="line" smooth="yes"/>
      <point x="94" y="-398"/>
      <point x="135" y="-471"/>
      <point x="223" y="-496" type="curve"/>
      <point x="256" y="-513" type="line"/>
      <point x="278" y="-518"/>
      <point x="309" y="-520"/>
    </contour>
    <contour>
      <point x="334" y="-831" type="curve" smooth="yes"/>
      <point x="394" y="-831"/>
      <point x="445" y="-819"/>
      <point x="484" y="-797" type="curve"/>
      <point x="494" y="-659" type="line"/>
      <point x="455" y="-682"/>
      <point x="411" y="-696"/>
      <point x="363" y="-696" type="curve" smooth="yes"/>
      <point x="291" y="-696"/>
      <point x="253" y="-664"/>
      <point x="253" y="-609" type="curve" smooth="yes"/>
      <point x="253" y="-603" type="line" smooth="yes"/>
      <point x="253" y="-550"/>
      <point x="282" y="-517"/>
      <point x="352" y="-517" type="curve"/>
      <point x="199" y="-474" type="line"/>
      <point x="199" y="-494" type="line"/>
      <point x="132" y="-512"/>
      <point x="103" y="-566"/>
      <point x="103" y="-637" type="curve" smooth="yes"/>
      <point x="103" y="-645" type="line" smooth="yes"/>
      <point x="103" y="-769"/>
      <point x="191" y="-831"/>
    </contour>
  </outline>
</glyph>
<glyph name="MatraChandraE.gj" format="2">
  <unicode hex="0AC5"/>
  <anchor x="544" y="1273" name="_Top"/>
  <outline>
    <contour>
      <point x="611" y="1273" type="curve" smooth="yes"/>
      <point x="647" y="1273"/>
      <point x="683" y="1281"/>
      <point x="701" y="1292" type="curve"/>
      <point x="701" y="1427" type="line"/>
      <point x="690" y="1421"/>
      <point x="664" y="1412"/>
      <point x="634" y="1412" type="curve" smooth="yes"/>
      <point x="567" y="1412"/>
      <point x="520" y="1434"/>
      <point x="426" y="1530" type="curve" smooth="yes"/>
      <point x="205" y="1756" type="line"/>
      <point x="100" y="1634" type="line"/>
      <point x="324" y="1416" type="line" smooth="yes"/>
      <point x="453" y="1290"/>
      <point x="528" y="1273"/>
    </contour>
  </outline>
</glyph>
<glyph name="MatraE.gj" format="2">
  <unicode hex="0AC7"/>
  <anchor x="594" y="1273" name="_Top"/>
  <outline>
    <contour>
      <point x="594" y="1273" type="curve"/>
      <point x="668" y="1370" type="line"/>
      <point x="514" y="1498"/>
      <point x="357" y="1629"/>
      <point x="205" y="1756" type="curve"/>
      <point x="99" y="1618" type="line"/>
      <point x="260" y="1504"/>
      <point x="432" y="1387"/>
    </contour>
  </outline>
</glyph>
<glyph name="MatraAi.gj" format="2">
  <unicode hex="0AC8"/>
  <guideline x="154" y="1597" angle="232.4716"/>
  <guideline x="373" y="1522" angle="146.3798"/>
  <guideline x="556" y="1618" angle="117.6753"/>
  <guideline x="439" y="1592" angle="303.03430000000003"/>
  <guideline x="366" y="1827" angle="216.2324"/>
  <guideline x="144" y="1591" angle="235.4516"/>
  <anchor x="605" y="1273" name="_Top"/>
  <outline>
    <contour>
      <point x="605" y="1273" type="line"/>
      <point x="690" y="1362" type="line"/>
      <point x="430" y="1868" type="line"/>
      <point x="295" y="1783" type="line"/>
      <point x="560" y="1405" type="line"/>
      <point x="558" y="1402" type="line"/>
      <point x="187" y="1658" type="line"/>
      <point x="102" y="1530" type="line"/>
    </contour>
  </outline>
</glyph>
<glyph name="MatraChandraO.gj" format="2">
  <advance width="377"/>
  <unicode hex="0AC9"/>
  <anchor x="176" y="-63" name="Bottom"/>
  <anchor x="159" y="1273" name="Top"/>
  <anchor x="188" y="1273" name="Top2"/>
  <outline>
    <contour>
      <point x="101" y="508" type="line"/>
      <point x="276" y="508" type="line"/>
      <point x="276" y="1212" type="line"/>
      <point x="101" y="1212" type="line"/>
    </contour>
    <contour>
      <point x="101" y="0" type="line"/>
      <point x="276" y="0" type="line"/>
      <point x="276" y="666" type="line"/>
      <point x="101" y="666" type="line"/>
    </contour>
    <contour>
      <point x="226" y="1273" type="curve" smooth="yes"/>
      <point x="262" y="1273"/>
      <point x="298" y="1281"/>
      <point x="316" y="1292" type="curve"/>
      <point x="316" y="1427" type="line"/>
      <point x="305" y="1421"/>
      <point x="279" y="1412"/>
      <point x="249" y="1412" type="curve" smooth="yes"/>
      <point x="182" y="1412"/>
      <point x="135" y="1434"/>
      <point x="41" y="1530" type="curve" smooth="yes"/>
      <point x="-180" y="1756" type="line"/>
      <point x="-285" y="1634" type="line"/>
      <point x="-61" y="1416" type="line" smooth="yes"/>
      <point x="68" y="1290"/>
      <point x="143" y="1273"/>
    </contour>
  </outline>
</glyph>
<glyph name="MatraO.gj" format="2">
  <advance width="377"/>
  <unicode hex="0ACB"/>
  <guideline x="101" y="1360" angle="270"/>
  <guideline x="159" y="1360" angle="270"/>
  <anchor x="176" y="-63" name="Bottom"/>
  <anchor x="159" y="1273" name="Top"/>
  <anchor x="188" y="1273" name="Top2"/>
  <outline>
    <contour>
      <point x="101" y="508" type="line"/>
      <point x="276" y="508" type="line"/>
      <point x="276" y="1212" type="line"/>
      <point x="101" y="1212" type="line"/>
    </contour>
    <contour>
      <point x="101" y="0" type="line"/>
      <point x="276" y="0" type="line"/>
      <point x="276" y="666" type="line"/>
      <point x="101" y="666" type="line"/>
    </contour>
    <contour>
      <point x="159" y="1273" type="curve"/>
      <point x="233" y="1370" type="line"/>
      <point x="79" y="1498"/>
      <point x="-78" y="1629"/>
      <point x="-230" y="1756" type="curve"/>
      <point x="-336" y="1618" type="line"/>
      <point x="-175" y="1504"/>
      <point x="-3" y="1387"/>
    </contour>
  </outline>
</glyph>
<glyph name="MatraAu.gj" format="2">
  <advance width="377"/>
  <unicode hex="0ACC"/>
  <guideline x="276" y="1212" angle="90"/>
  <guideline x="159" y="1290" angle="90"/>
  <anchor x="176" y="-63" name="Bottom"/>
  <anchor x="159" y="1273" name="Top"/>
  <anchor x="188" y="1273" name="Top2"/>
  <outline>
    <contour>
      <point x="101" y="508" type="line"/>
      <point x="276" y="508" type="line"/>
      <point x="276" y="1212" type="line"/>
      <point x="101" y="1212" type="line"/>
    </contour>
    <contour>
      <point x="101" y="0" type="line"/>
      <point x="276" y="0" type="line"/>
      <point x="276" y="666" type="line"/>
      <point x="101" y="666" type="line"/>
    </contour>
    <contour>
      <point x="159" y="1273" type="line"/>
      <point x="244" y="1362" type="line"/>
      <point x="-16" y="1868" type="line"/>
      <point x="-151" y="1783" type="line"/>
      <point x="114" y="1405" type="line"/>
      <point x="112" y="1402" type="line"/>
      <point x="-259" y="1658" type="line"/>
      <point x="-344" y="1530" type="line"/>
    </contour>
  </outline>
</glyph>
<glyph name="Halant.gj" format="2">
  <unicode hex="0ACD"/>
  <anchor x="184" y="-63" name="_Bottom"/>
  <outline>
    <contour>
      <point x="407" y="-605" type="line"/>
      <point x="511" y="-535" type="line"/>
      <point x="230" y="-84" type="line"/>
      <point x="82" y="-188" type="line"/>
    </contour>
  </outline>
</glyph>
<glyph name="Om.gj" format="2">
  <advance width="1239"/>
  <unicode hex="0AD0"/>
  <guideline x="797" y="677" angle="83.8845"/>
  <guideline x="640" y="729" angle="264.4128"/>
  <anchor x="783" y="1111" name="_Top2"/>
  <outline>
    <contour>
      <point x="911" y="83" type="curve" smooth="yes"/>
      <point x="1076" y="83"/>
      <point x="1164" y="178"/>
      <point x="1164" y="408" type="curve" smooth="yes"/>
      <point x="1164" y="730" type="line" smooth="yes"/>
      <point x="1164" y="954"/>
      <point x="1066" y="1047"/>
      <point x="901" y="1047" type="curve" smooth="yes"/>
      <point x="759" y="1047"/>
      <point x="662" y="957"/>
      <point x="644" y="770" type="curve" smooth="yes"/>
      <point x="635" y="678" type="line" smooth="yes"/>
      <point x="625" y="575"/>
      <point x="603" y="540"/>
      <point x="544" y="540" type="curve" smooth="yes"/>
      <point x="516" y="540"/>
      <point x="483" y="554"/>
      <point x="456" y="578" type="curve"/>
      <point x="483" y="460" type="line"/>
      <point x="510" y="419"/>
      <point x="556" y="394"/>
      <point x="614" y="394" type="curve" smooth="yes"/>
      <point x="730" y="394"/>
      <point x="775" y="474"/>
      <point x="791" y="621" type="curve" smooth="yes"/>
      <point x="805" y="750" type="line" smooth="yes"/>
      <point x="818" y="869"/>
      <point x="845" y="897"/>
      <point x="900" y="897" type="curve" smooth="yes"/>
      <point x="958" y="897"/>
      <point x="989" y="858"/>
      <point x="989" y="740" type="curve" smooth="yes"/>
      <point x="989" y="407" type="line" smooth="yes"/>
      <point x="989" y="279"/>
      <point x="941" y="230"/>
      <point x="863" y="230" type="curve" smooth="yes"/>
      <point x="818" y="230"/>
      <point x="780" y="243"/>
      <point x="743" y="264" type="curve"/>
      <point x="755" y="123" type="line"/>
      <point x="791" y="102"/>
      <point x="843" y="83"/>
    </contour>
    <contour>
      <point x="783" y="1142" type="curve" smooth="yes"/>
      <point x="962" y="1142"/>
      <point x="1059" y="1229"/>
      <point x="1059" y="1412" type="curve" smooth="yes"/>
      <point x="1059" y="1423"/>
      <point x="1059" y="1437"/>
      <point x="1057" y="1468" type="curve"/>
      <point x="929" y="1468" type="line"/>
      <point x="929" y="1428" type="line" smooth="yes"/>
      <point x="929" y="1311"/>
      <point x="882" y="1260"/>
      <point x="784" y="1260" type="curve" smooth="yes"/>
      <point x="685" y="1260"/>
      <point x="639" y="1311"/>
      <point x="639" y="1428" type="curve" smooth="yes"/>
      <point x="639" y="1468" type="line"/>
      <point x="511" y="1468" type="line"/>
      <point x="509" y="1437"/>
      <point x="509" y="1423"/>
      <point x="509" y="1412" type="curve" smooth="yes"/>
      <point x="509" y="1229"/>
      <point x="605" y="1142"/>
    </contour>
    <contour>
      <point x="784" y="1353" type="curve" smooth="yes"/>
      <point x="835" y="1353"/>
      <point x="854" y="1390"/>
      <point x="854" y="1461" type="curve" smooth="yes"/>
      <point x="854" y="1475" type="line" smooth="yes"/>
      <point x="854" y="1544"/>
      <point x="835" y="1582"/>
      <point x="784" y="1582" type="curve" smooth="yes"/>
      <point x="733" y="1582"/>
      <point x="713" y="1544"/>
      <point x="713" y="1475" type="curve" smooth="yes"/>
      <point x="713" y="1461" type="line" smooth="yes"/>
      <point x="713" y="1390"/>
      <point x="733" y="1353"/>
    </contour>
    <contour>
      <point x="242" y="-19" type="curve" smooth="yes"/>
      <point x="443" y="-19"/>
      <point x="535" y="88"/>
      <point x="535" y="278" type="curve" smooth="yes"/>
      <point x="535" y="366" type="line" smooth="yes"/>
      <point x="535" y="515"/>
      <point x="472" y="603"/>
      <point x="345" y="625" type="curve"/>
      <point x="345" y="629" type="line"/>
      <point x="459" y="647"/>
      <point x="522" y="729"/>
      <point x="522" y="875" type="curve" smooth="yes"/>
      <point x="522" y="955" type="line" smooth="yes"/>
      <point x="522" y="1143"/>
      <point x="428" y="1232"/>
      <point x="251" y="1232" type="curve" smooth="yes"/>
      <point x="175" y="1232"/>
      <point x="114" y="1206"/>
      <point x="80" y="1183" type="curve"/>
      <point x="67" y="1037" type="line"/>
      <point x="105" y="1062"/>
      <point x="152" y="1082"/>
      <point x="208" y="1082" type="curve" smooth="yes"/>
      <point x="296" y="1082"/>
      <point x="345" y="1031"/>
      <point x="345" y="927" type="curve" smooth="yes"/>
      <point x="345" y="860" type="line" smooth="yes"/>
      <point x="345" y="755"/>
      <point x="293" y="706"/>
      <point x="204" y="703" type="curve" smooth="yes"/>
      <point x="111" y="700" type="line"/>
      <point x="111" y="554" type="line"/>
      <point x="204" y="551" type="line" smooth="yes"/>
      <point x="301" y="548"/>
      <point x="358" y="498"/>
      <point x="358" y="382" type="curve" smooth="yes"/>
      <point x="358" y="309" type="line" smooth="yes"/>
      <point x="358" y="189"/>
      <point x="304" y="136"/>
      <point x="209" y="136" type="curve" smooth="yes"/>
      <point x="139" y="136"/>
      <point x="89" y="165"/>
      <point x="48" y="203" type="curve"/>
      <point x="61" y="36" type="line"/>
      <point x="97" y="7"/>
      <point x="162" y="-19"/>
    </contour>
  </outline>
</glyph>
<glyph name="VowelRuu.gj" format="2">
  <advance width="1243"/>
  <unicode hex="0AE0"/>
  <anchor x="610" y="-63" name="Bottom"/>
  <anchor x="593" y="1273" name="Top"/>
  <anchor x="622" y="1273" name="Top2"/>
  <outline>
    <contour>
      <point x="1091" y="73" type="curve" smooth="yes"/>
      <point x="1137" y="73"/>
      <point x="1173" y="83"/>
      <point x="1199" y="98" type="curve"/>
      <point x="1209" y="241" type="line"/>
      <point x="1187" y="232"/>
      <point x="1164" y="225"/>
      <point x="1133" y="225" type="curve" smooth="yes"/>
      <point x="1066" y="225"/>
      <point x="1037" y="249"/>
      <point x="1037" y="325" type="curve" smooth="yes"/>
      <point x="1037" y="331" type="line" smooth="yes"/>
      <point x="1037" y="412"/>
      <point x="1072" y="440"/>
      <point x="1174" y="442" type="curve"/>
      <point x="1174" y="565" type="line"/>
      <point x="1112" y="601"/>
      <point x="1061" y="667"/>
      <point x="1048" y="741" type="curve"/>
      <point x="926" y="697" type="line"/>
      <point x="936" y="633"/>
      <point x="968" y="576"/>
      <point x="1032" y="531" type="curve"/>
      <point x="1032" y="528" type="line"/>
      <point x="921" y="505"/>
      <point x="875" y="441"/>
      <point x="875" y="311" type="curve" smooth="yes"/>
      <point x="875" y="296" type="line" smooth="yes"/>
      <point x="875" y="131"/>
      <point x="960" y="73"/>
    </contour>
    <contour>
      <point x="162" y="340" type="curve"/>
      <point x="337" y="396" type="line"/>
      <point x="317" y="438" type="line"/>
      <point x="372" y="485"/>
      <point x="393" y="544"/>
      <point x="393" y="660" type="curve" smooth="yes"/>
      <point x="393" y="820" type="line" smooth="yes"/>
      <point x="393" y="995"/>
      <point x="323" y="1074"/>
      <point x="179" y="1074" type="curve" smooth="yes"/>
      <point x="127" y="1074"/>
      <point x="76" y="1056"/>
      <point x="48" y="1037" type="curve"/>
      <point x="36" y="892" type="line"/>
      <point x="65" y="910"/>
      <point x="100" y="922"/>
      <point x="131" y="922" type="curve" smooth="yes"/>
      <point x="194" y="922"/>
      <point x="223" y="888"/>
      <point x="223" y="793" type="curve" smooth="yes"/>
      <point x="223" y="602" type="line" smooth="yes"/>
      <point x="223" y="467"/>
      <point x="211" y="403"/>
    </contour>
    <contour>
      <point x="42" y="110" type="line"/>
      <point x="580" y="428" type="line"/>
      <point x="577" y="591" type="line"/>
      <point x="483" y="537" type="line" smooth="yes"/>
      <point x="410" y="495"/>
      <point x="348" y="451"/>
      <point x="288" y="409" type="curve"/>
      <point x="262" y="403" type="line"/>
      <point x="42" y="279" type="line"/>
    </contour>
    <contour>
      <point x="656" y="459" type="line"/>
      <point x="1026" y="673" type="line"/>
      <point x="963" y="800" type="line"/>
      <point x="652" y="622" type="line"/>
    </contour>
    <contour>
      <point x="904" y="675" type="line"/>
      <point x="1048" y="701" type="line"/>
      <point x="1101" y="779" type="line"/>
      <point x="1088" y="883"/>
      <point x="1067" y="983"/>
      <point x="1040" y="1071" type="curve"/>
      <point x="904" y="1071" type="line"/>
    </contour>
    <contour>
      <point x="535" y="508" type="line"/>
      <point x="710" y="508" type="line"/>
      <point x="710" y="1212" type="line"/>
      <point x="535" y="1212" type="line"/>
    </contour>
    <contour>
      <point x="535" y="0" type="line"/>
      <point x="710" y="0" type="line"/>
      <point x="710" y="666" type="line"/>
      <point x="535" y="666" type="line"/>
    </contour>
  </outline>
</glyph>
<glyph name="MatraLru.gj" format="2">
  <unicode hex="0AE2"/>
  <guideline x="759" y="-648" angle="268.2986"/>
  <guideline x="661" y="-720" angle="0"/>
  <guideline x="695" y="-618" angle="0"/>
  <anchor x="589" y="-63" name="_Bottom"/>
  <outline>
    <contour>
      <point x="188" y="-587" type="curve"/>
      <point x="346" y="-587" type="line"/>
      <point x="266" y="-493"/>
      <point x="241" y="-423"/>
      <point x="241" y="-311" type="curve" smooth="yes"/>
      <point x="241" y="-288" type="line" smooth="yes"/>
      <point x="241" y="-214"/>
      <point x="264" y="-180"/>
      <point x="307" y="-180" type="curve" smooth="yes"/>
      <point x="345" y="-180"/>
      <point x="365" y="-203"/>
      <point x="366" y="-265" type="curve" smooth="yes"/>
      <point x="370" y="-425" type="line"/>
      <point x="487" y="-425" type="line"/>
      <point x="492" y="-269" type="line" smooth="yes"/>
      <point x="494" y="-205"/>
      <point x="514" y="-180"/>
      <point x="555" y="-180" type="curve" smooth="yes"/>
      <point x="597" y="-180"/>
      <point x="614" y="-212"/>
      <point x="614" y="-270" type="curve" smooth="yes"/>
      <point x="614" y="-279" type="line"/>
      <point x="760" y="-266" type="line"/>
      <point x="760" y="-256" type="line" smooth="yes"/>
      <point x="760" y="-132"/>
      <point x="700" y="-63"/>
      <point x="581" y="-63" type="curve" smooth="yes"/>
      <point x="498" y="-63"/>
      <point x="447" y="-98"/>
      <point x="433" y="-161" type="curve"/>
      <point x="428" y="-161" type="line"/>
      <point x="415" y="-98"/>
      <point x="368" y="-63"/>
      <point x="286" y="-63" type="curve" smooth="yes"/>
      <point x="160" y="-63"/>
      <point x="96" y="-139"/>
      <point x="96" y="-286" type="curve" smooth="yes"/>
      <point x="96" y="-304" type="line" smooth="yes"/>
      <point x="96" y="-426"/>
      <point x="119" y="-505"/>
    </contour>
    <contour>
      <point x="661" y="-722" type="curve" smooth="yes"/>
      <point x="704" y="-722"/>
      <point x="735" y="-714"/>
      <point x="757" y="-700" type="curve"/>
      <point x="760" y="-595" type="line"/>
      <point x="743" y="-608"/>
      <point x="720" y="-616"/>
      <point x="695" y="-616" type="curve" smooth="yes"/>
      <point x="659" y="-616"/>
      <point x="639" y="-601"/>
      <point x="639" y="-567" type="curve" smooth="yes"/>
      <point x="639" y="-529"/>
      <point x="658" y="-505"/>
      <point x="701" y="-448" type="curve" smooth="yes"/>
      <point x="742" y="-393"/>
      <point x="760" y="-344"/>
      <point x="760" y="-278" type="curve" smooth="yes"/>
      <point x="760" y="-265" type="line"/>
      <point x="614" y="-278" type="line"/>
      <point x="614" y="-288" type="line" smooth="yes"/>
      <point x="614" y="-340"/>
      <point x="606" y="-370"/>
      <point x="566" y="-427" type="curve" smooth="yes"/>
      <point x="523" y="-488"/>
      <point x="504" y="-527"/>
      <point x="504" y="-582" type="curve" smooth="yes"/>
      <point x="504" y="-674"/>
      <point x="569" y="-722"/>
    </contour>
  </outline>
</glyph>
<glyph name="MatraLruu.gj" format="2">
  <unicode hex="0AE3"/>
  <anchor x="589" y="-63" name="_Bottom"/>
  <outline>
    <contour>
      <point x="188" y="-587" type="curve"/>
      <point x="346" y="-587" type="line"/>
      <point x="266" y="-493"/>
      <point x="241" y="-423"/>
      <point x="241" y="-311" type="curve" smooth="yes"/>
      <point x="241" y="-288" type="line" smooth="yes"/>
      <point x="241" y="-214"/>
      <point x="264" y="-180"/>
      <point x="307" y="-180" type="curve" smooth="yes"/>
      <point x="345" y="-180"/>
      <point x="365" y="-203"/>
      <point x="366" y="-265" type="curve" smooth="yes"/>
      <point x="370" y="-425" type="line"/>
      <point x="487" y="-425" type="line"/>
      <point x="492" y="-269" type="line" smooth="yes"/>
      <point x="494" y="-205"/>
      <point x="514" y="-180"/>
      <point x="555" y="-180" type="curve" smooth="yes"/>
      <point x="597" y="-180"/>
      <point x="614" y="-212"/>
      <point x="614" y="-270" type="curve" smooth="yes"/>
      <point x="614" y="-279" type="line"/>
      <point x="760" y="-266" type="line"/>
      <point x="760" y="-256" type="line" smooth="yes"/>
      <point x="760" y="-132"/>
      <point x="700" y="-63"/>
      <point x="581" y="-63" type="curve" smooth="yes"/>
      <point x="498" y="-63"/>
      <point x="447" y="-98"/>
      <point x="433" y="-161" type="curve"/>
      <point x="428" y="-161" type="line"/>
      <point x="415" y="-98"/>
      <point x="368" y="-63"/>
      <point x="286" y="-63" type="curve" smooth="yes"/>
      <point x="160" y="-63"/>
      <point x="96" y="-139"/>
      <point x="96" y="-286" type="curve" smooth="yes"/>
      <point x="96" y="-304" type="line" smooth="yes"/>
      <point x="96" y="-426"/>
      <point x="119" y="-505"/>
    </contour>
    <contour>
      <point x="655" y="-714" type="curve" smooth="yes"/>
      <point x="697" y="-714"/>
      <point x="730" y="-707"/>
      <point x="754" y="-692" type="curve"/>
      <point x="759" y="-593" type="line"/>
      <point x="734" y="-609"/>
      <point x="707" y="-616"/>
      <point x="676" y="-616" type="curve" smooth="yes"/>
      <point x="638" y="-616"/>
      <point x="618" y="-599"/>
      <point x="618" y="-569" type="curve" smooth="yes"/>
      <point x="618" y="-533"/>
      <point x="638" y="-509"/>
      <point x="684" y="-456" type="curve" smooth="yes"/>
      <point x="742" y="-388"/>
      <point x="760" y="-344"/>
      <point x="760" y="-274" type="curve" smooth="yes"/>
      <point x="760" y="-261" type="line"/>
      <point x="614" y="-273" type="line"/>
      <point x="614" y="-284" type="line" smooth="yes"/>
      <point x="614" y="-341"/>
      <point x="602" y="-370"/>
      <point x="555" y="-428" type="curve" smooth="yes"/>
      <point x="508" y="-486"/>
      <point x="485" y="-522"/>
      <point x="485" y="-579" type="curve" smooth="yes"/>
      <point x="485" y="-658"/>
      <point x="545" y="-714"/>
    </contour>
    <contour>
      <point x="660" y="-920" type="curve" smooth="yes"/>
      <point x="707" y="-920"/>
      <point x="739" y="-912"/>
      <point x="763" y="-898" type="curve"/>
      <point x="769" y="-797" type="line"/>
      <point x="742" y="-812"/>
      <point x="716" y="-819"/>
      <point x="682" y="-819" type="curve" smooth="yes"/>
      <point x="642" y="-820"/>
      <point x="619" y="-802"/>
      <point x="619" y="-767" type="curve" smooth="yes"/>
      <point x="619" y="-738"/>
      <point x="634" y="-717"/>
      <point x="672" y="-709" type="curve"/>
      <point x="572" y="-693" type="line"/>
      <point x="572" y="-706" type="line"/>
      <point x="519" y="-717"/>
      <point x="494" y="-751"/>
      <point x="494" y="-796" type="curve" smooth="yes"/>
      <point x="494" y="-878"/>
      <point x="567" y="-920"/>
    </contour>
  </outline>
</glyph>
<glyph name="Zero.gj" format="2">
  <advance width="805"/>
  <unicode hex="0AE6"/>
  <outline>
    <contour>
      <point x="402" y="1232" type="curve" smooth="yes"/>
      <point x="205" y="1232"/>
      <point x="97" y="1111"/>
      <point x="97" y="886" type="curve" smooth="yes"/>
      <point x="97" y="589" type="line"/>
      <point x="272" y="589" type="line"/>
      <point x="272" y="890" type="line" smooth="yes"/>
      <point x="272" y="1016"/>
      <point x="316" y="1077"/>
      <point x="402" y="1077" type="curve" smooth="yes"/>
      <point x="490" y="1077"/>
      <point x="533" y="1016"/>
      <point x="533" y="890" type="curve" smooth="yes"/>
      <point x="533" y="588" type="line"/>
      <point x="708" y="588" type="line"/>
      <point x="708" y="886" type="line" smooth="yes"/>
      <point x="708" y="1109"/>
      <point x="602" y="1232"/>
    </contour>
    <contour>
      <point x="402" y="-17" type="curve" smooth="yes"/>
      <point x="599" y="-17"/>
      <point x="708" y="105"/>
      <point x="708" y="319" type="curve" smooth="yes"/>
      <point x="708" y="647" type="line"/>
      <point x="533" y="647" type="line"/>
      <point x="533" y="315" type="line" smooth="yes"/>
      <point x="533" y="198"/>
      <point x="487" y="138"/>
      <point x="402" y="138" type="curve" smooth="yes"/>
      <point x="316" y="138"/>
      <point x="272" y="198"/>
      <point x="272" y="315" type="curve" smooth="yes"/>
      <point x="272" y="647" type="line"/>
      <point x="97" y="647" type="line"/>
      <point x="97" y="319" type="line" smooth="yes"/>
      <point x="97" y="102"/>
      <point x="205" y="-17"/>
    </contour>
  </outline>
</glyph>
<glyph name="One.gj" format="2">
  <advance width="718"/>
  <unicode hex="0AE7"/>
  <outline>
    <contour>
      <point x="265" y="362" type="curve" smooth="yes"/>
      <point x="357" y="362"/>
      <point x="412" y="415"/>
      <point x="426" y="494" type="curve"/>
      <point x="443" y="494" type="line"/>
      <point x="439" y="625" type="line"/>
      <point x="427" y="549"/>
      <point x="387" y="516"/>
      <point x="332" y="516" type="curve" smooth="yes"/>
      <point x="268" y="516"/>
      <point x="236" y="561"/>
      <point x="236" y="657" type="curve" smooth="yes"/>
      <point x="236" y="927" type="line" smooth="yes"/>
      <point x="236" y="1033"/>
      <point x="265" y="1082"/>
      <point x="335" y="1082" type="curve" smooth="yes"/>
      <point x="405" y="1082"/>
      <point x="434" y="1033"/>
      <point x="434" y="927" type="curve" smooth="yes"/>
      <point x="434" y="522" type="line"/>
      <point x="609" y="522" type="line"/>
      <point x="609" y="913" type="line" smooth="yes"/>
      <point x="609" y="1132"/>
      <point x="524" y="1232"/>
      <point x="333" y="1232" type="curve" smooth="yes"/>
      <point x="145" y="1232"/>
      <point x="61" y="1132"/>
      <point x="61" y="913" type="curve" smooth="yes"/>
      <point x="61" y="647" type="line" smooth="yes"/>
      <point x="61" y="467"/>
      <point x="115" y="362"/>
    </contour>
    <contour>
      <point x="595" y="-13" type="curve" smooth="yes"/>
      <point x="623" y="-13"/>
      <point x="651" y="-8"/>
      <point x="675" y="2" type="curve"/>
      <point x="685" y="135" type="line"/>
      <point x="678" y="132"/>
      <point x="665" y="130"/>
      <point x="654" y="130" type="curve" smooth="yes"/>
      <point x="622" y="130"/>
      <point x="609" y="148"/>
      <point x="609" y="193" type="curve" smooth="yes"/>
      <point x="609" y="540" type="line"/>
      <point x="434" y="540" type="line"/>
      <point x="434" y="167" type="line" smooth="yes"/>
      <point x="434" y="47"/>
      <point x="486" y="-13"/>
    </contour>
  </outline>
</glyph>
<glyph name="Two.gj" format="2">
  <advance width="541"/>
  <unicode hex="0AE8"/>
  <outline>
    <contour>
      <point x="213" y="384" type="line"/>
      <point x="211" y="417" type="line"/>
      <point x="215" y="417" type="line"/>
      <point x="385" y="417"/>
      <point x="470" y="521"/>
      <point x="470" y="724" type="curve" smooth="yes"/>
      <point x="470" y="956" type="line" smooth="yes"/>
      <point x="471" y="1144"/>
      <point x="383" y="1232"/>
      <point x="216" y="1232" type="curve" smooth="yes"/>
      <point x="151" y="1232"/>
      <point x="100" y="1216"/>
      <point x="58" y="1190" type="curve"/>
      <point x="45" y="1044" type="line"/>
      <point x="85" y="1067"/>
      <point x="120" y="1081"/>
      <point x="171" y="1081" type="curve" smooth="yes"/>
      <point x="248" y="1081"/>
      <point x="292" y="1037"/>
      <point x="292" y="939" type="curve" smooth="yes"/>
      <point x="292" y="730" type="line" smooth="yes"/>
      <point x="292" y="612"/>
      <point x="246" y="558"/>
      <point x="140" y="556" type="curve" smooth="yes"/>
      <point x="35" y="554" type="line"/>
      <point x="35" y="415" type="line"/>
    </contour>
    <contour>
      <point x="278" y="0" type="line"/>
      <point x="467" y="0" type="line"/>
      <point x="467" y="7" type="line"/>
      <point x="331" y="298" type="line" smooth="yes"/>
      <point x="299" y="364"/>
      <point x="265" y="418"/>
      <point x="229" y="475" type="curve"/>
      <point x="102" y="423" type="line"/>
    </contour>
  </outline>
</glyph>
<glyph name="Three.gj" format="2">
  <advance width="595"/>
  <unicode hex="0AE9"/>
  <outline>
    <contour>
      <point x="242" y="-19" type="curve" smooth="yes"/>
      <point x="443" y="-19"/>
      <point x="535" y="88"/>
      <point x="535" y="278" type="curve" smooth="yes"/>
      <point x="535" y="366" type="line" smooth="yes"/>
      <point x="535" y="515"/>
      <point x="472" y="603"/>
      <point x="345" y="625" type="curve"/>
      <point x="345" y="629" type="line"/>
      <point x="459" y="647"/>
      <point x="522" y="729"/>
      <point x="522" y="875" type="curve" smooth="yes"/>
      <point x="522" y="955" type="line" smooth="yes"/>
      <point x="522" y="1143"/>
      <point x="428" y="1232"/>
      <point x="251" y="1232" type="curve" smooth="yes"/>
      <point x="175" y="1232"/>
      <point x="114" y="1206"/>
      <point x="80" y="1183" type="curve"/>
      <point x="67" y="1037" type="line"/>
      <point x="105" y="1062"/>
      <point x="152" y="1082"/>
      <point x="208" y="1082" type="curve" smooth="yes"/>
      <point x="296" y="1082"/>
      <point x="345" y="1031"/>
      <point x="345" y="927" type="curve" smooth="yes"/>
      <point x="345" y="860" type="line" smooth="yes"/>
      <point x="345" y="755"/>
      <point x="293" y="706"/>
      <point x="204" y="703" type="curve" smooth="yes"/>
      <point x="111" y="700" type="line"/>
      <point x="111" y="554" type="line"/>
      <point x="204" y="551" type="line" smooth="yes"/>
      <point x="301" y="548"/>
      <point x="358" y="498"/>
      <point x="358" y="382" type="curve" smooth="yes"/>
      <point x="358" y="309" type="line" smooth="yes"/>
      <point x="358" y="189"/>
      <point x="304" y="136"/>
      <point x="209" y="136" type="curve" smooth="yes"/>
      <point x="139" y="136"/>
      <point x="89" y="165"/>
      <point x="48" y="203" type="curve"/>
      <point x="61" y="36" type="line"/>
      <point x="97" y="7"/>
      <point x="162" y="-19"/>
    </contour>
  </outline>
</glyph>
<glyph name="Four.gj" format="2">
  <advance width="757"/>
  <unicode hex="0AEA"/>
  <outline>
    <contour>
      <point x="374" y="-17" type="curve" smooth="yes"/>
      <point x="553" y="-17"/>
      <point x="646" y="77"/>
      <point x="646" y="264" type="curve" smooth="yes"/>
      <point x="646" y="291" type="line" smooth="yes"/>
      <point x="646" y="416"/>
      <point x="606" y="505"/>
      <point x="529" y="638" type="curve" smooth="yes"/>
      <point x="445" y="782" type="line"/>
      <point x="323" y="697" type="line"/>
      <point x="407" y="539" type="line" smooth="yes"/>
      <point x="455" y="447"/>
      <point x="477" y="388"/>
      <point x="477" y="292" type="curve" smooth="yes"/>
      <point x="477" y="262" type="line" smooth="yes"/>
      <point x="477" y="170"/>
      <point x="442" y="128"/>
      <point x="374" y="128" type="curve" smooth="yes"/>
      <point x="306" y="128"/>
      <point x="270" y="170"/>
      <point x="270" y="262" type="curve" smooth="yes"/>
      <point x="270" y="292" type="line" smooth="yes"/>
      <point x="270" y="386"/>
      <point x="291" y="444"/>
      <point x="340" y="535" type="curve" smooth="yes"/>
      <point x="429" y="698" type="line"/>
      <point x="307" y="781" type="line"/>
      <point x="219" y="634" type="line" smooth="yes"/>
      <point x="141" y="503"/>
      <point x="102" y="417"/>
      <point x="102" y="291" type="curve" smooth="yes"/>
      <point x="102" y="264" type="line" smooth="yes"/>
      <point x="102" y="77"/>
      <point x="195" y="-17"/>
    </contour>
    <contour>
      <point x="320" y="654" type="line"/>
      <point x="424" y="744" type="line"/>
      <point x="190" y="1212" type="line"/>
      <point x="8" y="1212" type="line"/>
      <point x="8" y="1199" type="line"/>
    </contour>
    <contour>
      <point x="436" y="652" type="line"/>
      <point x="749" y="1199" type="line"/>
      <point x="749" y="1212" type="line"/>
      <point x="567" y="1212" type="line"/>
      <point x="304" y="689" type="line"/>
    </contour>
  </outline>
</glyph>
<glyph name="Five.gj" format="2">
  <advance width="806"/>
  <unicode hex="0AEB"/>
  <outline>
    <contour>
      <point x="338" y="329" type="curve" smooth="yes"/>
      <point x="440" y="329"/>
      <point x="500" y="390"/>
      <point x="518" y="461" type="curve"/>
      <point x="541" y="461" type="line"/>
      <point x="530" y="612" type="line"/>
      <point x="515" y="527"/>
      <point x="472" y="484"/>
      <point x="400" y="484" type="curve" smooth="yes"/>
      <point x="318" y="484"/>
      <point x="279" y="535"/>
      <point x="279" y="653" type="curve" smooth="yes"/>
      <point x="279" y="886" type="line"/>
      <point x="104" y="886" type="line"/>
      <point x="104" y="637" type="line" smooth="yes"/>
      <point x="104" y="440"/>
      <point x="163" y="329"/>
    </contour>
    <contour>
      <point x="685" y="-13" type="curve" smooth="yes"/>
      <point x="712" y="-13"/>
      <point x="740" y="-8"/>
      <point x="763" y="2" type="curve"/>
      <point x="773" y="135" type="line"/>
      <point x="766" y="132"/>
      <point x="754" y="130"/>
      <point x="744" y="130" type="curve" smooth="yes"/>
      <point x="712" y="130"/>
      <point x="700" y="148"/>
      <point x="700" y="193" type="curve" smooth="yes"/>
      <point x="700" y="570" type="line"/>
      <point x="528" y="570" type="line"/>
      <point x="528" y="167" type="line" smooth="yes"/>
      <point x="528" y="47"/>
      <point x="578" y="-13"/>
    </contour>
    <contour>
      <point x="525" y="508" type="line"/>
      <point x="700" y="508" type="line"/>
      <point x="700" y="1212" type="line"/>
      <point x="525" y="1212" type="line"/>
    </contour>
    <contour>
      <point x="104" y="749" type="line"/>
      <point x="279" y="749" type="line"/>
      <point x="279" y="1042" type="line" smooth="yes"/>
      <point x="279" y="1162"/>
      <point x="227" y="1222"/>
      <point x="118" y="1222" type="curve" smooth="yes"/>
      <point x="90" y="1222"/>
      <point x="62" y="1217"/>
      <point x="38" y="1207" type="curve"/>
      <point x="28" y="1074" type="line"/>
      <point x="35" y="1077"/>
      <point x="48" y="1079"/>
      <point x="59" y="1079" type="curve" smooth="yes"/>
      <point x="91" y="1079"/>
      <point x="104" y="1061"/>
      <point x="104" y="1016" type="curve" smooth="yes"/>
    </contour>
  </outline>
</glyph>
<glyph name="Six.gj" format="2">
  <advance width="715"/>
  <unicode hex="0AEC"/>
  <guideline x="465" y="547" angle="90"/>
  <outline>
    <contour>
      <point x="335" y="-17" type="curve" smooth="yes"/>
      <point x="541" y="-17"/>
      <point x="635" y="101"/>
      <point x="635" y="305" type="curve" smooth="yes"/>
      <point x="635" y="807" type="line"/>
      <point x="465" y="807" type="line"/>
      <point x="465" y="582" type="line"/>
      <point x="467" y="557" type="line"/>
      <point x="467" y="321" type="line" smooth="yes"/>
      <point x="467" y="189"/>
      <point x="412" y="128"/>
      <point x="298" y="128" type="curve" smooth="yes"/>
      <point x="227" y="128"/>
      <point x="164" y="150"/>
      <point x="106" y="186" type="curve"/>
      <point x="116" y="32" type="line"/>
      <point x="165" y="5"/>
      <point x="238" y="-17"/>
    </contour>
    <contour>
      <point x="294" y="359" type="curve" smooth="yes"/>
      <point x="388" y="359"/>
      <point x="442" y="409"/>
      <point x="459" y="477" type="curve"/>
      <point x="473" y="477" type="line"/>
      <point x="469" y="630" type="line"/>
      <point x="457" y="550"/>
      <point x="416" y="514"/>
      <point x="358" y="514" type="curve" smooth="yes"/>
      <point x="286" y="514"/>
      <point x="252" y="564"/>
      <point x="252" y="673" type="curve" smooth="yes"/>
      <point x="252" y="809" type="line"/>
      <point x="77" y="809" type="line"/>
      <point x="77" y="653" type="line" smooth="yes"/>
      <point x="77" y="468"/>
      <point x="136" y="359"/>
    </contour>
    <contour>
      <point x="77" y="770" type="line"/>
      <point x="252" y="770" type="line"/>
      <point x="252" y="885" type="line" smooth="yes"/>
      <point x="252" y="1019"/>
      <point x="310" y="1082"/>
      <point x="421" y="1082" type="curve" smooth="yes"/>
      <point x="493" y="1082"/>
      <point x="551" y="1064"/>
      <point x="603" y="1041" type="curve"/>
      <point x="590" y="1188" type="line"/>
      <point x="548" y="1211"/>
      <point x="475" y="1232"/>
      <point x="391" y="1232" type="curve" smooth="yes"/>
      <point x="189" y="1232"/>
      <point x="77" y="1122"/>
      <point x="77" y="893" type="curve" smooth="yes"/>
    </contour>
  </outline>
</glyph>
<glyph name="Seven.gj" format="2">
  <advance width="949"/>
  <unicode hex="0AED"/>
  <outline>
    <contour>
      <point x="460" y="-17" type="curve" smooth="yes"/>
      <point x="719" y="-17"/>
      <point x="859" y="131"/>
      <point x="859" y="417" type="curve" smooth="yes"/>
      <point x="859" y="545" type="line"/>
      <point x="682" y="545" type="line"/>
      <point x="682" y="418" type="line" smooth="yes"/>
      <point x="682" y="232"/>
      <point x="611" y="138"/>
      <point x="460" y="138" type="curve" smooth="yes"/>
      <point x="314" y="138"/>
      <point x="233" y="217"/>
      <point x="233" y="414" type="curve" smooth="yes"/>
      <point x="233" y="490"/>
      <point x="233" y="546"/>
      <point x="233" y="598" type="curve"/>
      <point x="68" y="598" type="line"/>
      <point x="65" y="536"/>
      <point x="61" y="495"/>
      <point x="61" y="414" type="curve" smooth="yes"/>
      <point x="61" y="116"/>
      <point x="187" y="-17"/>
    </contour>
    <contour>
      <point x="525" y="385" type="curve" smooth="yes"/>
      <point x="613" y="384"/>
      <point x="662" y="433"/>
      <point x="676" y="504" type="curve"/>
      <point x="692" y="504" type="line"/>
      <point x="688" y="641" type="line"/>
      <point x="678" y="570"/>
      <point x="644" y="539"/>
      <point x="597" y="539" type="curve" smooth="yes"/>
      <point x="539" y="539"/>
      <point x="510" y="581"/>
      <point x="510" y="671" type="curve" smooth="yes"/>
      <point x="510" y="940" type="line" smooth="yes"/>
      <point x="510" y="1037"/>
      <point x="535" y="1082"/>
      <point x="597" y="1082" type="curve" smooth="yes"/>
      <point x="659" y="1082"/>
      <point x="684" y="1037"/>
      <point x="684" y="940" type="curve" smooth="yes"/>
      <point x="684" y="533" type="line"/>
      <point x="859" y="533" type="line"/>
      <point x="859" y="915" type="line" smooth="yes"/>
      <point x="859" y="1132"/>
      <point x="778" y="1232"/>
      <point x="598" y="1232" type="curve" smooth="yes"/>
      <point x="420" y="1232"/>
      <point x="340" y="1134"/>
      <point x="340" y="922" type="curve" smooth="yes"/>
      <point x="340" y="640" type="line" smooth="yes"/>
      <point x="340" y="458"/>
      <point x="409" y="385"/>
    </contour>
  </outline>
</glyph>
<glyph name="Eight.gj" format="2">
  <advance width="689"/>
  <unicode hex="0AEE"/>
  <outline>
    <contour>
      <point x="403" y="-17" type="curve" smooth="yes"/>
      <point x="500" y="-17"/>
      <point x="581" y="16"/>
      <point x="622" y="50" type="curve"/>
      <point x="635" y="219" type="line"/>
      <point x="581" y="170"/>
      <point x="507" y="138"/>
      <point x="428" y="138" type="curve" smooth="yes"/>
      <point x="308" y="138"/>
      <point x="243" y="196"/>
      <point x="243" y="323" type="curve" smooth="yes"/>
      <point x="243" y="327" type="line" smooth="yes"/>
      <point x="243" y="442"/>
      <point x="300" y="583"/>
      <point x="435" y="878" type="curve" smooth="yes"/>
      <point x="588" y="1212" type="line"/>
      <point x="399" y="1212" type="line"/>
      <point x="261" y="917" type="line" smooth="yes"/>
      <point x="124" y="624"/>
      <point x="65" y="470"/>
      <point x="65" y="319" type="curve" smooth="yes"/>
      <point x="65" y="304" type="line" smooth="yes"/>
      <point x="65" y="92"/>
      <point x="182" y="-17"/>
    </contour>
  </outline>
</glyph>
<glyph name="Nine.gj" format="2">
  <advance width="764"/>
  <unicode hex="0AEF"/>
  <outline>
    <contour>
      <point x="421" y="-19" type="curve" smooth="yes"/>
      <point x="534" y="-19"/>
      <point x="627" y="19"/>
      <point x="677" y="59" type="curve"/>
      <point x="690" y="228" type="line"/>
      <point x="625" y="172"/>
      <point x="539" y="136"/>
      <point x="446" y="136" type="curve" smooth="yes"/>
      <point x="313" y="136"/>
      <point x="243" y="209"/>
      <point x="243" y="345" type="curve" smooth="yes"/>
      <point x="243" y="349" type="line" smooth="yes"/>
      <point x="243" y="484"/>
      <point x="292" y="635"/>
      <point x="433" y="963" type="curve" smooth="yes"/>
      <point x="550" y="1212" type="line"/>
      <point x="361" y="1212" type="line"/>
      <point x="265" y="1001" type="line" smooth="yes"/>
      <point x="133" y="688"/>
      <point x="65" y="507"/>
      <point x="65" y="336" type="curve" smooth="yes"/>
      <point x="65" y="324" type="line" smooth="yes"/>
      <point x="65" y="109"/>
      <point x="191" y="-19"/>
    </contour>
    <contour>
      <point x="411" y="353" type="line"/>
      <point x="425" y="353" type="line"/>
      <point x="702" y="631" type="line"/>
      <point x="692" y="817" type="line"/>
      <point x="401" y="522" type="line"/>
    </contour>
  </outline>
</glyph>
<glyph name="AbbreviationSign.gj" format="2">
  <advance width="662"/>
  <unicode hex="0AF0"/>
  <guideline x="76" y="330" angle="0"/>
  <outline>
    <contour>
      <point x="331" y="611" type="curve" smooth="yes"/>
      <point x="166" y="611"/>
      <point x="76" y="507"/>
      <point x="76" y="329" type="curve" smooth="yes"/>
      <point x="76" y="294" type="line"/>
      <point x="223" y="294" type="line"/>
      <point x="223" y="328" type="line" smooth="yes"/>
      <point x="223" y="434"/>
      <point x="257" y="491"/>
      <point x="331" y="491" type="curve" smooth="yes"/>
      <point x="403" y="491"/>
      <point x="439" y="437"/>
      <point x="439" y="328" type="curve" smooth="yes"/>
      <point x="439" y="294" type="line"/>
      <point x="586" y="294" type="line"/>
      <point x="586" y="329" type="line" smooth="yes"/>
      <point x="586" y="512"/>
      <point x="499" y="611"/>
    </contour>
    <contour>
      <point x="331" y="-17" type="curve" smooth="yes"/>
      <point x="499" y="-17"/>
      <point x="586" y="82"/>
      <point x="586" y="265" type="curve" smooth="yes"/>
      <point x="586" y="299" type="line"/>
      <point x="439" y="299" type="line"/>
      <point x="439" y="266" type="line" smooth="yes"/>
      <point x="439" y="157"/>
      <point x="403" y="103"/>
      <point x="331" y="103" type="curve" smooth="yes"/>
      <point x="257" y="103"/>
      <point x="223" y="160"/>
      <point x="223" y="266" type="curve" smooth="yes"/>
      <point x="223" y="300" type="line"/>
      <point x="76" y="300" type="line"/>
      <point x="76" y="265" type="line" smooth="yes"/>
      <point x="76" y="87"/>
      <point x="166" y="-17"/>
    </contour>
  </outline>
</glyph>
<glyph name="RupeeSign.gj" format="2">
  <advance width="1240"/>
  <unicode hex="0AF1"/>
  <anchor x="342" y="-357" name="Bottom"/>
  <anchor x="308" y="1273" name="Top"/>
  <anchor x="304" y="1273" name="Top2"/>
  <outline>
    <contour>
      <point x="909" y="611" type="curve" smooth="yes"/>
      <point x="744" y="611"/>
      <point x="654" y="507"/>
      <point x="654" y="329" type="curve" smooth="yes"/>
      <point x="654" y="294" type="line"/>
      <point x="801" y="294" type="line"/>
      <point x="801" y="328" type="line" smooth="yes"/>
      <point x="801" y="434"/>
      <point x="835" y="491"/>
      <point x="909" y="491" type="curve" smooth="yes"/>
      <point x="981" y="491"/>
      <point x="1017" y="437"/>
      <point x="1017" y="328" type="curve" smooth="yes"/>
      <point x="1017" y="294" type="line"/>
      <point x="1164" y="294" type="line"/>
      <point x="1164" y="329" type="line" smooth="yes"/>
      <point x="1164" y="512"/>
      <point x="1077" y="611"/>
    </contour>
    <contour>
      <point x="909" y="-17" type="curve" smooth="yes"/>
      <point x="1077" y="-17"/>
      <point x="1164" y="82"/>
      <point x="1164" y="265" type="curve" smooth="yes"/>
      <point x="1164" y="299" type="line"/>
      <point x="1017" y="299" type="line"/>
      <point x="1017" y="266" type="line" smooth="yes"/>
      <point x="1017" y="157"/>
      <point x="981" y="103"/>
      <point x="909" y="103" type="curve" smooth="yes"/>
      <point x="835" y="103"/>
      <point x="801" y="160"/>
      <point x="801" y="266" type="curve" smooth="yes"/>
      <point x="801" y="300" type="line"/>
      <point x="654" y="300" type="line"/>
      <point x="654" y="265" type="line" smooth="yes"/>
      <point x="654" y="87"/>
      <point x="744" y="-17"/>
    </contour>
    <contour>
      <point x="247" y="-19" type="curve" smooth="yes"/>
      <point x="448" y="-19"/>
      <point x="540" y="88"/>
      <point x="540" y="278" type="curve" smooth="yes"/>
      <point x="540" y="366" type="line" smooth="yes"/>
      <point x="540" y="515"/>
      <point x="477" y="603"/>
      <point x="350" y="625" type="curve"/>
      <point x="350" y="629" type="line"/>
      <point x="464" y="647"/>
      <point x="527" y="729"/>
      <point x="527" y="875" type="curve" smooth="yes"/>
      <point x="527" y="955" type="line" smooth="yes"/>
      <point x="527" y="1143"/>
      <point x="433" y="1232"/>
      <point x="256" y="1232" type="curve" smooth="yes"/>
      <point x="180" y="1232"/>
      <point x="119" y="1206"/>
      <point x="85" y="1183" type="curve"/>
      <point x="72" y="1037" type="line"/>
      <point x="110" y="1062"/>
      <point x="157" y="1082"/>
      <point x="213" y="1082" type="curve" smooth="yes"/>
      <point x="301" y="1082"/>
      <point x="350" y="1031"/>
      <point x="350" y="927" type="curve" smooth="yes"/>
      <point x="350" y="860" type="line" smooth="yes"/>
      <point x="350" y="755"/>
      <point x="298" y="706"/>
      <point x="209" y="703" type="curve" smooth="yes"/>
      <point x="116" y="700" type="line"/>
      <point x="116" y="554" type="line"/>
      <point x="209" y="551" type="line" smooth="yes"/>
      <point x="306" y="548"/>
      <point x="363" y="498"/>
      <point x="363" y="382" type="curve" smooth="yes"/>
      <point x="363" y="309" type="line" smooth="yes"/>
      <point x="363" y="189"/>
      <point x="309" y="136"/>
      <point x="214" y="136" type="curve" smooth="yes"/>
      <point x="144" y="136"/>
      <point x="94" y="165"/>
      <point x="53" y="203" type="curve"/>
      <point x="66" y="36" type="line"/>
      <point x="102" y="7"/>
      <point x="167" y="-19"/>
    </contour>
    <contour>
      <point x="263" y="-295" type="line"/>
      <point x="453" y="-295" type="line"/>
      <point x="453" y="-290" type="line"/>
      <point x="370" y="-140" type="line" smooth="yes"/>
      <point x="332" y="-71"/>
      <point x="301" y="-23"/>
      <point x="248" y="36" type="curve"/>
      <point x="115" y="44" type="line"/>
    </contour>
  </outline>
</glyph>
<glyph name="Zha.gj" format="2">
  <advance width="998"/>
  <unicode hex="0AF9"/>
  <anchor x="636" y="-63" name="Bottom"/>
  <anchor x="817" y="1273" name="Top"/>
  <anchor x="909" y="1273" name="Top2"/>
  <outline>
    <contour>
      <point x="685" y="685" type="line"/>
      <point x="1001" y="1199" type="line"/>
      <point x="1001" y="1212" type="line"/>
      <point x="817" y="1212" type="line"/>
      <point x="586" y="786" type="line"/>
    </contour>
    <contour>
      <point x="267" y="478" type="line"/>
      <point x="267" y="1005" type="line" smooth="yes"/>
      <point x="267" y="1058"/>
      <point x="285" y="1082"/>
      <point x="320" y="1082" type="curve" smooth="yes"/>
      <point x="354" y="1082"/>
      <point x="366" y="1062"/>
      <point x="401" y="994" type="curve" smooth="yes"/>
      <point x="576" y="651" type="line"/>
      <point x="693" y="772" type="line"/>
      <point x="539" y="1068" type="line" smooth="yes"/>
      <point x="481" y="1179"/>
      <point x="420" y="1232"/>
      <point x="310" y="1232" type="curve" smooth="yes"/>
      <point x="174" y="1232"/>
      <point x="103" y="1153"/>
      <point x="103" y="988" type="curve" smooth="yes"/>
      <point x="103" y="505" type="line"/>
    </contour>
    <contour>
      <point x="626" y="-17" type="curve" smooth="yes"/>
      <point x="805" y="-17"/>
      <point x="893" y="79"/>
      <point x="893" y="273" type="curve" smooth="yes"/>
      <point x="893" y="318" type="line" smooth="yes"/>
      <point x="893" y="439"/>
      <point x="852" y="523"/>
      <point x="781" y="653" type="curve" smooth="yes"/>
      <point x="700" y="803" type="line"/>
      <point x="575" y="717" type="line"/>
      <point x="659" y="554" type="line" smooth="yes"/>
      <point x="704" y="466"/>
      <point x="725" y="409"/>
      <point x="725" y="318" type="curve" smooth="yes"/>
      <point x="725" y="271" type="line" smooth="yes"/>
      <point x="725" y="174"/>
      <point x="693" y="130"/>
      <point x="626" y="130" type="curve" smooth="yes"/>
      <point x="559" y="130"/>
      <point x="528" y="174"/>
      <point x="528" y="271" type="curve" smooth="yes"/>
      <point x="528" y="318" type="line" smooth="yes"/>
      <point x="528" y="408"/>
      <point x="548" y="465"/>
      <point x="593" y="552" type="curve" smooth="yes"/>
      <point x="669" y="698" type="line"/>
      <point x="545" y="786" type="line"/>
      <point x="473" y="651" type="line" smooth="yes"/>
      <point x="402" y="517"/>
      <point x="359" y="438"/>
      <point x="359" y="316" type="curve" smooth="yes"/>
      <point x="359" y="273" type="line" smooth="yes"/>
      <point x="359" y="79"/>
      <point x="448" y="-17"/>
    </contour>
    <contour>
      <point x="327" y="-223" type="curve" smooth="yes"/>
      <point x="383" y="-223"/>
      <point x="408" y="-187"/>
      <point x="408" y="-122" type="curve" smooth="yes"/>
      <point x="408" y="-104" type="line" smooth="yes"/>
      <point x="408" y="-40"/>
      <point x="383" y="-3"/>
      <point x="327" y="-3" type="curve" smooth="yes"/>
      <point x="272" y="-3"/>
      <point x="247" y="-40"/>
      <point x="247" y="-104" type="curve" smooth="yes"/>
      <point x="247" y="-122" type="line" smooth="yes"/>
      <point x="247" y="-187"/>
      <point x="272" y="-223"/>
    </contour>
    <contour>
      <point x="127" y="-68" type="curve" smooth="yes"/>
      <point x="183" y="-68"/>
      <point x="208" y="-32"/>
      <point x="208" y="33" type="curve" smooth="yes"/>
      <point x="208" y="51" type="line" smooth="yes"/>
      <point x="208" y="115"/>
      <point x="183" y="152"/>
      <point x="127" y="152" type="curve" smooth="yes"/>
      <point x="72" y="152"/>
      <point x="47" y="115"/>
      <point x="47" y="51" type="curve" smooth="yes"/>
      <point x="47" y="33" type="line" smooth="yes"/>
      <point x="47" y="-32"/>
      <point x="72" y="-68"/>
    </contour>
    <contour>
      <point x="136" y="-401" type="curve" smooth="yes"/>
      <point x="192" y="-401"/>
      <point x="217" y="-365"/>
      <point x="217" y="-300" type="curve" smooth="yes"/>
      <point x="217" y="-282" type="line" smooth="yes"/>
      <point x="217" y="-218"/>
      <point x="192" y="-181"/>
      <point x="136" y="-181" type="curve" smooth="yes"/>
      <point x="81" y="-181"/>
      <point x="56" y="-218"/>
      <point x="56" y="-282" type="curve" smooth="yes"/>
      <point x="56" y="-300" type="line" smooth="yes"/>
      <point x="56" y="-365"/>
      <point x="81" y="-401"/>
    </contour>
  </outline>
</glyph>
<glyph name="BaBa.gj" format="2">
  <advance width="1850"/>
  <anchor x="1649" y="-63" name="Bottom"/>
  <anchor x="1632" y="1273" name="Top"/>
  <anchor x="1661" y="1273" name="Top2"/>
  <outline>
    <contour>
      <point x="583" y="574" type="line"/>
      <point x="943" y="574" type="line"/>
      <point x="931" y="721" type="line"/>
      <point x="583" y="721" type="line"/>
    </contour>
    <contour>
      <point x="363" y="151" type="curve" smooth="yes"/>
      <point x="553" y="151"/>
      <point x="641" y="246"/>
      <point x="641" y="466" type="curve" smooth="yes"/>
      <point x="641" y="1010" type="line"/>
      <point x="473" y="1010" type="line"/>
      <point x="473" y="453" type="line" smooth="yes"/>
      <point x="473" y="355"/>
      <point x="441" y="306"/>
      <point x="367" y="306" type="curve" smooth="yes"/>
      <point x="291" y="306"/>
      <point x="261" y="355"/>
      <point x="261" y="453" type="curve" smooth="yes"/>
      <point x="261" y="844" type="line" smooth="yes"/>
      <point x="261" y="1011"/>
      <point x="285" y="1112"/>
      <point x="367" y="1212" type="curve"/>
      <point x="187" y="1212" type="line"/>
      <point x="111" y="1125"/>
      <point x="86" y="1025"/>
      <point x="86" y="851" type="curve" smooth="yes"/>
      <point x="86" y="466" type="line" smooth="yes"/>
      <point x="86" y="246"/>
      <point x="173" y="151"/>
    </contour>
    <contour>
      <point x="1574" y="508" type="line"/>
      <point x="1749" y="508" type="line"/>
      <point x="1749" y="1212" type="line"/>
      <point x="1574" y="1212" type="line"/>
    </contour>
    <contour>
      <point x="1574" y="0" type="line"/>
      <point x="1749" y="0" type="line"/>
      <point x="1749" y="666" type="line"/>
      <point x="1574" y="666" type="line"/>
    </contour>
    <contour>
      <point x="1323" y="574" type="line"/>
      <point x="1695" y="574" type="line"/>
      <point x="1683" y="721" type="line"/>
      <point x="1323" y="721" type="line"/>
    </contour>
    <contour>
      <point x="1103" y="151" type="curve" smooth="yes"/>
      <point x="1293" y="151"/>
      <point x="1381" y="246"/>
      <point x="1381" y="466" type="curve" smooth="yes"/>
      <point x="1381" y="1010" type="line"/>
      <point x="1213" y="1010" type="line"/>
      <point x="1213" y="453" type="line" smooth="yes"/>
      <point x="1213" y="355"/>
      <point x="1181" y="306"/>
      <point x="1107" y="306" type="curve" smooth="yes"/>
      <point x="1031" y="306"/>
      <point x="1001" y="355"/>
      <point x="1001" y="453" type="curve" smooth="yes"/>
      <point x="1001" y="844" type="line" smooth="yes"/>
      <point x="1001" y="1011"/>
      <point x="1025" y="1112"/>
      <point x="1107" y="1212" type="curve"/>
      <point x="927" y="1212" type="line"/>
      <point x="851" y="1125"/>
      <point x="826" y="1025"/>
      <point x="826" y="851" type="curve" smooth="yes"/>
      <point x="826" y="466" type="line" smooth="yes"/>
      <point x="826" y="246"/>
      <point x="913" y="151"/>
    </contour>
  </outline>
</glyph>
<glyph name="BaBha.gj" format="2">
  <advance width="1890"/>
  <anchor x="1689" y="-63" name="Bottom"/>
  <anchor x="1672" y="1273" name="Top"/>
  <anchor x="1701" y="1273" name="Top2"/>
  <outline>
    <contour>
      <point x="583" y="574" type="line"/>
      <point x="943" y="574" type="line"/>
      <point x="931" y="721" type="line"/>
      <point x="583" y="721" type="line"/>
    </contour>
    <contour>
      <point x="363" y="151" type="curve" smooth="yes"/>
      <point x="553" y="151"/>
      <point x="641" y="246"/>
      <point x="641" y="466" type="curve" smooth="yes"/>
      <point x="641" y="1010" type="line"/>
      <point x="473" y="1010" type="line"/>
      <point x="473" y="453" type="line" smooth="yes"/>
      <point x="473" y="355"/>
      <point x="441" y="306"/>
      <point x="367" y="306" type="curve" smooth="yes"/>
      <point x="291" y="306"/>
      <point x="261" y="355"/>
      <point x="261" y="453" type="curve" smooth="yes"/>
      <point x="261" y="844" type="line" smooth="yes"/>
      <point x="261" y="1011"/>
      <point x="285" y="1112"/>
      <point x="367" y="1212" type="curve"/>
      <point x="187" y="1212" type="line"/>
      <point x="111" y="1125"/>
      <point x="86" y="1025"/>
      <point x="86" y="851" type="curve" smooth="yes"/>
      <point x="86" y="466" type="line" smooth="yes"/>
      <point x="86" y="246"/>
      <point x="173" y="151"/>
    </contour>
    <contour>
      <point x="1614" y="508" type="line"/>
      <point x="1789" y="508" type="line"/>
      <point x="1789" y="1212" type="line"/>
      <point x="1614" y="1212" type="line"/>
    </contour>
    <contour>
      <point x="1614" y="0" type="line"/>
      <point x="1789" y="0" type="line"/>
      <point x="1789" y="666" type="line"/>
      <point x="1614" y="666" type="line"/>
    </contour>
    <contour>
      <point x="1341" y="523" type="line"/>
      <point x="1688" y="523" type="line"/>
      <point x="1676" y="670" type="line"/>
      <point x="1341" y="670" type="line"/>
    </contour>
    <contour>
      <point x="962" y="0" type="curve"/>
      <point x="1146" y="0" type="line"/>
      <point x="1048" y="146"/>
      <point x="1007" y="301"/>
      <point x="1007" y="512" type="curve" smooth="yes"/>
      <point x="1007" y="859" type="line" smooth="yes"/>
      <point x="1007" y="1010"/>
      <point x="1060" y="1079"/>
      <point x="1160" y="1079" type="curve" smooth="yes"/>
      <point x="1203" y="1079"/>
      <point x="1239" y="1069"/>
      <point x="1275" y="1042" type="curve"/>
      <point x="1243" y="1105" type="line"/>
      <point x="1243" y="586" type="line"/>
      <point x="1414" y="586" type="line"/>
      <point x="1414" y="1160" type="line"/>
      <point x="1338" y="1210"/>
      <point x="1256" y="1232"/>
      <point x="1159" y="1232" type="curve" smooth="yes"/>
      <point x="938" y="1232"/>
      <point x="832" y="1110"/>
      <point x="832" y="857" type="curve" smooth="yes"/>
      <point x="832" y="517" type="line" smooth="yes"/>
      <point x="832" y="285"/>
      <point x="870" y="128"/>
    </contour>
    <contour>
      <point x="1269" y="166" type="curve"/>
      <point x="1411" y="166" type="line"/>
      <point x="1411" y="662" type="line"/>
      <point x="1254" y="662" type="line"/>
      <point x="1178" y="605" type="line"/>
      <point x="1190" y="436"/>
      <point x="1220" y="310"/>
    </contour>
  </outline>
</glyph>
<glyph name="BaDa.gj" format="2">
  <advance width="1336"/>
  <anchor x="1108" y="-63" name="Bottom"/>
  <anchor x="1149" y="1273" name="Top"/>
  <anchor x="1085" y="1273" name="Top2"/>
  <outline>
    <contour>
      <point x="583" y="540" type="line"/>
      <point x="1026" y="540" type="line"/>
      <point x="1014" y="687" type="line"/>
      <point x="583" y="687" type="line"/>
    </contour>
    <contour>
      <point x="363" y="151" type="curve" smooth="yes"/>
      <point x="553" y="151"/>
      <point x="641" y="246"/>
      <point x="641" y="466" type="curve" smooth="yes"/>
      <point x="641" y="1010" type="line"/>
      <point x="473" y="1010" type="line"/>
      <point x="473" y="453" type="line" smooth="yes"/>
      <point x="473" y="355"/>
      <point x="441" y="306"/>
      <point x="367" y="306" type="curve" smooth="yes"/>
      <point x="291" y="306"/>
      <point x="261" y="355"/>
      <point x="261" y="453" type="curve" smooth="yes"/>
      <point x="261" y="844" type="line" smooth="yes"/>
      <point x="261" y="1011"/>
      <point x="285" y="1112"/>
      <point x="367" y="1212" type="curve"/>
      <point x="187" y="1212" type="line"/>
      <point x="111" y="1125"/>
      <point x="86" y="1025"/>
      <point x="86" y="851" type="curve" smooth="yes"/>
      <point x="86" y="466" type="line" smooth="yes"/>
      <point x="86" y="246"/>
      <point x="173" y="151"/>
    </contour>
    <contour>
      <point x="1106" y="-17" type="curve" smooth="yes"/>
      <point x="1186" y="-17"/>
      <point x="1252" y="12"/>
      <point x="1285" y="41" type="curve"/>
      <point x="1298" y="208" type="line"/>
      <point x="1256" y="165"/>
      <point x="1200" y="138"/>
      <point x="1139" y="138" type="curve" smooth="yes"/>
      <point x="1045" y="138"/>
      <point x="993" y="191"/>
      <point x="993" y="310" type="curve" smooth="yes"/>
      <point x="993" y="377" type="line" smooth="yes"/>
      <point x="993" y="497"/>
      <point x="1046" y="547"/>
      <point x="1137" y="550" type="curve" smooth="yes"/>
      <point x="1245" y="554" type="line"/>
      <point x="1245" y="702" type="line"/>
      <point x="1137" y="706" type="line" smooth="yes"/>
      <point x="1056" y="709"/>
      <point x="1006" y="755"/>
      <point x="1006" y="858" type="curve" smooth="yes"/>
      <point x="1006" y="926" type="line" smooth="yes"/>
      <point x="1006" y="1031"/>
      <point x="1054" y="1082"/>
      <point x="1141" y="1082" type="curve" smooth="yes"/>
      <point x="1196" y="1082"/>
      <point x="1240" y="1061"/>
      <point x="1281" y="1033" type="curve"/>
      <point x="1269" y="1184" type="line"/>
      <point x="1232" y="1209"/>
      <point x="1169" y="1232"/>
      <point x="1097" y="1232" type="curve" smooth="yes"/>
      <point x="922" y="1232"/>
      <point x="829" y="1141"/>
      <point x="829" y="949" type="curve" smooth="yes"/>
      <point x="829" y="877" type="line" smooth="yes"/>
      <point x="829" y="730"/>
      <point x="887" y="648"/>
      <point x="992" y="629" type="curve"/>
      <point x="992" y="624" type="line"/>
      <point x="879" y="602"/>
      <point x="816" y="509"/>
      <point x="816" y="355" type="curve" smooth="yes"/>
      <point x="816" y="284" type="line" smooth="yes"/>
      <point x="816" y="92"/>
      <point x="907" y="-17"/>
    </contour>
  </outline>
</glyph>
<glyph name="BaDda.gj" format="2">
  <advance width="1381"/>
  <anchor x="1071" y="-63" name="Bottom"/>
  <anchor x="1141" y="1273" name="Top"/>
  <anchor x="1065" y="1273" name="Top2"/>
  <outline>
    <contour>
      <point x="583" y="604" type="line"/>
      <point x="1020" y="604" type="line"/>
      <point x="1008" y="751" type="line"/>
      <point x="583" y="751" type="line"/>
    </contour>
    <contour>
      <point x="363" y="151" type="curve" smooth="yes"/>
      <point x="553" y="151"/>
      <point x="641" y="246"/>
      <point x="641" y="466" type="curve" smooth="yes"/>
      <point x="641" y="1010" type="line"/>
      <point x="473" y="1010" type="line"/>
      <point x="473" y="453" type="line" smooth="yes"/>
      <point x="473" y="355"/>
      <point x="441" y="306"/>
      <point x="367" y="306" type="curve" smooth="yes"/>
      <point x="291" y="306"/>
      <point x="261" y="355"/>
      <point x="261" y="453" type="curve" smooth="yes"/>
      <point x="261" y="844" type="line" smooth="yes"/>
      <point x="261" y="1011"/>
      <point x="285" y="1112"/>
      <point x="367" y="1212" type="curve"/>
      <point x="187" y="1212" type="line"/>
      <point x="111" y="1125"/>
      <point x="86" y="1025"/>
      <point x="86" y="851" type="curve" smooth="yes"/>
      <point x="86" y="466" type="line" smooth="yes"/>
      <point x="86" y="246"/>
      <point x="173" y="151"/>
    </contour>
    <contour>
      <point x="1020" y="-17" type="curve" smooth="yes"/>
      <point x="1221" y="-17"/>
      <point x="1321" y="86"/>
      <point x="1321" y="299" type="curve" smooth="yes"/>
      <point x="1321" y="362" type="line" smooth="yes"/>
      <point x="1321" y="532"/>
      <point x="1271" y="599"/>
      <point x="1150" y="682" type="curve" smooth="yes"/>
      <point x="1108" y="711" type="line" smooth="yes"/>
      <point x="1014" y="776"/>
      <point x="987" y="814"/>
      <point x="987" y="895" type="curve" smooth="yes"/>
      <point x="987" y="927" type="line" smooth="yes"/>
      <point x="987" y="1034"/>
      <point x="1033" y="1080"/>
      <point x="1132" y="1080" type="curve" smooth="yes"/>
      <point x="1192" y="1080"/>
      <point x="1240" y="1060"/>
      <point x="1285" y="1033" type="curve"/>
      <point x="1273" y="1186" type="line"/>
      <point x="1234" y="1210"/>
      <point x="1167" y="1232"/>
      <point x="1091" y="1232" type="curve" smooth="yes"/>
      <point x="904" y="1232"/>
      <point x="810" y="1133"/>
      <point x="810" y="942" type="curve" smooth="yes"/>
      <point x="810" y="899" type="line" smooth="yes"/>
      <point x="810" y="769"/>
      <point x="854" y="687"/>
      <point x="995" y="591" type="curve" smooth="yes"/>
      <point x="1033" y="565" type="line" smooth="yes"/>
      <point x="1119" y="506"/>
      <point x="1144" y="467"/>
      <point x="1144" y="368" type="curve" smooth="yes"/>
      <point x="1144" y="315" type="line" smooth="yes"/>
      <point x="1144" y="195"/>
      <point x="1091" y="138"/>
      <point x="991" y="138" type="curve" smooth="yes"/>
      <point x="919" y="138"/>
      <point x="856" y="165"/>
      <point x="801" y="208" type="curve"/>
      <point x="813" y="41" type="line"/>
      <point x="860" y="11"/>
      <point x="930" y="-17"/>
    </contour>
  </outline>
</glyph>
<glyph name="BaDha.gj" format="2">
  <advance width="1558"/>
  <anchor x="1356" y="-63" name="Bottom"/>
  <anchor x="1339" y="1273" name="Top"/>
  <anchor x="1369" y="1273" name="Top2"/>
  <outline>
    <contour>
      <point x="583" y="572" type="line"/>
      <point x="1007" y="572" type="line"/>
      <point x="995" y="719" type="line"/>
      <point x="583" y="719" type="line"/>
    </contour>
    <contour>
      <point x="363" y="151" type="curve" smooth="yes"/>
      <point x="553" y="151"/>
      <point x="641" y="246"/>
      <point x="641" y="466" type="curve" smooth="yes"/>
      <point x="641" y="1010" type="line"/>
      <point x="473" y="1010" type="line"/>
      <point x="473" y="453" type="line" smooth="yes"/>
      <point x="473" y="355"/>
      <point x="441" y="306"/>
      <point x="367" y="306" type="curve" smooth="yes"/>
      <point x="291" y="306"/>
      <point x="261" y="355"/>
      <point x="261" y="453" type="curve" smooth="yes"/>
      <point x="261" y="844" type="line" smooth="yes"/>
      <point x="261" y="1011"/>
      <point x="285" y="1112"/>
      <point x="367" y="1212" type="curve"/>
      <point x="187" y="1212" type="line"/>
      <point x="111" y="1125"/>
      <point x="86" y="1025"/>
      <point x="86" y="851" type="curve" smooth="yes"/>
      <point x="86" y="466" type="line" smooth="yes"/>
      <point x="86" y="246"/>
      <point x="173" y="151"/>
    </contour>
    <contour>
      <point x="1072" y="107" type="curve" smooth="yes"/>
      <point x="1191" y="107"/>
      <point x="1258" y="167"/>
      <point x="1274" y="251" type="curve"/>
      <point x="1297" y="251" type="line"/>
      <point x="1285" y="401" type="line"/>
      <point x="1268" y="303"/>
      <point x="1210" y="261"/>
      <point x="1127" y="261" type="curve" smooth="yes"/>
      <point x="1036" y="261"/>
      <point x="989" y="317"/>
      <point x="989" y="432" type="curve" smooth="yes"/>
      <point x="989" y="461" type="line" smooth="yes"/>
      <point x="989" y="571"/>
      <point x="1036" y="620"/>
      <point x="1129" y="624" type="curve" smooth="yes"/>
      <point x="1175" y="626" type="line"/>
      <point x="1175" y="771" type="line"/>
      <point x="1129" y="774" type="line" smooth="yes"/>
      <point x="1037" y="780"/>
      <point x="993" y="826"/>
      <point x="993" y="936" type="curve" smooth="yes"/>
      <point x="993" y="948" type="line" smooth="yes"/>
      <point x="993" y="1055"/>
      <point x="1019" y="1175"/>
      <point x="1047" y="1287" type="curve"/>
      <point x="1047" y="1292" type="line"/>
      <point x="875" y="1292" type="line"/>
      <point x="843" y="1179"/>
      <point x="816" y="1060"/>
      <point x="816" y="951" type="curve" smooth="yes"/>
      <point x="816" y="939" type="line" smooth="yes"/>
      <point x="816" y="795"/>
      <point x="869" y="716"/>
      <point x="982" y="700" type="curve"/>
      <point x="982" y="696" type="line"/>
      <point x="865" y="675"/>
      <point x="811" y="590"/>
      <point x="811" y="443" type="curve" smooth="yes"/>
      <point x="811" y="404" type="line" smooth="yes"/>
      <point x="811" y="216"/>
      <point x="897" y="107"/>
    </contour>
    <contour>
      <point x="1282" y="508" type="line"/>
      <point x="1457" y="508" type="line"/>
      <point x="1457" y="1212" type="line"/>
      <point x="1282" y="1212" type="line"/>
    </contour>
    <contour>
      <point x="1282" y="0" type="line"/>
      <point x="1457" y="0" type="line"/>
      <point x="1457" y="666" type="line"/>
      <point x="1282" y="666" type="line"/>
    </contour>
  </outline>
</glyph>
<glyph name="BaDhaVa.gj" format="2">
  <advance width="1990"/>
  <anchor x="1789" y="-63" name="Bottom"/>
  <anchor x="1772" y="1273" name="Top"/>
  <anchor x="1801" y="1273" name="Top2"/>
  <outline>
    <contour>
      <point x="583" y="574" type="line"/>
      <point x="1036" y="574" type="line"/>
      <point x="1024" y="721" type="line"/>
      <point x="583" y="721" type="line"/>
    </contour>
    <contour>
      <point x="363" y="151" type="curve" smooth="yes"/>
      <point x="553" y="151"/>
      <point x="641" y="246"/>
      <point x="641" y="466" type="curve" smooth="yes"/>
      <point x="641" y="1010" type="line"/>
      <point x="473" y="1010" type="line"/>
      <point x="473" y="453" type="line" smooth="yes"/>
      <point x="473" y="355"/>
      <point x="441" y="306"/>
      <point x="367" y="306" type="curve" smooth="yes"/>
      <point x="291" y="306"/>
      <point x="261" y="355"/>
      <point x="261" y="453" type="curve" smooth="yes"/>
      <point x="261" y="844" type="line" smooth="yes"/>
      <point x="261" y="1011"/>
      <point x="285" y="1112"/>
      <point x="367" y="1212" type="curve"/>
      <point x="187" y="1212" type="line"/>
      <point x="111" y="1125"/>
      <point x="86" y="1025"/>
      <point x="86" y="851" type="curve" smooth="yes"/>
      <point x="86" y="466" type="line" smooth="yes"/>
      <point x="86" y="246"/>
      <point x="173" y="151"/>
    </contour>
    <contour>
      <point x="1113" y="107" type="curve" smooth="yes"/>
      <point x="1284" y="107"/>
      <point x="1349" y="206"/>
      <point x="1368" y="324" type="curve"/>
      <point x="1322" y="401" type="line"/>
      <point x="1304" y="303"/>
      <point x="1240" y="261"/>
      <point x="1154" y="261" type="curve" smooth="yes"/>
      <point x="1059" y="261"/>
      <point x="1012" y="317"/>
      <point x="1012" y="432" type="curve" smooth="yes"/>
      <point x="1012" y="461" type="line" smooth="yes"/>
      <point x="1012" y="571"/>
      <point x="1059" y="620"/>
      <point x="1152" y="624" type="curve" smooth="yes"/>
      <point x="1198" y="626" type="line"/>
      <point x="1198" y="771" type="line"/>
      <point x="1152" y="774" type="line" smooth="yes"/>
      <point x="1060" y="780"/>
      <point x="1016" y="826"/>
      <point x="1016" y="936" type="curve" smooth="yes"/>
      <point x="1016" y="948" type="line" smooth="yes"/>
      <point x="1016" y="1055"/>
      <point x="1042" y="1175"/>
      <point x="1070" y="1287" type="curve"/>
      <point x="1070" y="1292" type="line"/>
      <point x="898" y="1292" type="line"/>
      <point x="866" y="1179"/>
      <point x="839" y="1060"/>
      <point x="839" y="951" type="curve" smooth="yes"/>
      <point x="839" y="939" type="line" smooth="yes"/>
      <point x="839" y="795"/>
      <point x="892" y="716"/>
      <point x="1005" y="700" type="curve"/>
      <point x="1005" y="696" type="line"/>
      <point x="888" y="675"/>
      <point x="834" y="590"/>
      <point x="834" y="443" type="curve" smooth="yes"/>
      <point x="834" y="404" type="line" smooth="yes"/>
      <point x="834" y="207"/>
      <point x="927" y="107"/>
    </contour>
    <contour>
      <point x="1524" y="182" type="curve" smooth="yes"/>
      <point x="1627" y="182"/>
      <point x="1688" y="240"/>
      <point x="1706" y="320" type="curve"/>
      <point x="1722" y="320" type="line"/>
      <point x="1718" y="473" type="line"/>
      <point x="1704" y="379"/>
      <point x="1656" y="337"/>
      <point x="1588" y="337" type="curve" smooth="yes"/>
      <point x="1503" y="337"/>
      <point x="1463" y="390"/>
      <point x="1463" y="506" type="curve" smooth="yes"/>
      <point x="1463" y="897" type="line" smooth="yes"/>
      <point x="1463" y="1009"/>
      <point x="1495" y="1062"/>
      <point x="1576" y="1062" type="curve" smooth="yes"/>
      <point x="1592" y="1062"/>
      <point x="1605" y="1060"/>
      <point x="1620" y="1057" type="curve"/>
      <point x="1610" y="1197" type="line"/>
      <point x="1587" y="1206"/>
      <point x="1558" y="1212"/>
      <point x="1527" y="1212" type="curve" smooth="yes"/>
      <point x="1362" y="1212"/>
      <point x="1288" y="1114"/>
      <point x="1288" y="902" type="curve" smooth="yes"/>
      <point x="1288" y="486" type="line" smooth="yes"/>
      <point x="1288" y="295"/>
      <point x="1352" y="182"/>
    </contour>
    <contour>
      <point x="1714" y="508" type="line"/>
      <point x="1889" y="508" type="line"/>
      <point x="1889" y="1212" type="line"/>
      <point x="1714" y="1212" type="line"/>
    </contour>
    <contour>
      <point x="1714" y="0" type="line"/>
      <point x="1889" y="0" type="line"/>
      <point x="1889" y="666" type="line"/>
      <point x="1714" y="666" type="line"/>
    </contour>
  </outline>
</glyph>
<glyph name="BaHa.gj" format="2">
  <advance width="1463"/>
  <anchor x="1167" y="-66" name="Bottom"/>
  <anchor x="1183" y="1273" name="Top"/>
  <anchor x="1117" y="1273" name="Top2"/>
  <outline>
    <contour>
      <point x="583" y="676" type="line"/>
      <point x="1059" y="676" type="line"/>
      <point x="1047" y="823" type="line"/>
      <point x="583" y="823" type="line"/>
    </contour>
    <contour>
      <point x="363" y="151" type="curve" smooth="yes"/>
      <point x="553" y="151"/>
      <point x="641" y="246"/>
      <point x="641" y="466" type="curve" smooth="yes"/>
      <point x="641" y="1010" type="line"/>
      <point x="473" y="1010" type="line"/>
      <point x="473" y="453" type="line" smooth="yes"/>
      <point x="473" y="355"/>
      <point x="441" y="306"/>
      <point x="367" y="306" type="curve" smooth="yes"/>
      <point x="291" y="306"/>
      <point x="261" y="355"/>
      <point x="261" y="453" type="curve" smooth="yes"/>
      <point x="261" y="844" type="line" smooth="yes"/>
      <point x="261" y="1011"/>
      <point x="285" y="1112"/>
      <point x="367" y="1212" type="curve"/>
      <point x="187" y="1212" type="line"/>
      <point x="111" y="1125"/>
      <point x="86" y="1025"/>
      <point x="86" y="851" type="curve" smooth="yes"/>
      <point x="86" y="466" type="line" smooth="yes"/>
      <point x="86" y="246"/>
      <point x="173" y="151"/>
    </contour>
    <contour>
      <point x="1170" y="-17" type="curve" smooth="yes"/>
      <point x="1260" y="-17"/>
      <point x="1330" y="7"/>
      <point x="1379" y="35" type="curve"/>
      <point x="1392" y="193" type="line"/>
      <point x="1334" y="161"/>
      <point x="1275" y="138"/>
      <point x="1197" y="138" type="curve" smooth="yes"/>
      <point x="1059" y="138"/>
      <point x="997" y="216"/>
      <point x="997" y="386" type="curve" smooth="yes"/>
      <point x="997" y="450"/>
      <point x="997" y="512"/>
      <point x="997" y="584" type="curve"/>
      <point x="832" y="584" type="line"/>
      <point x="825" y="503"/>
      <point x="822" y="434"/>
      <point x="822" y="361" type="curve" smooth="yes"/>
      <point x="822" y="107"/>
      <point x="936" y="-17"/>
    </contour>
    <contour>
      <point x="1221" y="323" type="curve"/>
      <point x="1389" y="323" type="line"/>
      <point x="1400" y="393"/>
      <point x="1405" y="447"/>
      <point x="1405" y="503" type="curve" smooth="yes"/>
      <point x="1405" y="661"/>
      <point x="1350" y="733"/>
      <point x="1192" y="786" type="curve" smooth="yes"/>
      <point x="1156" y="798" type="line" smooth="yes"/>
      <point x="1057" y="831"/>
      <point x="1026" y="869"/>
      <point x="1026" y="939" type="curve" smooth="yes"/>
      <point x="1026" y="948" type="line" smooth="yes"/>
      <point x="1026" y="1039"/>
      <point x="1077" y="1079"/>
      <point x="1167" y="1079" type="curve" smooth="yes"/>
      <point x="1235" y="1079"/>
      <point x="1288" y="1060"/>
      <point x="1333" y="1034" type="curve"/>
      <point x="1322" y="1184" type="line"/>
      <point x="1280" y="1209"/>
      <point x="1211" y="1232"/>
      <point x="1129" y="1232" type="curve" smooth="yes"/>
      <point x="943" y="1232"/>
      <point x="849" y="1138"/>
      <point x="849" y="954" type="curve" smooth="yes"/>
      <point x="849" y="939" type="line" smooth="yes"/>
      <point x="849" y="798"/>
      <point x="915" y="717"/>
      <point x="1041" y="675" type="curve" smooth="yes"/>
      <point x="1089" y="659" type="line" smooth="yes"/>
      <point x="1200" y="622"/>
      <point x="1230" y="580"/>
      <point x="1230" y="465" type="curve" smooth="yes"/>
      <point x="1230" y="422"/>
      <point x="1227" y="376"/>
    </contour>
  </outline>
</glyph>
<glyph name="BaHalf_alt.gj" format="2">
  <advance width="759"/>
  <outline>
    <contour>
      <point x="583" y="574" type="line"/>
      <point x="901" y="574" type="line"/>
      <point x="889" y="721" type="line"/>
      <point x="583" y="721" type="line"/>
    </contour>
    <contour>
      <point x="363" y="151" type="curve" smooth="yes"/>
      <point x="553" y="151"/>
      <point x="641" y="246"/>
      <point x="641" y="466" type="curve" smooth="yes"/>
      <point x="641" y="1010" type="line"/>
      <point x="473" y="1010" type="line"/>
      <point x="473" y="453" type="line" smooth="yes"/>
      <point x="473" y="355"/>
      <point x="441" y="306"/>
      <point x="367" y="306" type="curve" smooth="yes"/>
      <point x="291" y="306"/>
      <point x="261" y="355"/>
      <point x="261" y="453" type="curve" smooth="yes"/>
      <point x="261" y="844" type="line" smooth="yes"/>
      <point x="261" y="1011"/>
      <point x="285" y="1112"/>
      <point x="367" y="1212" type="curve"/>
      <point x="187" y="1212" type="line"/>
      <point x="111" y="1125"/>
      <point x="86" y="1025"/>
      <point x="86" y="851" type="curve" smooth="yes"/>
      <point x="86" y="466" type="line" smooth="yes"/>
      <point x="86" y="246"/>
      <point x="173" y="151"/>
    </contour>
  </outline>
</glyph>
<glyph name="BaJaYa.gj" format="2">
  <advance width="2562"/>
  <anchor x="2361" y="-63" name="Bottom"/>
  <anchor x="2344" y="1273" name="Top"/>
  <anchor x="2373" y="1273" name="Top2"/>
  <outline>
    <contour>
      <point x="583" y="647" type="line"/>
      <point x="926" y="647" type="line"/>
      <point x="914" y="794" type="line"/>
      <point x="583" y="794" type="line"/>
    </contour>
    <contour>
      <point x="363" y="151" type="curve" smooth="yes"/>
      <point x="553" y="151"/>
      <point x="641" y="246"/>
      <point x="641" y="466" type="curve" smooth="yes"/>
      <point x="641" y="1010" type="line"/>
      <point x="473" y="1010" type="line"/>
      <point x="473" y="453" type="line" smooth="yes"/>
      <point x="473" y="355"/>
      <point x="441" y="306"/>
      <point x="367" y="306" type="curve" smooth="yes"/>
      <point x="291" y="306"/>
      <point x="261" y="355"/>
      <point x="261" y="453" type="curve" smooth="yes"/>
      <point x="261" y="844" type="line" smooth="yes"/>
      <point x="261" y="1011"/>
      <point x="285" y="1112"/>
      <point x="367" y="1212" type="curve"/>
      <point x="187" y="1212" type="line"/>
      <point x="111" y="1125"/>
      <point x="86" y="1025"/>
      <point x="86" y="851" type="curve" smooth="yes"/>
      <point x="86" y="466" type="line" smooth="yes"/>
      <point x="86" y="246"/>
      <point x="173" y="151"/>
    </contour>
    <contour>
      <point x="1002" y="478" type="line"/>
      <point x="1002" y="1005" type="line" smooth="yes"/>
      <point x="1002" y="1058"/>
      <point x="1020" y="1082"/>
      <point x="1055" y="1082" type="curve" smooth="yes"/>
      <point x="1089" y="1082"/>
      <point x="1101" y="1062"/>
      <point x="1136" y="994" type="curve" smooth="yes"/>
      <point x="1311" y="651" type="line"/>
      <point x="1428" y="772" type="line"/>
      <point x="1274" y="1068" type="line" smooth="yes"/>
      <point x="1216" y="1179"/>
      <point x="1155" y="1232"/>
      <point x="1045" y="1232" type="curve" smooth="yes"/>
      <point x="909" y="1232"/>
      <point x="838" y="1153"/>
      <point x="838" y="988" type="curve" smooth="yes"/>
      <point x="838" y="505" type="line"/>
    </contour>
    <contour>
      <point x="1361" y="-17" type="curve" smooth="yes"/>
      <point x="1540" y="-17"/>
      <point x="1628" y="79"/>
      <point x="1628" y="273" type="curve" smooth="yes"/>
      <point x="1628" y="318" type="line" smooth="yes"/>
      <point x="1628" y="439"/>
      <point x="1587" y="523"/>
      <point x="1516" y="653" type="curve" smooth="yes"/>
      <point x="1435" y="803" type="line"/>
      <point x="1310" y="717" type="line"/>
      <point x="1394" y="554" type="line" smooth="yes"/>
      <point x="1439" y="466"/>
      <point x="1460" y="409"/>
      <point x="1460" y="318" type="curve" smooth="yes"/>
      <point x="1460" y="271" type="line" smooth="yes"/>
      <point x="1460" y="174"/>
      <point x="1428" y="130"/>
      <point x="1361" y="130" type="curve" smooth="yes"/>
      <point x="1294" y="130"/>
      <point x="1263" y="174"/>
      <point x="1263" y="271" type="curve" smooth="yes"/>
      <point x="1263" y="318" type="line" smooth="yes"/>
      <point x="1263" y="408"/>
      <point x="1283" y="465"/>
      <point x="1328" y="552" type="curve" smooth="yes"/>
      <point x="1404" y="698" type="line"/>
      <point x="1280" y="786" type="line"/>
      <point x="1208" y="651" type="line" smooth="yes"/>
      <point x="1137" y="517"/>
      <point x="1094" y="438"/>
      <point x="1094" y="316" type="curve" smooth="yes"/>
      <point x="1094" y="273" type="line" smooth="yes"/>
      <point x="1094" y="79"/>
      <point x="1183" y="-17"/>
    </contour>
    <contour>
      <point x="1518" y="679" type="line"/>
      <point x="1793" y="677" type="line"/>
      <point x="1782" y="820" type="line"/>
      <point x="1559" y="818" type="line"/>
      <point x="1282" y="796" type="line"/>
      <point x="1282" y="684" type="line"/>
    </contour>
    <contour>
      <point x="2056" y="140" type="curve" smooth="yes"/>
      <point x="2189" y="140"/>
      <point x="2255" y="200"/>
      <point x="2278" y="288" type="curve"/>
      <point x="2294" y="288" type="line"/>
      <point x="2292" y="448" type="line"/>
      <point x="2268" y="354"/>
      <point x="2220" y="295"/>
      <point x="2107" y="295" type="curve" smooth="yes"/>
      <point x="1988" y="295"/>
      <point x="1932" y="369"/>
      <point x="1932" y="516" type="curve" smooth="yes"/>
      <point x="1932" y="576"/>
      <point x="1933" y="617"/>
      <point x="1934" y="670" type="curve"/>
      <point x="1817" y="560" type="line"/>
      <point x="1917" y="560" type="line" smooth="yes"/>
      <point x="2062" y="560"/>
      <point x="2132" y="649"/>
      <point x="2132" y="830" type="curve" smooth="yes"/>
      <point x="2132" y="968" type="line" smooth="yes"/>
      <point x="2132" y="1149"/>
      <point x="2062" y="1232"/>
      <point x="1919" y="1232" type="curve" smooth="yes"/>
      <point x="1861" y="1232"/>
      <point x="1813" y="1216"/>
      <point x="1776" y="1194" type="curve"/>
      <point x="1765" y="1049" type="line"/>
      <point x="1795" y="1068"/>
      <point x="1825" y="1082"/>
      <point x="1865" y="1082" type="curve" smooth="yes"/>
      <point x="1929" y="1082"/>
      <point x="1961" y="1043"/>
      <point x="1961" y="952" type="curve" smooth="yes"/>
      <point x="1961" y="846" type="line" smooth="yes"/>
      <point x="1961" y="740"/>
      <point x="1920" y="691"/>
      <point x="1827" y="690" type="curve" smooth="yes"/>
      <point x="1760" y="689" type="line"/>
      <point x="1756" y="635"/>
      <point x="1755" y="582"/>
      <point x="1755" y="506" type="curve" smooth="yes"/>
      <point x="1755" y="276"/>
      <point x="1850" y="140"/>
    </contour>
    <contour>
      <point x="2286" y="508" type="line"/>
      <point x="2461" y="508" type="line"/>
      <point x="2461" y="1212" type="line"/>
      <point x="2286" y="1212" type="line"/>
    </contour>
    <contour>
      <point x="2286" y="0" type="line"/>
      <point x="2461" y="0" type="line"/>
      <point x="2461" y="666" type="line"/>
      <point x="2286" y="666" type="line"/>
    </contour>
  </outline>
</glyph>
<glyph name="BaJha.gj" format="2">
  <advance width="1634"/>
  <anchor x="1329" y="-63" name="Bottom"/>
  <anchor x="1399" y="1273" name="Top"/>
  <anchor x="1481" y="1273" name="Top2"/>
  <outline>
    <contour>
      <point x="583" y="595" type="line"/>
      <point x="838" y="595" type="line"/>
      <point x="826" y="742" type="line"/>
      <point x="583" y="742" type="line"/>
    </contour>
    <contour>
      <point x="363" y="151" type="curve" smooth="yes"/>
      <point x="553" y="151"/>
      <point x="641" y="246"/>
      <point x="641" y="466" type="curve" smooth="yes"/>
      <point x="641" y="1010" type="line"/>
      <point x="473" y="1010" type="line"/>
      <point x="473" y="453" type="line" smooth="yes"/>
      <point x="473" y="355"/>
      <point x="441" y="306"/>
      <point x="367" y="306" type="curve" smooth="yes"/>
      <point x="291" y="306"/>
      <point x="261" y="355"/>
      <point x="261" y="453" type="curve" smooth="yes"/>
      <point x="261" y="844" type="line" smooth="yes"/>
      <point x="261" y="1011"/>
      <point x="285" y="1112"/>
      <point x="367" y="1212" type="curve"/>
      <point x="187" y="1212" type="line"/>
      <point x="111" y="1125"/>
      <point x="86" y="1025"/>
      <point x="86" y="851" type="curve" smooth="yes"/>
      <point x="86" y="466" type="line" smooth="yes"/>
      <point x="86" y="246"/>
      <point x="173" y="151"/>
    </contour>
    <contour>
      <point x="920" y="150" type="curve" smooth="yes"/>
      <point x="1088" y="150"/>
      <point x="1175" y="244"/>
      <point x="1175" y="452" type="curve" smooth="yes"/>
      <point x="1175" y="943" type="line" smooth="yes"/>
      <point x="1175" y="1141"/>
      <point x="1096" y="1232"/>
      <point x="939" y="1232" type="curve" smooth="yes"/>
      <point x="871" y="1232"/>
      <point x="818" y="1215"/>
      <point x="777" y="1189" type="curve"/>
      <point x="764" y="1042" type="line"/>
      <point x="800" y="1066"/>
      <point x="836" y="1080"/>
      <point x="887" y="1080" type="curve" smooth="yes"/>
      <point x="960" y="1080"/>
      <point x="1000" y="1035"/>
      <point x="1000" y="930" type="curve" smooth="yes"/>
      <point x="1000" y="465" type="line" smooth="yes"/>
      <point x="1000" y="351"/>
      <point x="959" y="304"/>
      <point x="878" y="304" type="curve" smooth="yes"/>
      <point x="828" y="304"/>
      <point x="783" y="322"/>
      <point x="743" y="349" type="curve"/>
      <point x="757" y="189" type="line"/>
      <point x="801" y="164"/>
      <point x="855" y="150"/>
    </contour>
    <contour>
      <point x="1327" y="-17" type="curve" smooth="yes"/>
      <point x="1481" y="-17"/>
      <point x="1557" y="74"/>
      <point x="1557" y="271" type="curve" smooth="yes"/>
      <point x="1557" y="445" type="line" smooth="yes"/>
      <point x="1557" y="638"/>
      <point x="1464" y="725"/>
      <point x="1313" y="730" type="curve"/>
      <point x="1306" y="743" type="line"/>
      <point x="1155" y="743" type="line"/>
      <point x="1155" y="608" type="line"/>
      <point x="1234" y="608" type="line" smooth="yes"/>
      <point x="1339" y="608"/>
      <point x="1384" y="558"/>
      <point x="1384" y="434" type="curve" smooth="yes"/>
      <point x="1384" y="279" type="line" smooth="yes"/>
      <point x="1384" y="175"/>
      <point x="1348" y="130"/>
      <point x="1279" y="130" type="curve" smooth="yes"/>
      <point x="1239" y="130"/>
      <point x="1206" y="139"/>
      <point x="1173" y="154" type="curve"/>
      <point x="1185" y="11" type="line"/>
      <point x="1218" y="-4"/>
      <point x="1265" y="-17"/>
    </contour>
    <contour>
      <point x="1347" y="679" type="line"/>
      <point x="1390" y="755"/>
      <point x="1427" y="830"/>
      <point x="1457" y="908" type="curve" smooth="yes"/>
      <point x="1574" y="1205" type="line"/>
      <point x="1574" y="1212" type="line"/>
      <point x="1389" y="1212" type="line"/>
      <point x="1219" y="718" type="line"/>
    </contour>
  </outline>
</glyph>
<glyph name="BaLa.gj" format="2">
  <advance width="1678"/>
  <anchor x="1477" y="-63" name="Bottom"/>
  <anchor x="1460" y="1273" name="Top"/>
  <anchor x="1489" y="1273" name="Top2"/>
  <outline>
    <contour>
      <point x="583" y="574" type="line"/>
      <point x="933" y="574" type="line"/>
      <point x="921" y="721" type="line"/>
      <point x="583" y="721" type="line"/>
    </contour>
    <contour>
      <point x="363" y="151" type="curve" smooth="yes"/>
      <point x="553" y="151"/>
      <point x="641" y="246"/>
      <point x="641" y="466" type="curve" smooth="yes"/>
      <point x="641" y="1010" type="line"/>
      <point x="473" y="1010" type="line"/>
      <point x="473" y="453" type="line" smooth="yes"/>
      <point x="473" y="355"/>
      <point x="441" y="306"/>
      <point x="367" y="306" type="curve" smooth="yes"/>
      <point x="291" y="306"/>
      <point x="261" y="355"/>
      <point x="261" y="453" type="curve" smooth="yes"/>
      <point x="261" y="844" type="line" smooth="yes"/>
      <point x="261" y="1011"/>
      <point x="285" y="1112"/>
      <point x="367" y="1212" type="curve"/>
      <point x="187" y="1212" type="line"/>
      <point x="111" y="1125"/>
      <point x="86" y="1025"/>
      <point x="86" y="851" type="curve" smooth="yes"/>
      <point x="86" y="466" type="line" smooth="yes"/>
      <point x="86" y="246"/>
      <point x="173" y="151"/>
    </contour>
    <contour>
      <point x="1402" y="508" type="line"/>
      <point x="1577" y="508" type="line"/>
      <point x="1577" y="1212" type="line"/>
      <point x="1402" y="1212" type="line"/>
    </contour>
    <contour>
      <point x="1402" y="0" type="line"/>
      <point x="1577" y="0" type="line"/>
      <point x="1577" y="666" type="line"/>
      <point x="1402" y="666" type="line"/>
    </contour>
    <contour>
      <point x="1145" y="6" type="curve" smooth="yes"/>
      <point x="1197" y="6"/>
      <point x="1242" y="14"/>
      <point x="1279" y="27" type="curve"/>
      <point x="1290" y="175" type="line"/>
      <point x="1262" y="165"/>
      <point x="1228" y="158"/>
      <point x="1187" y="158" type="curve" smooth="yes"/>
      <point x="1077" y="158"/>
      <point x="1022" y="227"/>
      <point x="1022" y="381" type="curve" smooth="yes"/>
      <point x="1022" y="857" type="line" smooth="yes"/>
      <point x="1022" y="1004"/>
      <point x="1077" y="1071"/>
      <point x="1186" y="1071" type="curve" smooth="yes"/>
      <point x="1222" y="1071"/>
      <point x="1257" y="1064"/>
      <point x="1285" y="1055" type="curve"/>
      <point x="1274" y="1199" type="line"/>
      <point x="1234" y="1216"/>
      <point x="1190" y="1223"/>
      <point x="1144" y="1223" type="curve" smooth="yes"/>
      <point x="949" y="1223"/>
      <point x="847" y="1111"/>
      <point x="847" y="875" type="curve" smooth="yes"/>
      <point x="847" y="365" type="line" smooth="yes"/>
      <point x="847" y="122"/>
      <point x="949" y="6"/>
    </contour>
    <contour>
      <point x="1135" y="477" type="line"/>
      <point x="1482" y="670" type="line"/>
      <point x="1482" y="845" type="line"/>
      <point x="1135" y="661" type="line"/>
    </contour>
  </outline>
</glyph>
<glyph name="BaLaYa.gj" format="2">
  <advance width="2210"/>
  <anchor x="2009" y="-63" name="Bottom"/>
  <anchor x="1992" y="1273" name="Top"/>
  <anchor x="2021" y="1273" name="Top2"/>
  <outline>
    <contour>
      <point x="583" y="574" type="line"/>
      <point x="901" y="574" type="line"/>
      <point x="889" y="721" type="line"/>
      <point x="583" y="721" type="line"/>
    </contour>
    <contour>
      <point x="363" y="151" type="curve" smooth="yes"/>
      <point x="553" y="151"/>
      <point x="641" y="246"/>
      <point x="641" y="466" type="curve" smooth="yes"/>
      <point x="641" y="1010" type="line"/>
      <point x="473" y="1010" type="line"/>
      <point x="473" y="453" type="line" smooth="yes"/>
      <point x="473" y="355"/>
      <point x="441" y="306"/>
      <point x="367" y="306" type="curve" smooth="yes"/>
      <point x="291" y="306"/>
      <point x="261" y="355"/>
      <point x="261" y="453" type="curve" smooth="yes"/>
      <point x="261" y="844" type="line" smooth="yes"/>
      <point x="261" y="1011"/>
      <point x="285" y="1112"/>
      <point x="367" y="1212" type="curve"/>
      <point x="187" y="1212" type="line"/>
      <point x="111" y="1125"/>
      <point x="86" y="1025"/>
      <point x="86" y="851" type="curve" smooth="yes"/>
      <point x="86" y="466" type="line" smooth="yes"/>
      <point x="86" y="246"/>
      <point x="173" y="151"/>
    </contour>
    <contour>
      <point x="1150" y="6" type="curve" smooth="yes"/>
      <point x="1202" y="6"/>
      <point x="1247" y="14"/>
      <point x="1284" y="27" type="curve"/>
      <point x="1295" y="175" type="line"/>
      <point x="1267" y="165"/>
      <point x="1233" y="158"/>
      <point x="1192" y="158" type="curve" smooth="yes"/>
      <point x="1082" y="158"/>
      <point x="1027" y="227"/>
      <point x="1027" y="381" type="curve" smooth="yes"/>
      <point x="1027" y="857" type="line" smooth="yes"/>
      <point x="1027" y="1004"/>
      <point x="1082" y="1071"/>
      <point x="1191" y="1071" type="curve" smooth="yes"/>
      <point x="1227" y="1071"/>
      <point x="1262" y="1064"/>
      <point x="1290" y="1055" type="curve"/>
      <point x="1279" y="1199" type="line"/>
      <point x="1239" y="1216"/>
      <point x="1195" y="1223"/>
      <point x="1149" y="1223" type="curve" smooth="yes"/>
      <point x="954" y="1223"/>
      <point x="852" y="1111"/>
      <point x="852" y="875" type="curve" smooth="yes"/>
      <point x="852" y="365" type="line" smooth="yes"/>
      <point x="852" y="122"/>
      <point x="954" y="6"/>
    </contour>
    <contour>
      <point x="1140" y="517" type="line"/>
      <point x="1472" y="517" type="line"/>
      <point x="1473" y="650" type="line"/>
      <point x="1390" y="667"/>
      <point x="1351" y="673"/>
      <point x="1294" y="673" type="curve" smooth="yes"/>
      <point x="1140" y="673" type="line"/>
    </contour>
    <contour>
      <point x="1704" y="140" type="curve" smooth="yes"/>
      <point x="1837" y="140"/>
      <point x="1903" y="200"/>
      <point x="1926" y="288" type="curve"/>
      <point x="1942" y="288" type="line"/>
      <point x="1940" y="448" type="line"/>
      <point x="1916" y="354"/>
      <point x="1868" y="295"/>
      <point x="1755" y="295" type="curve" smooth="yes"/>
      <point x="1636" y="295"/>
      <point x="1580" y="369"/>
      <point x="1580" y="516" type="curve" smooth="yes"/>
      <point x="1580" y="576"/>
      <point x="1581" y="617"/>
      <point x="1582" y="670" type="curve"/>
      <point x="1465" y="560" type="line"/>
      <point x="1565" y="560" type="line" smooth="yes"/>
      <point x="1710" y="560"/>
      <point x="1780" y="649"/>
      <point x="1780" y="830" type="curve" smooth="yes"/>
      <point x="1780" y="968" type="line" smooth="yes"/>
      <point x="1780" y="1149"/>
      <point x="1710" y="1232"/>
      <point x="1567" y="1232" type="curve" smooth="yes"/>
      <point x="1509" y="1232"/>
      <point x="1461" y="1216"/>
      <point x="1424" y="1194" type="curve"/>
      <point x="1413" y="1049" type="line"/>
      <point x="1443" y="1068"/>
      <point x="1473" y="1082"/>
      <point x="1513" y="1082" type="curve" smooth="yes"/>
      <point x="1577" y="1082"/>
      <point x="1609" y="1043"/>
      <point x="1609" y="952" type="curve" smooth="yes"/>
      <point x="1609" y="846" type="line" smooth="yes"/>
      <point x="1609" y="740"/>
      <point x="1568" y="691"/>
      <point x="1475" y="690" type="curve" smooth="yes"/>
      <point x="1408" y="689" type="line"/>
      <point x="1404" y="635"/>
      <point x="1403" y="582"/>
      <point x="1403" y="506" type="curve" smooth="yes"/>
      <point x="1403" y="276"/>
      <point x="1498" y="140"/>
    </contour>
    <contour>
      <point x="1934" y="508" type="line"/>
      <point x="2109" y="508" type="line"/>
      <point x="2109" y="1212" type="line"/>
      <point x="1934" y="1212" type="line"/>
    </contour>
    <contour>
      <point x="1934" y="0" type="line"/>
      <point x="2109" y="0" type="line"/>
      <point x="2109" y="666" type="line"/>
      <point x="1934" y="666" type="line"/>
    </contour>
  </outline>
</glyph>
<glyph name="BaNa.gj" format="2">
  <advance width="1117"/>
  <anchor x="915" y="-73" name="Bottom"/>
  <anchor x="898" y="1282" name="Top"/>
  <anchor x="928" y="1282" name="Top2"/>
  <outline>
    <contour>
      <point x="583" y="661" type="line"/>
      <point x="960" y="661" type="line"/>
      <point x="948" y="808" type="line"/>
      <point x="583" y="808" type="line"/>
    </contour>
    <contour>
      <point x="363" y="318" type="curve" smooth="yes"/>
      <point x="553" y="318"/>
      <point x="641" y="413"/>
      <point x="641" y="633" type="curve" smooth="yes"/>
      <point x="641" y="1041" type="line"/>
      <point x="473" y="1041" type="line"/>
      <point x="473" y="620" type="line" smooth="yes"/>
      <point x="473" y="522"/>
      <point x="441" y="473"/>
      <point x="367" y="473" type="curve" smooth="yes"/>
      <point x="291" y="473"/>
      <point x="261" y="522"/>
      <point x="261" y="620" type="curve" smooth="yes"/>
      <point x="261" y="844" type="line" smooth="yes"/>
      <point x="261" y="1011"/>
      <point x="285" y="1112"/>
      <point x="367" y="1212" type="curve"/>
      <point x="187" y="1212" type="line"/>
      <point x="111" y="1125"/>
      <point x="86" y="1025"/>
      <point x="86" y="851" type="curve" smooth="yes"/>
      <point x="86" y="633" type="line" smooth="yes"/>
      <point x="86" y="413"/>
      <point x="173" y="318"/>
    </contour>
    <contour>
      <point x="564" y="-148" type="curve"/>
      <point x="672" y="-87" type="line"/>
      <point x="548" y="121" type="line"/>
      <point x="527" y="58" type="line"/>
      <point x="963" y="315" type="line"/>
      <point x="909" y="403" type="line"/>
      <point x="781" y="361"/>
      <point x="689" y="317"/>
      <point x="607" y="270" type="curve" smooth="yes"/>
      <point x="401" y="148" type="line"/>
      <point x="366" y="53" type="line"/>
      <point x="425" y="-33"/>
      <point x="478" y="-86"/>
    </contour>
    <contour>
      <point x="846" y="0" type="line"/>
      <point x="1016" y="0" type="line"/>
      <point x="1016" y="354" type="line"/>
      <point x="846" y="354" type="line"/>
    </contour>
    <contour>
      <point x="841" y="338" type="line"/>
      <point x="1016" y="338" type="line"/>
      <point x="1016" y="1212" type="line"/>
      <point x="841" y="1212" type="line"/>
    </contour>
  </outline>
</glyph>
<glyph name="BaRa.gj" format="2">
  <advance width="1122"/>
  <guideline x="834" y="898" angle="90"/>
  <guideline x="846" y="898" angle="90"/>
  <guideline x="528" y="1039" angle="0"/>
  <anchor x="920" y="-63" name="Bottom"/>
  <anchor x="903" y="1273" name="Top"/>
  <anchor x="933" y="1273" name="Top2"/>
  <outline>
    <contour>
      <point x="583" y="627" type="line"/>
      <point x="967" y="627" type="line"/>
      <point x="955" y="774" type="line"/>
      <point x="583" y="774" type="line"/>
    </contour>
    <contour>
      <point x="363" y="258" type="curve" smooth="yes"/>
      <point x="553" y="258"/>
      <point x="641" y="353"/>
      <point x="641" y="573" type="curve" smooth="yes"/>
      <point x="641" y="1030" type="line"/>
      <point x="473" y="1030" type="line"/>
      <point x="473" y="560" type="line" smooth="yes"/>
      <point x="473" y="462"/>
      <point x="441" y="413"/>
      <point x="367" y="413" type="curve" smooth="yes"/>
      <point x="291" y="413"/>
      <point x="261" y="462"/>
      <point x="261" y="560" type="curve" smooth="yes"/>
      <point x="261" y="844" type="line" smooth="yes"/>
      <point x="261" y="1011"/>
      <point x="285" y="1112"/>
      <point x="367" y="1212" type="curve"/>
      <point x="187" y="1212" type="line"/>
      <point x="111" y="1125"/>
      <point x="86" y="1025"/>
      <point x="86" y="851" type="curve" smooth="yes"/>
      <point x="86" y="573" type="line" smooth="yes"/>
      <point x="86" y="353"/>
      <point x="173" y="258"/>
    </contour>
    <contour>
      <point x="352" y="-13" type="line"/>
      <point x="589" y="-13" type="line"/>
      <point x="862" y="271" type="line"/>
      <point x="857" y="445" type="line"/>
      <point x="352" y="6" type="line"/>
    </contour>
    <contour>
      <point x="856" y="0" type="line"/>
      <point x="1021" y="0" type="line"/>
      <point x="1021" y="371" type="line"/>
      <point x="856" y="371" type="line"/>
    </contour>
    <contour>
      <point x="846" y="308" type="line"/>
      <point x="1021" y="308" type="line"/>
      <point x="1021" y="1212" type="line"/>
      <point x="846" y="1212" type="line"/>
    </contour>
  </outline>
</glyph>
<glyph name="BaSa.gj" format="2">
  <advance width="1662"/>
  <anchor x="1461" y="-63" name="Bottom"/>
  <anchor x="1444" y="1273" name="Top"/>
  <anchor x="1473" y="1273" name="Top2"/>
  <outline>
    <contour>
      <point x="583" y="574" type="line"/>
      <point x="854" y="574" type="line"/>
      <point x="842" y="721" type="line"/>
      <point x="583" y="721" type="line"/>
    </contour>
    <contour>
      <point x="363" y="151" type="curve" smooth="yes"/>
      <point x="553" y="151"/>
      <point x="641" y="246"/>
      <point x="641" y="466" type="curve" smooth="yes"/>
      <point x="641" y="1010" type="line"/>
      <point x="473" y="1010" type="line"/>
      <point x="473" y="453" type="line" smooth="yes"/>
      <point x="473" y="355"/>
      <point x="441" y="306"/>
      <point x="367" y="306" type="curve" smooth="yes"/>
      <point x="291" y="306"/>
      <point x="261" y="355"/>
      <point x="261" y="453" type="curve" smooth="yes"/>
      <point x="261" y="844" type="line" smooth="yes"/>
      <point x="261" y="1011"/>
      <point x="285" y="1112"/>
      <point x="367" y="1212" type="curve"/>
      <point x="187" y="1212" type="line"/>
      <point x="111" y="1125"/>
      <point x="86" y="1025"/>
      <point x="86" y="851" type="curve" smooth="yes"/>
      <point x="86" y="466" type="line" smooth="yes"/>
      <point x="86" y="246"/>
      <point x="173" y="151"/>
    </contour>
    <contour>
      <point x="1386" y="508" type="line"/>
      <point x="1561" y="508" type="line"/>
      <point x="1561" y="1212" type="line"/>
      <point x="1386" y="1212" type="line"/>
    </contour>
    <contour>
      <point x="1386" y="0" type="line"/>
      <point x="1561" y="0" type="line"/>
      <point x="1561" y="666" type="line"/>
      <point x="1386" y="666" type="line"/>
    </contour>
    <contour>
      <point x="971" y="454" type="line"/>
      <point x="967" y="486" type="line"/>
      <point x="979" y="486" type="line"/>
      <point x="1127" y="486"/>
      <point x="1199" y="582"/>
      <point x="1199" y="770" type="curve" smooth="yes"/>
      <point x="1199" y="966" type="line" smooth="yes"/>
      <point x="1199" y="1147"/>
      <point x="1125" y="1232"/>
      <point x="980" y="1232" type="curve" smooth="yes"/>
      <point x="919" y="1232"/>
      <point x="869" y="1216"/>
      <point x="833" y="1193" type="curve"/>
      <point x="821" y="1047" type="line"/>
      <point x="855" y="1068"/>
      <point x="886" y="1082"/>
      <point x="932" y="1082" type="curve" smooth="yes"/>
      <point x="995" y="1082"/>
      <point x="1028" y="1042"/>
      <point x="1028" y="949" type="curve" smooth="yes"/>
      <point x="1028" y="786" type="line" smooth="yes"/>
      <point x="1028" y="676"/>
      <point x="990" y="626"/>
      <point x="901" y="625" type="curve" smooth="yes"/>
      <point x="796" y="623" type="line"/>
      <point x="796" y="484" type="line"/>
    </contour>
    <contour>
      <point x="1197" y="-17" type="curve" smooth="yes"/>
      <point x="1219" y="-17"/>
      <point x="1240" y="-14"/>
      <point x="1259" y="-10" type="curve"/>
      <point x="1270" y="140" type="line"/>
      <point x="1260" y="139"/>
      <point x="1246" y="137"/>
      <point x="1231" y="137" type="curve" smooth="yes"/>
      <point x="1154" y="137"/>
      <point x="1101" y="189"/>
      <point x="1077" y="344" type="curve" smooth="yes"/>
      <point x="1046" y="548" type="line"/>
      <point x="878" y="546" type="line"/>
      <point x="911" y="325" type="line" smooth="yes"/>
      <point x="949" y="68"/>
      <point x="1033" y="-17"/>
    </contour>
    <contour>
      <point x="1271" y="555" type="curve" smooth="yes"/>
      <point x="1510" y="555" type="line"/>
      <point x="1498" y="702" type="line"/>
      <point x="1451" y="702"/>
      <point x="1381" y="702"/>
      <point x="1334" y="702" type="curve"/>
      <point x="1123" y="702" type="line"/>
      <point x="1099" y="578" type="line"/>
      <point x="1146" y="564"/>
      <point x="1208" y="555"/>
    </contour>
  </outline>
</glyph>
